<svg width="271" height="181" viewBox="0 0 271 181" fill="none" xmlns="http://www.w3.org/2000/svg">
<path d="M257.797 26.0097L257.179 24.978C251.972 16.3841 242.559 11.222 232.637 11.8338C231.359 11.9135 230.089 12.0877 228.836 12.3551C219.803 14.2882 211.965 21.1263 208.71 29.8795C206.795 35.0271 206.26 40.9567 202.629 45.0437C197.902 50.3723 189.877 50.5388 182.835 50.318C175.792 50.0972 167.749 50.2854 163.044 55.6249C160.1 58.9698 159.164 63.7265 159.402 68.2044C160.031 80.0599 168.277 90.6484 178.762 95.9336C189.248 101.219 201.602 101.675 213.089 99.3581C229.168 96.1002 244.46 87.1913 253.652 73.4172C262.845 59.6431 265.15 40.8771 257.797 26.0097Z" fill="#F5F5F5"/>
<path d="M33.1234 54.843C43.4526 54.843 51.826 46.4541 51.826 36.1059C51.826 25.7577 43.4526 17.3688 33.1234 17.3688C22.7942 17.3688 14.4208 25.7577 14.4208 36.1059C14.4208 46.4541 22.7942 54.843 33.1234 54.843Z" fill="#F5F5F5"/>
<path d="M255.481 160.572C255.481 160.623 201.165 160.666 134.178 160.666C67.19 160.666 12.8635 160.623 12.8635 160.572C12.8635 160.522 67.1683 160.478 134.178 160.478C201.187 160.478 255.481 160.518 255.481 160.572Z" fill="#263238"/>
<path d="M42.7024 34.028H226.534C227.18 34.028 227.8 34.2851 228.256 34.7426C228.713 35.2002 228.97 35.8208 228.97 36.4679V154.009C228.969 155.407 228.414 156.747 227.428 157.735C226.441 158.723 225.104 159.279 223.709 159.28H45.1667C43.7705 159.28 42.4314 158.724 41.4441 157.735C40.4568 156.746 39.9021 155.405 39.9021 154.006V36.8299C39.9031 36.0865 40.1985 35.3738 40.7236 34.8484C41.2486 34.3231 41.9604 34.028 42.7024 34.028Z" fill="#455A64"/>
<path d="M31.9961 150.02H236.836V156.022C236.836 157.339 236.314 158.603 235.384 159.534C234.454 160.465 233.193 160.989 231.878 160.989H36.9536C35.6388 160.989 34.3778 160.465 33.4481 159.534C32.5184 158.603 31.9961 157.339 31.9961 156.022V150.02Z" fill="#455A64"/>
<path d="M223.365 38.9983H44.9752V144.778H223.365V38.9983Z" fill="#F5F5F5"/>
<path d="M115.797 150.02L118.34 154.071H154.109L156.468 150.02H115.797Z" fill="#263238"/>
<path d="M229.002 149.98H39.931V150.585H229.002V149.98Z" fill="#263238"/>
<path d="M95.486 34.028H75.8439V27.0921C75.8439 22.2014 79.8005 18.0638 84.6821 18.0638L95.486 18.2339V34.028Z" fill="#E0E0E0"/>
<path d="M84.2593 18.0529C84.2593 18.0529 95.4389 17.0357 95.4389 31.6424V145.256H183.171V27.512C183.17 26.2429 182.92 24.9864 182.434 23.8143C181.949 22.6422 181.237 21.5775 180.34 20.6811C179.444 19.7848 178.379 19.0743 177.208 18.5904C176.037 18.1065 174.783 17.8587 173.516 17.8611L84.2593 18.0529Z" fill="white"/>
<path d="M84.2593 18.0529L149.166 17.843L164.884 17.7995L173.241 17.7742C174.705 17.7339 176.16 18.0244 177.496 18.6241C178.833 19.2239 180.018 20.1174 180.963 21.2385C181.93 22.3926 182.616 23.7557 182.968 25.2205C183.061 25.5886 183.13 25.9622 183.174 26.3391C183.225 26.7011 183.221 27.0957 183.247 27.4758C183.247 28.2312 183.247 28.9914 183.247 29.7564C183.247 32.8044 183.247 35.9019 183.247 39.0489C183.247 45.3357 183.247 51.8022 183.247 58.4485C183.247 84.9976 183.247 114.197 183.247 144.822V145.35H183.153H95.4209H95.3342V145.263C95.3342 105.928 95.3595 72.5267 95.3703 48.9714C95.3703 43.078 95.3703 37.8 95.3703 33.199C95.3703 32.0479 95.3703 30.9401 95.3053 29.8795C95.242 28.8615 95.1019 27.8499 94.8861 26.8532C94.6785 25.9449 94.3908 25.0569 94.0261 24.1997C93.683 23.4341 93.2616 22.7062 92.7687 22.0277C91.9246 20.8992 90.8426 19.971 89.5998 19.3091C88.6917 18.8279 87.7177 18.4839 86.7091 18.2882C86.0974 18.1637 85.4759 18.0934 84.8519 18.0783C84.4327 18.0783 84.2159 18.0783 84.2159 18.0783C84.4277 18.0656 84.6401 18.0656 84.8519 18.0783C85.4779 18.0887 86.1018 18.1541 86.7164 18.2738C87.7245 18.4669 88.6986 18.8085 89.607 19.2874C90.8585 19.9471 91.9482 20.8769 92.7976 22.0096C93.2949 22.6879 93.7211 23.4158 94.0695 24.1816C94.4378 25.0422 94.7292 25.9338 94.9403 26.8459C95.1588 27.8461 95.3013 28.8614 95.3667 29.8831C95.4462 30.9474 95.4353 32.0551 95.4353 33.2063C95.4353 37.8073 95.4353 43.0852 95.4353 48.9786C95.4353 72.5484 95.4534 105.95 95.4679 145.271L95.3811 145.187H183.113L183.019 145.281V144.847C183.019 114.211 183.019 85.0229 183.019 58.4739C183.019 51.8348 183.019 45.3682 183.019 39.0743V29.7564C182.997 28.2324 183.131 26.7047 182.748 25.2567C182.418 23.8286 181.767 22.495 180.844 21.358C179.916 20.2543 178.752 19.3743 177.439 18.7833C176.125 18.1923 174.695 17.9056 173.256 17.9443H164.88L149.137 17.9697L84.2593 18.0529Z" fill="#263238"/>
<path d="M132.992 52.5334C132.992 52.5841 127.656 52.6275 121.068 52.6275C114.481 52.6275 109.144 52.5841 109.144 52.5334C109.144 52.4827 114.478 52.4393 121.068 52.4393C127.659 52.4393 132.992 52.49 132.992 52.5334Z" fill="#263238"/>
<path d="M138.333 55.386C138.333 55.4403 131.804 55.4801 123.746 55.4801C115.688 55.4801 109.162 55.4403 109.162 55.386C109.162 55.3317 115.692 55.2919 123.746 55.2919C131.8 55.2919 138.333 55.3353 138.333 55.386Z" fill="#263238"/>
<path d="M140.248 66.6261C140.248 66.6768 133.505 66.7202 125.188 66.7202C116.87 66.7202 110.127 66.6768 110.127 66.6261C110.127 66.5754 116.87 66.532 125.188 66.532C133.505 66.532 140.248 66.5718 140.248 66.6261Z" fill="#263238"/>
<path d="M159.923 77.5802C159.923 77.6309 148.649 77.6743 134.745 77.6743C120.841 77.6743 109.567 77.6309 109.567 77.5802C109.567 77.5295 120.837 77.4861 134.745 77.4861C148.653 77.4861 159.923 77.5259 159.923 77.5802Z" fill="#263238"/>
<path d="M159.923 80.8455C159.923 80.8998 148.649 80.9396 134.745 80.9396C120.841 80.9396 109.567 80.8998 109.567 80.8455C109.567 80.7912 120.837 80.7513 134.745 80.7513C148.653 80.7513 159.923 80.7948 159.923 80.8455Z" fill="#263238"/>
<path d="M159.923 84.1143C159.923 84.1686 148.649 84.2084 134.745 84.2084C120.841 84.2084 109.567 84.1686 109.567 84.1143C109.567 84.06 120.837 84.0202 134.745 84.0202C148.653 84.0202 159.923 84.0636 159.923 84.1143Z" fill="#263238"/>
<path d="M159.923 87.3832C159.923 87.4339 148.649 87.4773 134.745 87.4773C120.841 87.4773 109.567 87.4339 109.567 87.3832C109.567 87.3325 120.837 87.2891 134.745 87.2891C148.653 87.2891 159.923 87.3325 159.923 87.3832Z" fill="#263238"/>
<path d="M159.923 90.652C159.923 90.7027 148.649 90.7462 134.745 90.7462C120.841 90.7462 109.567 90.7027 109.567 90.652C109.567 90.6014 120.837 90.5579 134.745 90.5579C148.653 90.5579 159.923 90.5977 159.923 90.652Z" fill="#263238"/>
<path d="M128.664 93.9209C128.664 93.9716 124.385 94.015 119.114 94.015C113.842 94.015 109.567 93.9716 109.567 93.9209C109.567 93.8702 113.842 93.8268 119.114 93.8268C124.385 93.8268 128.664 93.8666 128.664 93.9209Z" fill="#263238"/>
<path d="M117.509 35.6498C117.507 35.3696 117.562 35.0918 117.671 34.834C117.781 34.5763 117.943 34.344 118.147 34.1519C118.35 33.9598 118.591 33.812 118.855 33.7178C119.118 33.6235 119.398 33.585 119.677 33.6045C119.995 33.5873 120.313 33.6437 120.605 33.7693C120.898 33.8948 121.158 34.0862 121.365 34.3285L120.66 34.9692C120.552 34.8264 120.412 34.7106 120.251 34.6309C120.091 34.5512 119.914 34.5096 119.735 34.5095C119.438 34.5095 119.153 34.6277 118.943 34.8382C118.733 35.0486 118.615 35.334 118.615 35.6317C118.615 35.9293 118.733 36.2147 118.943 36.4252C119.153 36.6356 119.438 36.7539 119.735 36.7539C119.914 36.7537 120.091 36.7122 120.251 36.6324C120.412 36.5527 120.552 36.4369 120.66 36.2941L121.365 36.9312C121.16 37.1769 120.9 37.3716 120.608 37.5004C120.315 37.6291 119.997 37.6883 119.677 37.6733C119.4 37.6927 119.122 37.6547 118.86 37.5618C118.598 37.4689 118.358 37.3231 118.155 37.1333C117.951 36.9435 117.789 36.7139 117.678 36.4587C117.567 36.2035 117.51 35.9282 117.509 35.6498Z" fill="#263238"/>
<path d="M124.992 36.7538V37.6118H121.845V33.6841H124.92V34.542H122.94V35.2045H124.685V36.0371H122.94V36.7611L124.992 36.7538Z" fill="#263238"/>
<path d="M127.323 36.562H126.72V37.6045H125.61V33.6841H127.417C128.501 33.6841 129.159 34.2379 129.159 35.1321C129.168 35.3918 129.1 35.6485 128.963 35.8691C128.826 36.0897 128.626 36.2642 128.389 36.3701L129.238 37.6045H128.049L127.323 36.562ZM127.323 34.5529H126.709V35.704H127.323C127.782 35.704 128.013 35.4905 128.013 35.1321C128.013 34.7737 127.793 34.5601 127.334 34.5601L127.323 34.5529Z" fill="#263238"/>
<path d="M130.532 34.5637H129.328V33.6841H132.841V34.5637H131.641V37.6118H130.532V34.5637Z" fill="#263238"/>
<path d="M133.256 33.6841H134.365V37.6118H133.256V33.6841Z" fill="#263238"/>
<path d="M136.266 34.542V35.4072H137.997V36.2651H136.266V37.6118H135.157V33.6841H138.232V34.542H136.266Z" fill="#263238"/>
<path d="M138.752 33.6841H139.861V37.6118H138.752V33.6841Z" fill="#263238"/>
<path d="M140.45 35.6498C140.448 35.3697 140.504 35.0922 140.614 34.8347C140.723 34.5771 140.885 34.3451 141.089 34.1531C141.292 33.9611 141.533 33.8133 141.796 33.7189C142.06 33.6245 142.339 33.5855 142.618 33.6045C142.936 33.5873 143.253 33.6437 143.545 33.7693C143.837 33.8949 144.096 34.0862 144.302 34.3285L143.597 34.9692C143.489 34.8262 143.349 34.7103 143.189 34.6305C143.028 34.5507 142.852 34.5093 142.672 34.5095C142.375 34.5095 142.09 34.6277 141.88 34.8381C141.67 35.0486 141.552 35.334 141.552 35.6317C141.552 35.9293 141.67 36.2147 141.88 36.4252C142.09 36.6356 142.375 36.7539 142.672 36.7539C142.852 36.754 143.028 36.7126 143.189 36.6328C143.349 36.553 143.489 36.4371 143.597 36.2941L144.302 36.9312C144.098 37.1768 143.839 37.3716 143.547 37.5003C143.255 37.6291 142.937 37.6883 142.618 37.6733C141.364 37.6914 140.45 36.8444 140.45 35.6498Z" fill="#263238"/>
<path d="M147.345 36.848H145.69L145.379 37.6118H144.248L145.979 33.6841H147.063L148.797 37.6118H147.644L147.345 36.848ZM147.023 36.0298L146.517 34.7737L146.011 36.0298H147.023Z" fill="#263238"/>
<path d="M149.762 34.5637H148.559V33.6841H152.071V34.5637H150.871V37.6118H149.762V34.5637Z" fill="#263238"/>
<path d="M152.483 33.6841H153.592V37.6118H152.483V33.6841Z" fill="#263238"/>
<path d="M154.181 35.6498C154.181 34.4696 155.106 33.6045 156.349 33.6045C157.592 33.6045 158.517 34.4696 158.517 35.6498C158.517 36.8299 157.592 37.6914 156.349 37.6914C155.106 37.6914 154.181 36.8263 154.181 35.6498ZM157.433 35.6498C157.421 35.443 157.349 35.2443 157.225 35.0782C157.102 34.912 156.933 34.7857 156.739 34.7148C156.544 34.6439 156.334 34.6314 156.133 34.6791C155.931 34.7267 155.749 34.8322 155.607 34.9827C155.465 35.1332 155.37 35.3221 155.334 35.526C155.297 35.7299 155.322 35.9399 155.403 36.1301C155.485 36.3204 155.62 36.4826 155.793 36.5966C155.965 36.7107 156.167 36.7716 156.374 36.772C156.518 36.7718 156.66 36.7421 156.791 36.6846C156.923 36.6272 157.042 36.5433 157.14 36.438C157.237 36.3328 157.313 36.2085 157.361 36.0729C157.409 35.9373 157.428 35.7933 157.418 35.6498H157.433Z" fill="#263238"/>
<path d="M162.853 33.6841V37.6118H161.939L160.208 35.5194V37.6118H159.124V33.6841H160.035L161.765 35.7764V33.6841H162.853Z" fill="#263238"/>
<path d="M167.297 107.717C167.297 107.767 162.297 107.811 156.132 107.811C149.968 107.811 144.963 107.767 144.963 107.717C144.963 107.666 149.964 107.623 156.132 107.623C162.3 107.623 167.297 107.666 167.297 107.717Z" fill="#263238"/>
<path d="M167.297 110.873C167.297 110.924 162.297 110.967 156.132 110.967C149.968 110.967 144.963 110.924 144.963 110.873C144.963 110.823 149.953 110.772 156.136 110.772C162.318 110.772 167.297 110.823 167.297 110.873Z" fill="#263238"/>
<path d="M165.816 124.59C165.811 124.537 165.811 124.483 165.816 124.43C165.816 124.318 165.798 124.166 165.783 123.971C165.783 123.869 165.776 123.757 165.762 123.634C165.762 123.507 165.722 123.373 165.7 123.228C165.656 122.891 165.587 122.557 165.494 122.229C165.266 121.323 164.901 120.458 164.41 119.663C163.264 117.741 161.484 116.28 159.378 115.532C157.273 114.783 154.972 114.794 152.873 115.561C152.444 115.716 152.027 115.9 151.623 116.111C151.214 116.337 150.82 116.59 150.445 116.868C150.064 117.153 149.702 117.463 149.361 117.795C149.024 118.146 148.71 118.518 148.421 118.91C147.825 119.712 147.362 120.605 147.052 121.556C146.392 123.523 146.392 125.652 147.052 127.619C147.362 128.57 147.825 129.464 148.421 130.266C148.71 130.657 149.024 131.03 149.361 131.381C149.702 131.713 150.064 132.022 150.445 132.307C151.182 132.867 152.001 133.309 152.873 133.618C154.483 134.203 156.218 134.349 157.903 134.041C159.245 133.79 160.518 133.256 161.639 132.476C162.761 131.695 163.704 130.685 164.407 129.513C164.897 128.718 165.263 127.852 165.491 126.946C165.583 126.619 165.652 126.285 165.697 125.947C165.718 125.802 165.744 125.668 165.758 125.545C165.773 125.422 165.758 125.306 165.78 125.205C165.78 125.009 165.805 124.843 165.812 124.745C165.807 124.693 165.807 124.641 165.812 124.59C165.817 124.641 165.817 124.693 165.812 124.745V125.209C165.812 125.31 165.812 125.426 165.812 125.549C165.812 125.672 165.78 125.809 165.758 125.958C165.722 126.298 165.659 126.634 165.57 126.964C165.354 127.881 164.998 128.759 164.515 129.567C163.365 131.526 161.567 133.02 159.432 133.79C157.298 134.559 154.962 134.556 152.83 133.781C152.392 133.624 151.966 133.438 151.554 133.223C151.136 132.996 150.735 132.738 150.354 132.452C149.963 132.164 149.591 131.849 149.242 131.511C148.898 131.154 148.578 130.774 148.284 130.374C147.675 129.557 147.203 128.646 146.886 127.677C146.211 125.673 146.211 123.502 146.886 121.498C147.204 120.529 147.676 119.619 148.284 118.801C148.578 118.402 148.899 118.023 149.245 117.668C149.594 117.329 149.964 117.013 150.354 116.723C151.451 115.912 152.705 115.341 154.035 115.047C155.366 114.753 156.743 114.742 158.078 115.015C159.413 115.288 160.676 115.839 161.785 116.632C162.894 117.425 163.824 118.443 164.515 119.619C164.998 120.428 165.354 121.305 165.57 122.222C165.659 122.553 165.722 122.891 165.758 123.232C165.78 123.38 165.801 123.514 165.812 123.637C165.823 123.761 165.812 123.876 165.812 123.981V124.441C165.818 124.49 165.819 124.54 165.816 124.59Z" fill="#B0BEC5"/>
<path d="M162.182 126.026C162.977 122.676 160.911 119.315 157.568 118.519C154.225 117.722 150.87 119.791 150.075 123.141C149.28 126.49 151.345 129.851 154.689 130.648C158.032 131.444 161.386 129.375 162.182 126.026Z" fill="#B0BEC5"/>
<path d="M169.971 119.221L169.711 119.366L168.934 119.779L165.946 121.339L161.223 123.804C160.743 124.054 160.224 124.221 159.688 124.296C159.396 124.333 159.099 124.307 158.818 124.221C158.536 124.135 158.276 123.991 158.054 123.797C157.819 123.592 157.651 123.321 157.574 123.018C157.53 122.861 157.525 122.694 157.561 122.534C157.597 122.375 157.672 122.226 157.78 122.103C158.005 121.855 158.317 121.705 158.651 121.683C158.825 121.659 159.003 121.693 159.157 121.779C159.31 121.865 159.432 121.999 159.503 122.161V122.186C159.512 123.231 159.141 124.244 158.459 125.035C158.103 125.462 157.662 125.812 157.165 126.061C156.667 126.31 156.124 126.454 155.569 126.483C154.983 126.514 154.397 126.428 153.845 126.228C153.293 126.029 152.787 125.72 152.356 125.321C151.891 124.912 151.567 124.366 151.431 123.761C151.369 123.442 151.412 123.111 151.554 122.819C151.698 122.52 151.948 122.286 152.255 122.161C152.414 122.099 152.586 122.08 152.755 122.103C152.923 122.126 153.083 122.192 153.22 122.294C153.48 122.503 153.671 122.786 153.765 123.105C153.868 123.414 153.918 123.739 153.914 124.065C153.928 124.226 153.928 124.388 153.914 124.55C153.906 124.713 153.885 124.875 153.852 125.035C153.598 126.351 152.883 127.534 151.836 128.369C151.308 128.807 150.695 129.13 150.035 129.317C149.376 129.504 148.684 129.551 148.006 129.455C146.607 129.22 145.352 128.455 144.501 127.319C144.004 126.682 143.66 125.939 143.496 125.147C143.319 124.36 143.381 123.538 143.673 122.787C143.832 122.411 144.102 122.093 144.447 121.875C144.796 121.658 145.213 121.58 145.617 121.654C145.815 121.699 146.001 121.787 146.161 121.912C146.32 122.037 146.451 122.196 146.542 122.378C146.719 122.721 146.847 123.086 146.925 123.464C147.265 124.927 147.172 126.458 146.658 127.869C146.172 129.228 145.234 130.378 144.002 131.127C142.83 131.843 141.452 132.145 140.089 131.985C139.438 131.906 138.809 131.702 138.235 131.384C137.68 131.071 137.19 130.654 136.79 130.157C136.018 129.222 135.595 128.047 135.594 126.834C135.606 126.263 135.729 125.7 135.955 125.176C136.053 124.917 136.202 124.68 136.395 124.481C136.588 124.283 136.819 124.126 137.075 124.021C137.336 123.94 137.613 123.932 137.878 123.999C138.126 124.081 138.352 124.219 138.539 124.401C138.887 124.753 139.148 125.182 139.301 125.654C139.458 126.089 139.54 126.548 139.543 127.011C139.543 127.236 139.543 127.453 139.543 127.67C139.543 127.887 139.525 128.097 139.504 128.304C139.368 129.726 138.954 131.107 138.286 132.369C137.866 133.164 137.346 133.903 136.739 134.566C136.533 134.794 136.36 134.954 136.244 135.062C136.129 135.171 136.067 135.221 136.067 135.221C136.067 135.221 136.122 135.16 136.234 135.048C136.346 134.935 136.508 134.773 136.711 134.541C137.301 133.87 137.808 133.129 138.221 132.336C138.871 131.079 139.271 129.707 139.399 128.296C139.421 128.09 139.431 127.88 139.435 127.667C139.439 127.453 139.435 127.236 139.435 127.015C139.429 126.564 139.347 126.117 139.193 125.694C139.048 125.243 138.801 124.833 138.47 124.495C138.297 124.329 138.088 124.205 137.86 124.133C137.621 124.074 137.371 124.081 137.137 124.155C136.899 124.255 136.684 124.403 136.506 124.59C136.327 124.777 136.189 124.999 136.1 125.241C135.889 125.749 135.778 126.292 135.771 126.841C135.778 128.019 136.192 129.159 136.942 130.067C137.332 130.556 137.815 130.963 138.362 131.265C138.91 131.567 139.511 131.757 140.132 131.826C141.459 131.978 142.798 131.683 143.937 130.986C145.136 130.254 146.046 129.13 146.513 127.804C147.014 126.426 147.104 124.932 146.77 123.504C146.698 123.142 146.576 122.793 146.409 122.465C146.33 122.305 146.217 122.164 146.078 122.054C145.938 121.943 145.776 121.864 145.603 121.824C145.245 121.759 144.876 121.831 144.57 122.027C144.255 122.222 144.011 122.512 143.872 122.856C143.593 123.57 143.535 124.352 143.706 125.1C143.864 125.864 144.197 126.582 144.678 127.196C145.501 128.291 146.711 129.03 148.06 129.259C148.714 129.349 149.38 129.3 150.014 129.118C150.649 128.935 151.238 128.622 151.746 128.199C152.759 127.393 153.451 126.25 153.697 124.977C153.754 124.669 153.779 124.356 153.769 124.043C153.775 123.736 153.729 123.43 153.632 123.138C153.546 122.854 153.379 122.603 153.151 122.414C153.038 122.33 152.905 122.276 152.766 122.257C152.626 122.238 152.484 122.254 152.353 122.305C152.088 122.416 151.872 122.619 151.746 122.877C151.62 123.136 151.582 123.428 151.637 123.71C151.769 124.273 152.075 124.779 152.512 125.158C152.924 125.543 153.409 125.841 153.939 126.034C154.468 126.228 155.031 126.312 155.594 126.284C156.126 126.256 156.648 126.118 157.124 125.879C157.601 125.64 158.024 125.304 158.365 124.894C159.026 124.132 159.389 123.155 159.384 122.146V122.171C159.325 122.035 159.221 121.922 159.09 121.852C158.959 121.782 158.808 121.758 158.662 121.784C158.367 121.8 158.09 121.93 157.888 122.146C157.794 122.253 157.729 122.382 157.697 122.521C157.666 122.66 157.669 122.805 157.708 122.942C157.776 123.224 157.93 123.477 158.148 123.666C158.355 123.85 158.598 123.986 158.862 124.067C159.125 124.149 159.403 124.172 159.677 124.137C160.2 124.068 160.707 123.909 161.176 123.666L165.91 121.252L168.92 119.728L169.704 119.333L169.971 119.221Z" fill="#263238"/>
<path d="M137.603 29.9193C137.603 29.9736 129.961 30.017 120.534 30.017C111.106 30.017 103.461 29.9736 103.461 29.9193C103.461 29.865 111.103 29.8252 120.534 29.8252C129.964 29.8252 137.603 29.8686 137.603 29.9193Z" fill="#E0E0E0"/>
<path d="M143.294 29.9193C142.509 30.0496 141.708 30.0496 140.924 29.9193C141.709 29.7938 142.509 29.7938 143.294 29.9193Z" fill="#E0E0E0"/>
<path d="M177.281 29.9193C177.281 29.9736 170.307 30.017 161.711 30.017C153.115 30.017 146.141 29.9736 146.141 29.9193C146.141 29.865 153.108 29.8252 161.711 29.8252C170.314 29.8252 177.281 29.8686 177.281 29.9193Z" fill="#E0E0E0"/>
<path d="M137.603 39.4363C137.603 39.4906 129.961 39.5304 120.534 39.5304C111.106 39.5304 103.461 39.4906 103.461 39.4363C103.461 39.382 111.103 39.3422 120.534 39.3422C129.964 39.3422 137.603 39.3856 137.603 39.4363Z" fill="#E0E0E0"/>
<path d="M143.294 39.4363C142.509 39.5618 141.709 39.5618 140.924 39.4363C141.709 39.3108 142.509 39.3108 143.294 39.4363Z" fill="#E0E0E0"/>
<path d="M177.281 39.4363C177.281 39.4906 170.307 39.5304 161.711 39.5304C153.115 39.5304 146.141 39.4906 146.141 39.4363C146.141 39.382 153.108 39.3422 161.711 39.3422C170.314 39.3422 177.281 39.3856 177.281 39.4363Z" fill="#E0E0E0"/>
<path d="M168.927 77.106L159.969 97.9608C159.927 98.058 159.914 98.1659 159.934 98.2703C159.953 98.3747 160.004 98.4707 160.079 98.5456C160.154 98.6205 160.25 98.6708 160.355 98.6899C160.459 98.7089 160.567 98.6958 160.663 98.6523L167.568 95.597C167.636 95.5657 167.71 95.5493 167.784 95.5487C167.859 95.548 167.933 95.5633 168.001 95.5934C168.069 95.6235 168.131 95.6678 168.181 95.7233C168.231 95.7789 168.268 95.8444 168.291 95.9155L170.622 102.92C170.657 103.023 170.724 103.113 170.813 103.176C170.902 103.239 171.008 103.273 171.117 103.273C171.226 103.273 171.332 103.239 171.42 103.176C171.509 103.113 171.576 103.023 171.612 102.92L180.034 80.4256L168.927 77.106Z" fill="#B0BEC5"/>
<path d="M180.602 80.5921L184.891 102.884C184.911 102.988 184.961 103.084 185.037 103.159C185.112 103.233 185.207 103.284 185.311 103.303C185.416 103.323 185.523 103.311 185.62 103.268C185.717 103.226 185.799 103.155 185.855 103.065L189.852 96.654C189.891 96.5918 189.942 96.5383 190.002 96.497C190.063 96.4557 190.132 96.4275 190.204 96.4143C190.276 96.401 190.35 96.4029 190.421 96.4199C190.492 96.4368 190.559 96.4685 190.618 96.5128L196.475 100.998C196.562 101.063 196.666 101.1 196.775 101.104C196.883 101.108 196.99 101.078 197.081 101.019C197.171 100.959 197.242 100.873 197.282 100.772C197.322 100.672 197.331 100.561 197.306 100.455L191.648 77.106L180.602 80.5921Z" fill="#B0BEC5"/>
<g opacity="0.3">
<path d="M168.927 77.106L159.969 97.9608C159.927 98.058 159.914 98.1659 159.934 98.2703C159.953 98.3747 160.004 98.4707 160.079 98.5456C160.154 98.6205 160.25 98.6708 160.355 98.6899C160.459 98.7089 160.567 98.6958 160.663 98.6523L167.568 95.597C167.636 95.5657 167.71 95.5493 167.784 95.5487C167.859 95.548 167.933 95.5633 168.001 95.5934C168.069 95.6235 168.131 95.6678 168.181 95.7233C168.231 95.7789 168.268 95.8444 168.291 95.9155L170.622 102.92C170.657 103.023 170.724 103.113 170.813 103.176C170.902 103.239 171.008 103.273 171.117 103.273C171.226 103.273 171.332 103.239 171.42 103.176C171.509 103.113 171.576 103.023 171.612 102.92L180.034 80.4256L168.927 77.106Z" fill="black"/>
</g>
<g opacity="0.3">
<path d="M180.602 80.5921L184.891 102.884C184.911 102.988 184.961 103.084 185.037 103.159C185.112 103.233 185.207 103.284 185.311 103.303C185.416 103.323 185.523 103.311 185.62 103.268C185.717 103.226 185.799 103.155 185.855 103.065L189.852 96.654C189.891 96.5918 189.942 96.5383 190.002 96.497C190.063 96.4557 190.132 96.4275 190.204 96.4143C190.276 96.401 190.35 96.4029 190.421 96.4199C190.492 96.4368 190.559 96.4685 190.618 96.5128L196.475 100.998C196.562 101.063 196.666 101.1 196.775 101.104C196.883 101.108 196.99 101.078 197.081 101.019C197.171 100.959 197.242 100.873 197.282 100.772C197.322 100.672 197.331 100.561 197.306 100.455L191.648 77.106L180.602 80.5921Z" fill="black"/>
</g>
<path d="M181.035 40.5658L183.976 38.401L186.289 41.2282L189.675 39.8671L191.21 43.183L194.831 42.7052L195.492 46.2998L199.116 46.7379L198.867 50.3868L202.267 51.7117L201.122 55.1833L204.085 57.3191L202.115 60.3961L204.457 63.198L201.779 65.6886L203.355 68.9864L200.146 70.7312L200.851 74.3186L197.31 75.2092L197.1 78.8581L193.451 78.84L192.341 82.3225L188.811 81.3957L186.871 84.4908L183.684 82.7134L181.035 85.2293L178.39 82.7134L175.203 84.4908L173.263 81.3957L169.733 82.3225L168.623 78.84L164.974 78.8581L164.764 75.2092L161.223 74.3186L161.928 70.7312L158.719 68.9864L160.291 65.6886L157.617 63.198L159.959 60.3961L157.989 57.3191L160.952 55.1833L159.803 51.7117L163.207 50.3868L162.958 46.7379L166.582 46.2998L167.243 42.7052L170.864 43.183L172.399 39.8671L175.785 41.2282L178.094 38.401L181.035 40.5658Z" fill="#B0BEC5"/>
<path d="M192.724 73.5262C199.18 67.0585 199.18 56.5724 192.724 50.1047C186.269 43.637 175.802 43.637 169.346 50.1047C162.89 56.5724 162.89 67.0585 169.346 73.5262C175.802 79.9939 186.269 79.9939 192.724 73.5262Z" fill="white"/>
<path d="M184.641 57.891L189.075 58.5426C189.239 58.5665 189.394 58.636 189.52 58.7433C189.647 58.8506 189.742 58.9913 189.793 59.1496C189.844 59.3079 189.85 59.4773 189.81 59.6388C189.77 59.8002 189.685 59.9472 189.566 60.063L186.354 63.1943C186.25 63.2949 186.173 63.4194 186.128 63.557C186.083 63.6946 186.073 63.841 186.098 63.9835L186.853 68.418C186.88 68.5817 186.862 68.75 186.799 68.9037C186.737 69.0575 186.633 69.1907 186.498 69.2882C186.364 69.3857 186.205 69.4437 186.04 69.4556C185.875 69.4675 185.709 69.4329 185.563 69.3556L181.588 67.2596C181.461 67.1918 181.319 67.1563 181.174 67.1563C181.03 67.1563 180.888 67.1918 180.761 67.2596L176.786 69.3447C176.639 69.4213 176.474 69.4553 176.309 69.4428C176.143 69.4303 175.985 69.3718 175.851 69.2739C175.718 69.1761 175.614 69.0427 175.552 68.8889C175.489 68.7352 175.471 68.567 175.5 68.4035L176.262 63.9799C176.287 63.8377 176.276 63.6916 176.232 63.5542C176.188 63.4167 176.112 63.292 176.009 63.1907L172.8 60.0522C172.681 59.9361 172.597 59.7888 172.557 59.6271C172.517 59.4654 172.523 59.2957 172.575 59.1374C172.626 58.979 172.721 58.8383 172.849 58.7313C172.976 58.6242 173.131 58.5551 173.295 58.5318L177.733 57.891C177.875 57.8713 178.011 57.8167 178.127 57.7321C178.244 57.6475 178.338 57.5355 178.401 57.406L180.392 53.3805C180.466 53.2317 180.579 53.1064 180.72 53.0188C180.861 52.9312 181.023 52.8848 181.189 52.8848C181.355 52.8848 181.517 52.9312 181.658 53.0188C181.799 53.1064 181.912 53.2317 181.986 53.3805L183.962 57.4132C184.028 57.5424 184.124 57.6535 184.242 57.7368C184.361 57.8201 184.498 57.8731 184.641 57.891Z" fill="#B0BEC5"/>
<path d="M245.259 74.9702C245.259 74.9702 240.951 92.6467 221.667 88.5959C221.667 88.5959 227.257 70.695 245.259 74.9702Z" fill="#263238"/>
<path d="M235.951 101.74C235.951 101.74 227.098 114.964 212.464 105.82C212.464 105.82 222.437 92.7987 235.951 101.74Z" fill="#263238"/>
<path d="M221.837 121.914C221.837 121.914 208.923 132.916 196.544 119.279C196.565 119.279 210.56 108.81 221.837 121.914Z" fill="#263238"/>
<path d="M208.16 79.1441C208.16 79.1441 222.484 86.0402 215.532 101.845C215.532 101.845 201.263 93.8087 208.16 79.1441Z" fill="#263238"/>
<path d="M205.053 98.1998C205.053 98.1998 212.197 107.862 201.548 116.162C201.548 116.162 194.86 105.74 205.053 98.1998Z" fill="#263238"/>
<path d="M238.184 54.3C238.184 54.3 239.828 68.628 224.381 70.9231C224.388 70.9231 223.626 56.0738 238.184 54.3Z" fill="#263238"/>
<path d="M216.03 39.82C216.03 39.82 228.522 45.0473 223.098 59.73C223.098 59.701 210.578 53.4384 216.03 39.82Z" fill="#263238"/>
<path d="M208.489 60.7364C208.489 60.7364 225.031 62.626 223.575 80.6645C223.575 80.6645 206.683 77.6309 208.489 60.7364Z" fill="#263238"/>
<path d="M184.948 123.699C184.948 123.699 185.017 123.674 185.158 123.634L185.776 123.471C186.321 123.326 187.127 123.134 188.146 122.801C191.025 121.909 193.809 120.732 196.457 119.29C200.387 117.138 204.015 114.474 207.246 111.366C209.157 109.537 210.938 107.578 212.576 105.501L213.819 103.829L214.444 102.985C214.646 102.696 214.831 102.395 215.029 102.098L216.196 100.289L217.28 98.3989C217.458 98.0803 217.642 97.7654 217.815 97.4504C217.989 97.1355 218.137 96.7988 218.296 96.4766C218.614 95.8287 218.935 95.1915 219.243 94.5472C219.55 93.9028 219.792 93.244 220.066 92.5996C220.2 92.2774 220.345 91.9589 220.467 91.6367L220.829 90.6593L221.519 88.7335C221.71 88.0855 221.88 87.4411 222.086 86.8076C222.18 86.4891 222.274 86.1741 222.364 85.8592C222.455 85.5442 222.52 85.2257 222.599 84.9107L223.037 83.0428C223.981 78.6559 224.394 74.171 224.269 69.685C224.17 66.6623 223.834 63.6521 223.264 60.6821C223.037 59.6323 222.838 58.825 222.719 58.2748C222.657 58.0033 222.61 57.7969 222.578 57.6485C222.545 57.5001 222.538 57.4349 222.538 57.4349C222.538 57.4349 222.56 57.5037 222.596 57.6449L222.755 58.2675C222.888 58.8142 223.116 59.6214 223.336 60.6676C224.844 68.0664 224.799 75.6983 223.206 83.079C223.062 83.6944 222.916 84.3195 222.769 84.9542C222.693 85.2691 222.632 85.5913 222.538 85.9062C222.444 86.2212 222.354 86.5397 222.26 86.8583L221.692 88.7878L221.002 90.7208C220.887 91.0466 220.771 91.3724 220.641 91.7019C220.511 92.0313 220.373 92.3462 220.236 92.672L219.412 94.6268C219.105 95.2712 218.78 95.9119 218.466 96.5599L217.981 97.5373C217.804 97.8559 217.62 98.1708 217.443 98.4894L216.359 100.386L215.185 102.196C214.986 102.493 214.802 102.794 214.596 103.083L213.967 103.934L212.72 105.61C211.082 107.695 209.298 109.662 207.384 111.496C204.139 114.608 200.493 117.27 196.544 119.413C193.878 120.848 191.074 122.009 188.175 122.877C187.153 123.199 186.339 123.38 185.79 123.511L185.169 123.659L184.948 123.699Z" fill="#263238"/>
<path d="M203.503 105.99C203.522 106.124 203.522 106.261 203.503 106.395C203.481 106.652 203.441 107.029 203.387 107.481C203.275 108.405 203.084 109.675 202.813 111.069C202.542 112.463 202.238 113.715 201.996 114.609C201.873 115.058 201.772 115.42 201.693 115.67C201.661 115.802 201.614 115.93 201.552 116.05C201.561 115.915 201.584 115.782 201.62 115.652C201.689 115.359 201.772 115 201.866 114.566C202.076 113.664 202.357 112.412 202.628 111.022C202.899 109.632 203.109 108.368 203.254 107.452C203.322 107.025 203.384 106.663 203.431 106.366C203.442 106.239 203.466 106.113 203.503 105.99Z" fill="#455A64"/>
<path d="M207.022 120.34C206.886 120.346 206.75 120.333 206.618 120.303L205.534 120.141C204.609 120.003 203.326 119.822 201.92 119.656C200.515 119.489 199.214 119.37 198.282 119.294L197.176 119.196C197.039 119.191 196.904 119.172 196.771 119.138C196.907 119.12 197.044 119.12 197.18 119.138C197.443 119.138 197.823 119.138 198.289 119.174C199.228 119.221 200.518 119.319 201.942 119.485C203.366 119.652 204.645 119.847 205.555 120.028C206.018 120.115 206.386 120.191 206.639 120.249C206.77 120.263 206.899 120.294 207.022 120.34Z" fill="#455A64"/>
<path d="M224.431 102.808C224.277 102.862 224.117 102.901 223.954 102.924L222.646 103.181C221.541 103.402 220.019 103.72 218.35 104.122C216.681 104.524 215.181 104.944 214.097 105.255L212.814 105.617C212.661 105.671 212.502 105.71 212.341 105.733C212.484 105.652 212.635 105.589 212.793 105.545C213.089 105.436 213.515 105.291 214.061 105.118C215.145 104.774 216.63 104.336 218.303 103.93C219.976 103.525 221.508 103.224 222.639 103.04C223.196 102.946 223.647 102.88 223.962 102.841C224.117 102.814 224.274 102.803 224.431 102.808Z" fill="#455A64"/>
<path d="M211.788 89.2511C211.9 89.3871 211.998 89.5338 212.081 89.6891C212.265 89.9787 212.507 90.4131 212.785 90.9453C214.235 93.7786 215.121 96.8669 215.394 100.039C215.445 100.643 215.467 101.125 215.467 101.487C215.484 101.662 215.484 101.839 215.467 102.015C215.431 101.843 215.411 101.667 215.409 101.49C215.391 101.154 215.347 100.665 215.279 100.06C214.937 96.9173 214.059 93.8562 212.684 91.0104C212.421 90.4638 212.2 90.0294 212.038 89.7289C211.939 89.5781 211.856 89.418 211.788 89.2511Z" fill="#455A64"/>
<path d="M230.975 81.0084C230.858 81.1101 230.731 81.1998 230.596 81.2762L229.533 81.9677C228.644 82.5613 227.438 83.4157 226.173 84.4365C224.908 85.4573 223.824 86.4709 223.062 87.2203L222.166 88.118C222.064 88.2344 221.95 88.3399 221.826 88.433C221.909 88.3032 222.005 88.1819 222.112 88.071C222.307 87.8429 222.599 87.5207 222.968 87.1334C223.936 86.1238 224.967 85.176 226.054 84.2953C227.139 83.4142 228.277 82.6006 229.461 81.8591C229.92 81.5767 230.292 81.3595 230.545 81.2147C230.679 81.1287 230.824 81.0594 230.975 81.0084Z" fill="#455A64"/>
<path d="M212.912 67.9221C212.962 67.9518 213.008 67.987 213.049 68.027L213.411 68.3528C213.725 68.6388 214.173 69.0768 214.711 69.5945C215.795 70.6588 217.241 72.1756 218.744 73.9385C220.247 75.7014 221.512 77.3775 222.39 78.6155C222.827 79.2346 223.174 79.7414 223.405 80.0961L223.669 80.5088C223.727 80.6065 223.756 80.6572 223.748 80.6608C223.705 80.6228 223.667 80.579 223.636 80.5305L223.344 80.1396L222.281 78.6916C221.378 77.4752 220.113 75.8173 218.599 74.058C217.085 72.2986 215.673 70.7674 214.625 69.6814L213.36 68.418L213.02 68.056C212.945 67.9727 212.908 67.9293 212.912 67.9221Z" fill="#455A64"/>
<path d="M232.836 58.9553C232.728 59.1149 232.607 59.2651 232.475 59.4042L231.47 60.5916C230.628 61.5979 229.497 63.0133 228.334 64.6423C227.17 66.2713 226.202 67.8026 225.523 68.9284L224.749 70.2606C224.661 70.4299 224.559 70.591 224.442 70.742C224.509 70.5635 224.59 70.3905 224.684 70.2244C224.85 69.8986 225.107 69.4316 225.432 68.8596C226.083 67.7157 227.04 66.17 228.207 64.5337C229.374 62.8975 230.527 61.4893 231.394 60.5047C231.828 60.0087 232.189 59.6178 232.446 59.3535C232.564 59.21 232.695 59.0768 232.836 58.9553Z" fill="#455A64"/>
<path d="M217.884 45.3514C217.982 45.5214 218.069 45.698 218.144 45.8799C218.299 46.2202 218.505 46.7197 218.78 47.3279C219.304 48.5659 219.998 50.2963 220.71 52.2258C221.421 54.1552 222.018 55.9182 222.426 57.2033C222.632 57.844 222.787 58.3653 222.896 58.7273C222.959 58.9126 223.007 59.1027 223.04 59.2956C222.951 59.1205 222.879 58.9375 222.823 58.749L222.299 57.2431C221.862 55.9725 221.244 54.2168 220.532 52.2909C219.821 50.3651 219.149 48.6311 218.657 47.3786C218.419 46.774 218.224 46.2926 218.075 45.8908C217.994 45.7179 217.929 45.5372 217.884 45.3514Z" fill="#455A64"/>
<path d="M28.9066 71.0353C28.9066 71.0353 32.9788 87.7379 51.2009 83.9116C51.19 83.9116 45.9074 66.9953 28.9066 71.0353Z" fill="#263238"/>
<path d="M37.7014 96.3318C37.7014 96.3318 46.0663 108.828 59.8873 100.187C59.8873 100.187 50.4637 87.8827 37.7014 96.3318Z" fill="#263238"/>
<path d="M51.0275 115.395C51.0275 115.395 63.2333 125.795 74.9224 112.908C74.9224 112.908 61.6868 103.011 51.0275 115.395Z" fill="#263238"/>
<path d="M63.956 74.9811C63.956 74.9811 50.4204 81.4971 56.9894 96.4296C56.9858 96.4296 70.4852 88.8384 63.956 74.9811Z" fill="#263238"/>
<path d="M66.89 92.9869C66.89 92.9869 60.1403 102.117 70.1998 109.961C70.1998 109.961 76.5231 100.115 66.89 92.9869Z" fill="#263238"/>
<path d="M35.5841 51.5017C35.5841 51.5017 34.0304 65.0405 48.6282 67.2089C48.6282 67.2089 49.3365 53.1778 35.5841 51.5017Z" fill="#263238"/>
<path d="M56.5197 37.8C56.5197 37.8 44.7114 42.7413 49.8387 56.6241C49.8387 56.6059 61.6687 50.68 56.5197 37.8Z" fill="#263238"/>
<path d="M63.6452 57.5833C63.6452 57.5833 48.0103 59.3716 49.387 76.4073C49.387 76.4146 65.3543 73.5512 63.6452 57.5833Z" fill="#263238"/>
<path d="M89.3179 118.24L89.1047 118.2L88.4869 118.063C87.9449 117.936 87.1427 117.766 86.1273 117.465C83.2506 116.663 80.4493 115.61 77.7553 114.32C75.8898 113.436 74.0798 112.44 72.3353 111.337C70.3273 110.08 68.4111 108.681 66.6009 107.152C64.5944 105.468 62.7207 103.63 60.9966 101.657L59.6814 100.068C59.255 99.521 58.8503 98.9527 58.4275 98.3916C58.218 98.1092 58.0084 97.8233 57.7952 97.5409L57.2135 96.654C56.8304 96.0531 56.4221 95.4594 56.05 94.844C55.3273 93.5842 54.6046 92.3607 54.0084 91.0792C53.358 89.8303 52.8449 88.5452 52.3102 87.2854C48.5394 77.8935 47.5924 67.6018 49.5857 57.6775C49.8025 56.6421 50.0229 55.8494 50.1494 55.3064C50.218 55.0421 50.2686 54.8358 50.3048 54.691C50.3409 54.5462 50.3662 54.4846 50.3662 54.4846C50.3662 54.4846 50.3662 54.557 50.3228 54.6982C50.2795 54.8394 50.2469 55.0602 50.1855 55.3136C50.0699 55.8602 49.8603 56.6566 49.6544 57.6919C49.103 60.6253 48.79 63.5986 48.7185 66.5827C48.6146 73.6411 49.8938 80.6515 52.4836 87.2167C53.0148 88.4656 53.5279 89.7507 54.1783 90.9959C54.7672 92.2702 55.5043 93.4901 56.2089 94.7463C56.5703 95.3617 56.9858 95.9517 57.3688 96.5563L57.9506 97.4468L58.5793 98.2939C58.9984 98.855 59.4031 99.4233 59.8259 99.9663L61.1375 101.548C64.4144 105.299 68.2138 108.556 72.4184 111.221C76.6815 113.921 81.3041 116.004 86.149 117.407C87.1572 117.719 87.9557 117.9 88.4977 118.037L89.1083 118.197L89.3179 118.24Z" fill="#263238"/>
<path d="M68.3534 100.346C68.393 100.464 68.4208 100.585 68.4365 100.708C68.4835 100.991 68.5377 101.331 68.6027 101.733C68.74 102.598 68.9424 103.793 69.1953 105.107C69.4483 106.421 69.7156 107.601 69.918 108.455C70.0083 108.85 70.0842 109.179 70.1492 109.469C70.185 109.586 70.2056 109.708 70.2107 109.831C70.1522 109.716 70.1074 109.594 70.077 109.469C70.0047 109.237 69.9035 108.893 69.7879 108.47C69.5567 107.623 69.2748 106.443 69.0147 105.125C68.7545 103.807 68.5811 102.591 68.4763 101.733C68.4221 101.298 68.3859 100.944 68.3679 100.698C68.3492 100.582 68.3444 100.464 68.3534 100.346Z" fill="#455A64"/>
<path d="M65.0399 113.907C65.1564 113.859 65.2775 113.824 65.4013 113.802C65.6397 113.748 65.9938 113.675 66.4274 113.592C67.2982 113.429 68.5087 113.23 69.8529 113.078C71.197 112.926 72.4183 112.828 73.3036 112.788C73.748 112.767 74.1058 112.752 74.3515 112.752C74.4798 112.735 74.6098 112.735 74.7381 112.752C74.6143 112.786 74.4869 112.804 74.3587 112.806L73.3144 112.901C72.4328 112.977 71.2151 113.092 69.8746 113.263C68.534 113.433 67.3452 113.592 66.4491 113.722L65.4121 113.871C65.2901 113.899 65.165 113.911 65.0399 113.907Z" fill="#455A64"/>
<path d="M48.5776 97.3345C48.7328 97.3291 48.8881 97.3425 49.0401 97.3744C49.3364 97.4106 49.7628 97.4721 50.2867 97.559C51.3418 97.7327 52.7872 98.0151 54.3698 98.3988C55.9524 98.7825 57.3653 99.1952 58.3806 99.5246C58.8865 99.6875 59.2948 99.8287 59.5766 99.9301C59.7245 99.9742 59.8674 100.034 60.003 100.107C59.8487 100.089 59.697 100.053 59.5513 99.9989L58.3409 99.6369C57.3183 99.3436 55.9019 98.9527 54.3228 98.569C52.7438 98.1852 51.3093 97.8848 50.2651 97.6748L49.0293 97.4323C48.8761 97.4138 48.7249 97.381 48.5776 97.3345Z" fill="#455A64"/>
<path d="M60.5269 84.5306C60.4685 84.6866 60.3959 84.8368 60.3101 84.9795C60.1583 85.2619 59.9488 85.6746 59.6994 86.1922C59.0535 87.5338 58.5217 88.9277 58.1096 90.3588C57.7018 91.7914 57.413 93.2552 57.246 94.7354C57.1846 95.3038 57.1412 95.7671 57.1231 96.0857C57.1207 96.2525 57.1013 96.4187 57.0653 96.5816C57.0447 96.416 57.0386 96.2488 57.0473 96.0821C57.0473 95.7599 57.0653 95.2965 57.1123 94.7246C57.2426 93.2284 57.516 91.7483 57.9289 90.3045C58.3425 88.8628 58.8955 87.4648 59.5802 86.1307C59.844 85.6203 60.0716 85.2148 60.2451 84.9433C60.3233 84.7956 60.4178 84.6572 60.5269 84.5306Z" fill="#455A64"/>
<path d="M42.3951 76.744C42.5326 76.7945 42.6645 76.8588 42.789 76.9359C43.0383 77.0698 43.3924 77.2762 43.826 77.544C44.9463 78.2436 46.0227 79.0112 47.0491 79.8427C48.0743 80.6758 49.0469 81.5716 49.9615 82.5252C50.3228 82.8872 50.5866 83.1949 50.7708 83.4121C50.873 83.5233 50.9638 83.6446 51.0418 83.7741C50.9221 83.6869 50.813 83.5861 50.7166 83.4736L49.8639 82.6157C49.1412 81.8917 48.1223 80.9577 46.9263 79.9839C45.7302 79.0101 44.5884 78.2101 43.7501 77.6526L42.7492 76.9938C42.6218 76.9248 42.5029 76.841 42.3951 76.744Z" fill="#455A64"/>
<path d="M59.4646 64.3745C59.3352 64.538 59.1939 64.6917 59.0418 64.8342L57.853 66.0469C56.8593 67.0714 55.508 68.5194 54.0915 70.181C52.6751 71.8425 51.4682 73.41 50.6119 74.5612L49.6074 75.9259C49.4922 76.0983 49.3642 76.2616 49.2244 76.4146C49.3178 76.2292 49.4253 76.0513 49.546 75.8825C49.7628 75.5458 50.0916 75.0643 50.5035 74.4815C51.3346 73.3086 52.5306 71.7267 53.9506 70.0579C55.3706 68.3891 56.7293 66.97 57.7591 65.9528C58.2722 65.4496 58.6913 65.0478 58.9912 64.7799C59.139 64.6335 59.2972 64.498 59.4646 64.3745Z" fill="#455A64"/>
<path d="M40.6355 55.9001C40.7757 56.0093 40.9062 56.1304 41.0257 56.2621C41.2678 56.5118 41.6075 56.8811 42.0158 57.3481C43.085 58.5723 44.0908 59.8506 45.0293 61.178C46.1133 62.7238 47.0383 64.1862 47.6526 65.265C47.9597 65.8044 48.1982 66.246 48.3753 66.5573C48.4666 66.7138 48.5428 66.8787 48.6029 67.0497C48.4934 66.9057 48.3955 66.7531 48.3102 66.5935L47.555 65.3338C46.9119 64.2731 45.9941 62.8287 44.8956 61.2866C43.7972 59.7445 42.7276 58.4087 41.9327 57.4567C41.5714 57.0005 41.2353 56.6241 40.9896 56.3345C40.8566 56.2026 40.7379 56.057 40.6355 55.9001Z" fill="#455A64"/>
<path d="M54.7708 43.0454C54.7253 43.2251 54.6649 43.4007 54.5902 43.5703C54.4493 43.9323 54.265 44.4066 54.041 44.9749C53.5784 46.1586 52.957 47.7985 52.2704 49.6194C51.5839 51.4402 51.013 53.0982 50.5866 54.3C50.3843 54.8756 50.2253 55.3534 50.0916 55.7227C50.0398 55.9003 49.9709 56.0725 49.8856 56.2367C49.9152 56.0547 49.9599 55.8755 50.0193 55.701C50.1169 55.339 50.2686 54.8647 50.4601 54.253C50.8468 53.0403 51.4068 51.357 52.0825 49.547C52.7582 47.737 53.4122 46.0935 53.9073 44.9206C54.1566 44.3342 54.3625 43.8636 54.5107 43.5378C54.5818 43.3658 54.6689 43.201 54.7708 43.0454Z" fill="#455A64"/>
<path d="M89.2999 60.092C91.934 60.4359 92.3243 63.14 93.2999 65.4098C94.2755 67.6795 96.1436 69.6995 97.5817 71.7303C98.3405 72.8163 99.3883 73.7684 99.6485 75.0426C99.9339 76.3748 99.3269 77.754 99.0415 79.1115C98.756 80.469 98.9583 82.1306 100.259 82.7315C100.113 82.9024 99.9293 83.0369 99.7223 83.1242C99.5153 83.2116 99.2909 83.2494 99.0667 83.2347C99.0667 83.8609 98.4633 84.4003 97.8057 84.5813C97.143 84.7135 96.46 84.7061 95.8003 84.5596C95.9773 84.9759 95.6016 85.4791 95.1354 85.6456C94.6624 85.7752 94.1632 85.7752 93.6901 85.6456C93.2205 85.5121 92.7286 85.4763 92.2448 85.5406C91.1608 85.7759 90.5284 86.9886 89.4444 87.1406C87.9557 87.3578 86.8862 85.4501 85.4156 85.7831C84.7254 85.9388 84.2665 86.5433 83.6992 86.956C83.1319 87.3687 82.1744 87.2637 81.8926 86.67C81.1049 87.6655 79.8872 88.6321 78.6044 88.8963C78.6961 88.6788 78.7214 88.4388 78.677 88.2069C78.6326 87.9749 78.5206 87.7613 78.3551 87.5931C77.6518 88.1685 76.8068 88.5437 75.9089 88.6791C76.1787 88.4309 76.3915 88.1268 76.5325 87.7881C76.6735 87.4493 76.7393 87.0839 76.7255 86.7171C76.4233 86.9548 76.071 87.1204 75.6953 87.2013C75.3197 87.2822 74.9305 87.2763 74.5575 87.1841C75.88 86.4275 76.0028 84.6682 75.5403 83.3469C75.0778 82.0256 74.1745 80.8418 74.0011 79.4481C73.8095 77.9314 75.5873 76.0128 75.2404 74.5249C74.7056 72.2299 74.7454 70.8325 74.8393 68.6895C74.9008 67.2886 75.5186 66.0433 76.1329 64.7365C76.8521 63.1177 78.084 61.7817 79.6378 60.9355C81.0362 60.1463 83.0524 59.4223 84.6532 59.3861C87.5077 59.3246 88.6676 59.2341 90.9259 60.7472" fill="#263238"/>
<path d="M80.505 78.7784C79.5675 76.9551 78.7901 75.0534 78.1817 73.095C77.5716 71.1275 77.4598 69.0387 77.8565 67.0171C77.9251 66.7166 78.5791 64.6568 78.8899 64.646C79.1103 64.646 78.7887 66.5175 78.926 66.6949C80.2232 68.3673 80.8049 70.514 80.9169 72.6281C81.0078 74.6884 80.8696 76.7524 80.505 78.7821" fill="#263238"/>
<path d="M92.9855 96.1182C89.8311 96.4802 82.2431 93.1571 81.8203 90.0077L79.2621 71.0534C78.4166 65.9854 80.6532 61.2794 85.7372 60.5554L86.2105 60.5155C88.5091 60.3305 90.7929 61.0197 92.607 62.446C94.421 63.8723 95.6321 65.9309 95.9991 68.2117C96.7217 72.61 97.4444 77.4752 97.5998 79.8536C97.9322 84.7732 93.0867 85.9316 93.0867 85.9316C93.0867 85.9316 93.2096 87.0682 93.3866 88.5054C93.7877 91.7344 93.2746 95.2748 92.9855 96.1074V96.1182Z" fill="#FFBE9D"/>
<path d="M93.0867 85.9316C90.8187 86.1079 88.5478 85.6293 86.543 84.5523C86.543 84.5523 88.3785 88.1253 93.2385 87.2891L93.0867 85.9316Z" fill="#EB996E"/>
<path d="M94.1707 72.4905C94.1869 72.6729 94.1314 72.8545 94.016 72.9965C93.9006 73.1385 93.7344 73.2297 93.5528 73.2507C93.4641 73.2656 93.3733 73.2623 93.2858 73.2412C93.1984 73.2201 93.1161 73.1815 93.0439 73.1277C92.9717 73.074 92.9111 73.0062 92.8657 72.9284C92.8202 72.8507 92.7909 72.7645 92.7795 72.6751C92.7632 72.4927 92.8187 72.3112 92.9342 72.1691C93.0496 72.0271 93.2158 71.9359 93.3974 71.9149C93.4862 71.8995 93.5771 71.9024 93.6648 71.9233C93.7524 71.9442 93.8349 71.9828 93.9072 72.0366C93.9795 72.0904 94.0402 72.1584 94.0855 72.2365C94.1307 72.3145 94.1597 72.4009 94.1707 72.4905Z" fill="#263238"/>
<path d="M95.1282 70.4633C95.0487 70.5611 94.4886 70.2099 93.7334 70.2715C92.9783 70.333 92.4579 70.7565 92.3676 70.6697C92.2773 70.5828 92.4001 70.4597 92.6278 70.2678C92.9352 70.0135 93.3141 69.8617 93.7118 69.8334C94.1037 69.7997 94.4962 69.8923 94.8319 70.0977C95.0776 70.257 95.1679 70.4163 95.1282 70.4633Z" fill="#263238"/>
<path d="M87.0814 73.0444C87.0933 73.2262 87.0362 73.4059 86.9217 73.5475C86.8072 73.689 86.6436 73.7822 86.4635 73.8082C86.3749 73.8225 86.2842 73.8189 86.197 73.7976C86.1098 73.7762 86.0277 73.7376 85.9556 73.6839C85.8835 73.6303 85.8229 73.5627 85.7773 73.4852C85.7318 73.4077 85.7022 73.3218 85.6903 73.2326C85.6784 73.0508 85.7354 72.8711 85.8499 72.7295C85.9645 72.5879 86.1281 72.4948 86.3081 72.4688C86.3967 72.455 86.4872 72.4589 86.5742 72.4805C86.6613 72.502 86.7432 72.5407 86.8151 72.5943C86.8871 72.6479 86.9477 72.7152 86.9934 72.7925C87.0391 72.8698 87.069 72.9554 87.0814 73.0444Z" fill="#263238"/>
<path d="M87.7499 71.2307C87.6704 71.3285 87.1067 70.981 86.3551 71.0425C85.6035 71.104 85.076 71.5276 84.9893 71.4407C84.9026 71.3538 85.0182 71.2307 85.2458 71.0352C85.5532 70.7814 85.9324 70.6307 86.3298 70.6045C86.723 70.5702 87.1167 70.6628 87.4536 70.8687C87.6993 71.028 87.8041 71.1873 87.7499 71.2307Z" fill="#263238"/>
<path d="M90.9223 76.82C91.3092 76.6622 91.7148 76.5551 92.1291 76.5015C92.3206 76.4653 92.4904 76.411 92.5193 76.277C92.521 76.0765 92.4604 75.8804 92.3459 75.7159L91.6594 74.2933C90.7018 72.2661 89.99 70.59 90.0731 70.5538C90.1562 70.5176 90.9981 72.1285 91.9557 74.1557L92.6205 75.6037C92.7599 75.8269 92.8162 76.0923 92.7795 76.353C92.7572 76.4232 92.7193 76.4874 92.6686 76.5407C92.6179 76.594 92.5557 76.6351 92.4868 76.6607C92.3816 76.6973 92.2725 76.7216 92.1616 76.7331C91.7538 76.8143 91.3374 76.8435 90.9223 76.82Z" fill="#263238"/>
<path d="M87.4427 68.418C87.356 68.6171 86.608 68.4723 85.7155 68.5266C84.823 68.5809 84.0895 68.7764 83.9847 68.5845C83.9378 68.494 84.0751 68.3058 84.375 68.1248C84.7762 67.9063 85.2214 67.7814 85.6776 67.7594C86.1337 67.7375 86.5889 67.8191 87.0091 67.9981C87.3415 68.1465 87.4969 68.3166 87.4427 68.418Z" fill="#263238"/>
<path d="M94.8103 68.7112C94.6694 68.8959 94.0406 68.7764 93.2999 68.8379C92.5592 68.8995 91.9485 69.0841 91.7895 68.9176C91.7173 68.8379 91.7895 68.6569 92.0569 68.4687C92.4156 68.2368 92.8269 68.0995 93.2528 68.0698C93.6786 68.04 94.105 68.1187 94.4923 68.2986C94.7669 68.4506 94.8717 68.6207 94.8103 68.7112Z" fill="#263238"/>
<path d="M79.9558 74.6625C79.8691 74.6335 76.5051 73.9385 76.8808 77.287C77.2566 80.6355 80.5375 79.5712 80.5339 79.459C80.5303 79.3468 79.9558 74.6625 79.9558 74.6625Z" fill="#FFBE9D"/>
<path d="M79.3705 78.3187C79.3705 78.3187 79.3163 78.3658 79.2224 78.4237C79.0903 78.497 78.9355 78.5177 78.7888 78.4816C78.4275 78.3911 78.0661 77.8626 77.9722 77.2581C77.9328 76.9714 77.9574 76.6796 78.0445 76.4037C78.0634 76.2957 78.1086 76.1939 78.176 76.1074C78.2434 76.021 78.331 75.9524 78.4311 75.9078C78.4958 75.8828 78.5672 75.881 78.6331 75.9028C78.699 75.9245 78.7553 75.9685 78.7924 76.0273C78.8502 76.1178 78.8358 76.1865 78.8538 76.1902C78.8719 76.1938 78.9189 76.125 78.8755 75.9911C78.8485 75.9095 78.7935 75.8402 78.7201 75.7956C78.6202 75.7357 78.5009 75.7175 78.3877 75.7449C78.2538 75.7886 78.1331 75.8656 78.037 75.9688C77.9409 76.072 77.8726 76.198 77.8385 76.3349C77.7299 76.641 77.6964 76.9688 77.7409 77.2906C77.8385 77.9639 78.254 78.5576 78.7527 78.6445C78.8455 78.6612 78.9409 78.6566 79.0317 78.6308C79.1225 78.6051 79.2062 78.559 79.2766 78.4961C79.3705 78.402 79.3814 78.3223 79.3705 78.3187Z" fill="#EB996E"/>
<path d="M93.1626 62.9228C93.6685 62.5608 91.8329 60.997 90.431 60.5554C88.3099 59.8857 85.1736 59.6974 83.3813 60.4504C81.2133 61.3554 79.5115 62.6912 78.637 64.8632C77.8086 67.0646 77.5803 69.4474 77.9758 71.7665C78.0341 72.4831 78.2837 73.1708 78.6985 73.7575C79.2549 74.4417 80.2088 74.8001 80.2919 75.8245C80.3153 76.2003 80.4838 76.5522 80.7617 76.8055C81.4554 77.3811 82.1275 76.6788 82.3985 76.0236C82.973 74.6227 82.8646 73.0444 82.7599 71.5348C82.7349 70.4555 82.5323 69.3877 82.16 68.3746C81.9288 67.8352 81.6036 67.3392 81.4012 66.789C81.2844 66.5202 81.2271 66.2293 81.2333 65.9361C81.2395 65.643 81.3092 65.3548 81.4374 65.0912C81.5023 64.9864 81.5773 64.8882 81.6614 64.798C82.0778 64.3331 82.6102 63.9876 83.2039 63.7967C83.7975 63.6059 84.4312 63.5766 85.0399 63.712C87.0019 64.15 90.3406 64.7546 91.103 64.0125C92.187 62.9265 92.4147 62.3111 92.4147 62.3111L93.1626 62.9228Z" fill="#263238"/>
<path d="M88.9061 77.468C88.8628 77.468 88.8555 77.6671 88.9567 77.9495C89.096 78.3211 89.3489 78.6391 89.6794 78.8581C89.997 79.0699 90.3511 79.2209 90.7236 79.3034C91.0019 79.3685 91.1825 79.3757 91.197 79.3323C91.2114 79.2889 91.0597 79.1911 90.8067 79.068C90.4859 78.9246 90.1766 78.7564 89.8817 78.5649C89.2097 78.1341 89.0109 77.439 88.9061 77.468Z" fill="#263238"/>
<path d="M80.0642 75.1005C80.0931 75.1584 80.1184 75.22 80.1473 75.2888C80.1473 75.296 80.1148 75.22 80.0642 75.1005Z" fill="#B0BEC5"/>
<path d="M78.9188 74.572C78.9188 74.572 79.4788 73.848 80.0642 75.086C79.3668 73.4426 74.7309 61.5581 87.4426 59.9906C87.4426 59.9906 82.8501 59.1798 80.0823 61.4676C80.0823 61.4821 74.4527 64.8523 78.9188 74.572Z" fill="#455A64"/>
<path d="M103.226 134.584L73.6795 134.986C73.6795 134.986 65.4158 131.522 63.1466 131.428C60.8774 131.334 56.368 131.623 54.2831 134.986C52.1151 138.461 51.8297 144.59 58.4674 149.043C64.9352 153.387 94.5031 157.39 98.5754 157.007L106.026 146.972C106.026 146.972 106.106 138.736 106.026 138.342C105.947 137.947 104.696 134.421 104.696 134.421L103.226 134.584Z" fill="#263238"/>
<path d="M85.5385 148.485L70.2288 154.179L77.2061 173.3C78.9875 172.518 79.0381 161.289 79.0381 161.289L88.9964 158.031L85.5385 148.485Z" fill="#B0BEC5"/>
<g opacity="0.6">
<path d="M77.7083 155.074C77.5856 154.91 77.4071 154.798 77.2071 154.759C77.007 154.72 76.7995 154.756 76.6243 154.86C76.454 154.977 76.3358 155.156 76.2946 155.358C76.2535 155.561 76.2927 155.772 76.4039 155.946C76.5345 156.119 76.7248 156.238 76.9378 156.279C77.1508 156.32 77.3713 156.28 77.5565 156.167C77.7181 156.027 77.8192 155.829 77.8388 155.616C77.8583 155.403 77.7947 155.19 77.6613 155.023" fill="white"/>
</g>
<path d="M70.2288 154.179L71.7753 153.607L77.9179 172.189C77.9179 172.189 77.8601 173.177 77.2242 173.3L70.2288 154.179Z" fill="#263238"/>
<path d="M79.2476 161.564C79.1537 161.593 78.9441 161.141 78.4743 160.793C78.0046 160.446 77.5277 160.341 77.5313 160.243C77.5349 160.145 78.1275 160.084 78.6839 160.518C79.2404 160.952 79.3416 161.55 79.2476 161.564Z" fill="#263238"/>
<path d="M79.1537 163.87C79.0706 163.924 78.7635 163.581 78.254 163.407C77.7445 163.233 77.2964 163.295 77.2639 163.2C77.2314 163.106 77.7409 162.838 78.3696 163.081C78.9983 163.324 79.2404 163.838 79.1537 163.87Z" fill="#263238"/>
<path d="M77.1736 165.887C77.123 165.81 77.535 165.525 78.1384 165.561C78.7418 165.597 79.0995 165.977 79.0345 166.046C78.9695 166.115 78.6009 165.944 78.1095 165.908C77.6181 165.872 77.217 165.977 77.1736 165.887Z" fill="#263238"/>
<path d="M81.4373 160.569C81.3361 160.569 81.3108 160.087 81.0759 159.573C80.8411 159.059 80.5303 158.708 80.5917 158.628C80.6532 158.549 81.1301 158.824 81.3903 159.436C81.6504 160.047 81.5276 160.59 81.4373 160.569Z" fill="#263238"/>
<path d="M83.5366 159.28C83.4969 159.28 83.3054 158.947 83.1753 158.321C83.1117 157.953 83.0923 157.578 83.1175 157.206C83.1328 156.984 83.163 156.764 83.2078 156.547C83.2292 156.421 83.2694 156.299 83.327 156.185C83.3706 156.099 83.4416 156.03 83.5287 155.99C83.6158 155.949 83.714 155.939 83.8076 155.96C83.8894 155.983 83.9647 156.025 84.0274 156.082C84.0902 156.139 84.1387 156.21 84.169 156.29C84.213 156.406 84.2409 156.528 84.2521 156.652C84.3218 157.252 84.2385 157.86 84.01 158.418C83.7606 159.012 83.468 159.291 83.4391 159.266C83.4102 159.24 83.6053 158.904 83.7787 158.335C83.8789 158.001 83.936 157.656 83.9485 157.307C83.9536 157.103 83.9427 156.898 83.916 156.695C83.8943 156.474 83.8329 156.301 83.7245 156.283C83.6848 156.283 83.6703 156.283 83.6233 156.341C83.5833 156.428 83.5542 156.521 83.5366 156.616C83.4915 156.816 83.4577 157.019 83.4355 157.224C83.4036 157.575 83.4036 157.929 83.4355 158.281C83.4914 158.611 83.5252 158.945 83.5366 159.28Z" fill="#263238"/>
<path d="M83.356 159.211C83.3307 159.186 83.5981 158.878 84.1871 158.621C84.5319 158.477 84.8982 158.391 85.2711 158.368C85.4944 158.357 85.7183 158.368 85.9395 158.4C86.0845 158.406 86.2256 158.448 86.3491 158.524C86.4726 158.601 86.5742 158.707 86.6441 158.835C86.6749 158.92 86.68 159.012 86.6588 159.101C86.6376 159.189 86.591 159.269 86.5249 159.331C86.4322 159.422 86.3262 159.499 86.2105 159.559C86.0092 159.669 85.7924 159.749 85.5674 159.794C85.19 159.874 84.7987 159.858 84.4292 159.747C83.8004 159.555 83.5475 159.208 83.5764 159.186C83.8726 159.314 84.1767 159.423 84.487 159.512C84.8223 159.575 85.1675 159.566 85.4987 159.483C85.6899 159.436 85.8735 159.363 86.0443 159.266C86.2358 159.161 86.3695 159.023 86.3226 158.954C86.2756 158.885 86.0768 158.755 85.8853 158.737C85.686 158.703 85.4841 158.686 85.2819 158.686C84.9349 158.693 84.5905 158.749 84.2593 158.853C83.7029 159.03 83.3885 159.258 83.356 159.211Z" fill="#263238"/>
<path d="M98.1671 146.121L112.982 152.999L104.527 171.508C102.81 170.592 103.641 159.392 103.641 159.392L93.9684 155.37L98.1671 146.121Z" fill="#B0BEC5"/>
<g opacity="0.6">
<path d="M105.455 153.307C105.59 153.158 105.774 153.064 105.973 153.04C106.173 153.017 106.374 153.067 106.539 153.18C106.696 153.31 106.797 153.495 106.822 153.697C106.846 153.899 106.793 154.102 106.673 154.266C106.529 154.428 106.331 154.531 106.116 154.555C105.901 154.579 105.685 154.523 105.509 154.397C105.361 154.242 105.277 154.036 105.277 153.821C105.277 153.606 105.361 153.4 105.509 153.245" fill="white"/>
</g>
<path d="M112.982 153.007L111.486 152.312L103.923 170.354C103.923 170.354 103.905 171.345 104.526 171.516L112.982 153.007Z" fill="#263238"/>
<path d="M103.41 159.642C103.504 159.678 103.75 159.244 104.245 158.918C104.74 158.592 105.224 158.556 105.228 158.444C105.231 158.332 104.646 158.241 104.057 158.628C103.468 159.016 103.32 159.642 103.41 159.642Z" fill="#263238"/>
<path d="M103.341 161.962C103.417 162.024 103.75 161.702 104.274 161.571C104.797 161.441 105.238 161.535 105.274 161.445C105.311 161.354 104.83 161.061 104.19 161.238C103.551 161.416 103.24 161.923 103.341 161.962Z" fill="#263238"/>
<path d="M105.148 164.131C105.206 164.055 104.812 163.725 104.212 163.729C103.612 163.733 103.222 164.069 103.28 164.142C103.338 164.214 103.721 164.073 104.216 164.076C104.711 164.08 105.09 164.214 105.148 164.131Z" fill="#263238"/>
<path d="M101.307 158.494C101.408 158.494 101.473 158.02 101.741 157.528C102.008 157.036 102.351 156.706 102.297 156.623C102.243 156.54 101.744 156.779 101.437 157.347C101.13 157.915 101.217 158.505 101.307 158.494Z" fill="#263238"/>
<path d="M99.316 157.046C99.3558 157.065 99.5726 156.735 99.7352 156.12C99.8295 155.758 99.8792 155.386 99.8833 155.012C99.884 154.791 99.8707 154.569 99.8436 154.35C99.8337 154.219 99.8032 154.091 99.7532 153.969C99.7159 153.881 99.6501 153.807 99.5664 153.76C99.4827 153.713 99.3858 153.695 99.2907 153.709C99.2075 153.726 99.1293 153.761 99.0622 153.814C98.9951 153.866 98.941 153.933 98.9041 154.009C98.8508 154.124 98.8143 154.246 98.7957 154.371C98.7522 154.591 98.7292 154.814 98.7271 155.037C98.7262 155.414 98.7835 155.789 98.8969 156.149C98.972 156.489 99.1469 156.799 99.3991 157.039C99.4497 157.01 99.2618 156.677 99.1354 156.084C99.0615 155.742 99.0312 155.393 99.045 155.045C99.0562 154.84 99.0828 154.637 99.1245 154.436C99.1643 154.219 99.2402 154.049 99.3486 154.038C99.3919 154.038 99.4064 154.038 99.4425 154.107C99.4771 154.196 99.499 154.29 99.5075 154.386C99.5387 154.591 99.558 154.798 99.5653 155.005C99.5745 155.357 99.5515 155.71 99.4967 156.058C99.4156 156.383 99.3552 156.714 99.316 157.046Z" fill="#263238"/>
<path d="M99.5004 156.989C99.5293 156.963 99.2872 156.627 98.7199 156.333C98.3805 156.16 98.0138 156.046 97.6359 155.997C97.4143 155.967 97.1904 155.96 96.9674 155.975C96.8264 155.97 96.6864 156.001 96.5601 156.064C96.4339 156.127 96.3255 156.221 96.2448 156.337C96.209 156.42 96.1975 156.512 96.2115 156.602C96.2256 156.692 96.2647 156.775 96.3242 156.844C96.4099 156.941 96.5098 157.026 96.6205 157.094C96.8126 157.221 97.0236 157.318 97.2457 157.379C97.6144 157.488 98.0043 157.503 98.3802 157.423C99.027 157.282 99.3052 156.952 99.2763 156.931C98.9699 157.033 98.6573 157.117 98.3405 157.18C98.0032 157.22 97.6615 157.184 97.3396 157.075C97.1525 157.014 96.9749 156.926 96.812 156.815C96.6278 156.695 96.5049 156.547 96.5591 156.485C96.6133 156.424 96.8193 156.304 97.0072 156.297C97.2091 156.279 97.4123 156.279 97.6142 156.297C97.9601 156.329 98.2997 156.411 98.6223 156.54C99.1716 156.782 99.4642 157.032 99.5004 156.989Z" fill="#263238"/>
<path d="M104.696 134.425C104.696 134.425 117.455 129.65 122.152 130.269C124.779 130.631 128.884 132.622 129.198 135.996C129.513 139.37 128.689 143.877 124.14 146.074C119.59 148.272 101.477 156.417 97.1733 157.658C92.8699 158.9 82.131 161.85 82.131 161.85L78.066 150.23C78.066 150.23 100.313 142.512 101.488 141.647C102.662 140.782 105.636 139.609 105.636 139.609L104.696 134.425Z" fill="#263238"/>
<path d="M60.3427 136.011L60.433 135.985L60.6895 135.909C60.9136 135.84 61.246 135.743 61.6832 135.638C62.2087 135.509 62.7423 135.416 63.2803 135.359C63.9943 135.294 64.7127 135.294 65.4266 135.359C66.293 135.431 67.1494 135.595 67.9812 135.848C68.444 135.986 68.8948 136.161 69.329 136.373L70.7165 137.053C72.628 137.965 74.7562 138.903 77.029 139.801C81.5746 141.611 85.9395 142.494 89.0506 143.2C90.6115 143.562 91.8762 143.83 92.7434 144.04L93.7479 144.275L94.0081 144.337H94.0984L94.0117 144.308L93.7515 144.235C93.5275 144.174 93.1915 144.08 92.7579 143.971C91.8907 143.75 90.6332 143.45 89.0723 143.091C85.9648 142.367 81.6107 141.477 77.0796 139.66C74.8104 138.762 72.6822 137.831 70.7707 136.923L69.376 136.268C68.9345 136.056 68.4765 135.88 68.0065 135.743C67.1673 135.492 66.3036 135.331 65.4302 135.265C64.7091 135.199 63.9834 135.199 63.2622 135.265C62.7209 135.328 62.1848 135.43 61.6579 135.569C61.2243 135.681 60.8919 135.786 60.6715 135.862L60.4185 135.956C60.3913 135.971 60.3658 135.99 60.3427 136.011Z" fill="#455A64"/>
<path d="M61.0111 134.324C61.0111 134.345 61.4013 134.277 62.0265 134.208C62.8389 134.122 63.6567 134.099 64.4727 134.139C65.2904 134.182 66.1036 134.29 66.9045 134.461C67.5187 134.592 67.8945 134.7 67.8981 134.678C67.818 134.635 67.7331 134.601 67.6452 134.577C67.4081 134.495 67.1669 134.424 66.9225 134.367C65.3163 133.965 63.6474 133.879 62.0084 134.114C61.6976 134.157 61.4447 134.204 61.2857 134.248C61.1916 134.262 61.0995 134.288 61.0111 134.324Z" fill="#455A64"/>
<path d="M110.066 137.806C110.066 137.828 110.427 137.553 111.045 137.173C112.641 136.182 114.432 135.549 116.295 135.316C117.018 135.229 117.459 135.218 117.455 135.192C117.351 135.182 117.245 135.182 117.141 135.192C116.855 135.191 116.569 135.204 116.284 135.232C114.394 135.415 112.577 136.057 110.991 137.104C110.691 137.307 110.452 137.466 110.297 137.611C110.213 137.667 110.135 137.733 110.066 137.806Z" fill="#455A64"/>
<path d="M103.663 155.171L103.562 155.211L103.273 155.334C103.016 155.436 102.644 155.613 102.145 155.805C101.152 156.199 99.6811 156.742 97.8094 157.361C94.0407 158.596 88.6207 160.167 82.1383 161.803L82.2142 161.843C81.0038 158.484 79.6849 154.773 78.2685 150.874L78.2287 150.961L83.1067 148.952L110.138 137.806C111.24 136.641 112.252 135.612 113.202 134.78C114.005 134.068 114.863 133.42 115.768 132.843C116.337 132.485 116.924 132.156 117.527 131.858L118.001 131.638L118.16 131.558L117.997 131.627L117.516 131.837C116.908 132.124 116.315 132.446 115.742 132.8C114.83 133.372 113.965 134.016 113.155 134.726C112.198 135.555 111.179 136.579 110.073 137.741C103.486 140.449 93.813 144.424 83.0272 148.844L78.142 150.856L78.0806 150.882L78.1022 150.943C79.5114 154.842 80.8484 158.545 82.0589 161.908L82.0769 161.959H82.1347C88.617 160.308 94.0298 158.719 97.7949 157.466C99.6775 156.833 101.144 156.283 102.131 155.874C102.626 155.678 102.998 155.493 103.251 155.385L103.537 155.251L103.663 155.171Z" fill="#455A64"/>
<path d="M72.1221 93.6856C72.1221 93.6856 68.451 95.8069 67.7066 98.2975C67.2514 99.8107 63.8259 119.16 63.2839 122.975C62.7419 126.791 63.8837 129.618 65.5097 130.885C67.1357 132.152 72.0571 133.835 72.0571 133.835L78.9839 136.083L80.9676 131.015L74.3769 121.527L75.0128 115.134L72.1221 93.6856Z" fill="#B0BEC5"/>
<path d="M79.3452 90.3443L81.6361 88.6502C81.6361 88.6502 84.6207 91.7091 88.0498 91.3471C91.4788 90.9851 93.5095 88.357 93.5095 88.357L103.735 90.4457C104.422 90.5833 105.672 91.0177 106.868 92.7299C108.205 94.6413 114.532 103.112 114.532 103.112H118.962C119.561 103.112 120.149 103.276 120.662 103.586C121.175 103.896 121.594 104.341 121.874 104.871C122.629 106.319 123.536 108.245 123.45 109.045C123.298 110.396 123.558 114.113 121.751 115.264C121.177 115.626 119.121 116.734 117.531 116.662C115.179 116.55 112.447 115.322 110.875 114.222C109.542 113.288 106.445 110.062 105.253 108.792V108.81L104.487 135.685L77.6867 134.932L72.1222 93.6856C72.1222 93.6856 79.0742 90.3443 79.3452 90.3443Z" fill="#B0BEC5"/>
<path d="M105.347 97.5445C105.311 97.5445 105.242 100.875 105.191 104.984C105.141 109.092 105.134 112.423 105.173 112.423C105.213 112.423 105.282 109.096 105.329 104.984C105.376 100.871 105.387 97.5445 105.347 97.5445Z" fill="#263238"/>
<path d="M68.8773 119.268C68.8773 119.268 69.105 119.304 69.5097 119.38C70.0807 119.495 70.637 119.673 71.1682 119.912C71.9566 120.266 72.6992 120.715 73.3795 121.248C74.215 121.906 74.9946 122.633 75.7101 123.42C76.4762 124.249 77.1771 125.071 77.8348 125.799C78.4105 126.451 79.0195 127.073 79.6595 127.663C80.0923 128.055 80.551 128.418 81.0326 128.749C81.2024 128.872 81.3433 128.952 81.4337 129.01C81.4789 129.041 81.5274 129.068 81.5782 129.089C81.54 129.049 81.4962 129.015 81.4481 128.988C81.3614 128.919 81.2277 128.832 81.0651 128.705C80.5968 128.355 80.1492 127.978 79.7245 127.576C79.1862 127.073 78.5791 126.432 77.9179 125.701C77.2566 124.97 76.5701 124.144 75.8005 123.312C75.0788 122.521 74.2906 121.795 73.4446 121.14C72.7537 120.606 71.9986 120.16 71.1971 119.815C70.657 119.582 70.0902 119.416 69.5097 119.322C69.3518 119.295 69.1926 119.277 69.0327 119.268C68.9811 119.263 68.929 119.263 68.8773 119.268Z" fill="#263238"/>
<path d="M68.2704 117.447C68.2704 117.473 68.6751 117.531 69.3146 117.708C70.989 118.169 72.5082 119.075 73.7121 120.329C74.1746 120.807 74.4347 121.14 74.4347 121.125C74.3942 121.037 74.3419 120.954 74.2794 120.879C74.1267 120.662 73.9602 120.455 73.7807 120.26C72.6004 118.952 71.0543 118.03 69.3435 117.614C69.087 117.548 68.8262 117.499 68.5631 117.469C68.4665 117.452 68.3684 117.445 68.2704 117.447Z" fill="#263238"/>
<g opacity="0.3">
<path d="M118.156 112.73C116.736 113.118 115.031 111.072 113.741 109.791C113.072 109.125 112.375 108.415 112.129 107.503C111.952 106.736 112.029 105.931 112.349 105.212C112.589 104.563 112.906 103.946 113.293 103.373C113.177 104.477 112.902 106.171 113.274 107.557C113.585 108.712 114.315 109.635 115.081 110.508C115.847 111.38 116.888 112.401 118.145 112.73" fill="black"/>
</g>
<path d="M112.1 111.561C112.129 111.561 111.963 111.091 111.829 110.32C111.754 109.868 111.711 109.412 111.699 108.955C111.693 108.395 111.732 107.836 111.815 107.282C111.906 106.73 112.041 106.187 112.219 105.657C112.371 105.225 112.554 104.804 112.765 104.397C113.126 103.706 113.426 103.311 113.405 103.311C113.321 103.39 113.247 103.479 113.184 103.575C113.101 103.68 113.025 103.79 112.956 103.905C112.856 104.052 112.763 104.204 112.678 104.361C112.453 104.765 112.26 105.186 112.1 105.621C111.912 106.156 111.77 106.708 111.677 107.268C111.594 107.83 111.559 108.398 111.573 108.966C111.59 109.429 111.644 109.89 111.735 110.345C111.768 110.54 111.818 110.707 111.858 110.866C111.89 110.996 111.929 111.124 111.974 111.25C112.008 111.357 112.05 111.461 112.1 111.561Z" fill="#263238"/>
<path d="M92.393 89.414C92.393 89.4502 92.6893 89.6348 93.0181 89.9281C93.3469 90.2213 93.5854 90.5 93.5854 90.4747C93.4701 90.2199 93.3033 89.9919 93.0956 89.805C92.8878 89.618 92.6437 89.4763 92.3785 89.3887L92.393 89.414Z" fill="#263238"/>
<path d="M89.6107 91.0213C89.5818 91.0503 89.8492 91.3399 90.066 91.767C90.2828 92.1942 90.3659 92.5815 90.4092 92.5779C90.4249 92.2715 90.3481 91.9675 90.1888 91.7055C90.0715 91.4229 89.8695 91.1838 89.6107 91.0213Z" fill="#263238"/>
<path d="M84.8267 92.7046C84.9528 92.4477 85.0555 92.1799 85.1338 91.9046C85.253 91.6436 85.3439 91.3705 85.4048 91.0901C85.0667 91.5643 84.8666 92.1232 84.8267 92.7046Z" fill="#263238"/>
<path d="M81.7517 91.2493C81.7915 91.2493 81.8962 90.7896 82.1998 90.2937C82.5033 89.7977 82.8646 89.4864 82.8357 89.4538C82.5143 89.6304 82.2527 89.8988 82.0841 90.2249C81.8765 90.5268 81.761 90.8828 81.7517 91.2493Z" fill="#263238"/>
<path d="M72.9243 99.9518C72.8881 99.9518 73.3398 103.63 73.9396 108.151C74.5394 112.673 75.0489 116.336 75.0886 116.332C75.1284 116.329 74.6731 112.654 74.0733 108.133C73.4735 103.612 72.964 99.9482 72.9243 99.9518Z" fill="#263238"/>
<path d="M113.097 105.896C113.084 106.022 113.084 106.15 113.097 106.276C113.106 106.424 113.124 106.572 113.152 106.718C113.17 106.804 113.184 106.895 113.199 106.993C113.213 107.09 113.249 107.188 113.278 107.293C113.407 107.792 113.583 108.277 113.806 108.741C114.082 109.306 114.411 109.843 114.788 110.345C115.175 110.841 115.615 111.294 116.1 111.695C116.499 112.02 116.942 112.287 117.415 112.488C117.516 112.531 117.61 112.575 117.704 112.607L117.972 112.683L118.207 112.748C118.279 112.748 118.348 112.767 118.409 112.774C118.528 112.794 118.649 112.805 118.77 112.806C118.314 112.716 117.867 112.58 117.437 112.401C116.981 112.188 116.554 111.918 116.165 111.597C115.691 111.198 115.261 110.749 114.882 110.258C114.51 109.764 114.183 109.238 113.903 108.687C113.682 108.231 113.498 107.757 113.354 107.271C113.141 106.428 113.134 105.892 113.097 105.896Z" fill="#263238"/>
<g opacity="0.3">
<path d="M73.7879 136.615C72.6497 136.065 72.3932 134.588 72.2776 133.328C71.9379 129.636 71.597 125.945 71.255 122.255C71.096 120.517 71.0201 118.537 72.2414 117.295C73.3579 116.162 75.1321 116.093 76.7183 116.097C86.5285 116.126 95.1933 116.416 105.004 116.459L104.505 133.654L73.7879 136.615Z" fill="black"/>
</g>
<path d="M109.231 119.098L108.187 139.041C108.166 139.411 108.005 139.759 107.736 140.013C107.467 140.268 107.111 140.41 106.741 140.409L75.0381 140.467C74.667 140.467 74.3099 140.325 74.0408 140.069C73.7718 139.813 73.6113 139.463 73.5928 139.091L72.3823 119.485C72.3426 118.674 72.9207 117.588 73.7445 117.574H107.771C107.969 117.572 108.165 117.61 108.347 117.687C108.529 117.763 108.694 117.876 108.831 118.019C108.967 118.162 109.074 118.332 109.142 118.517C109.211 118.703 109.241 118.9 109.231 119.098Z" fill="#E0E0E0"/>
<path d="M109.231 119.098C109.233 119.074 109.233 119.05 109.231 119.026C109.237 118.951 109.237 118.876 109.231 118.801C109.193 118.548 109.09 118.31 108.93 118.11C108.771 117.911 108.562 117.757 108.324 117.664C108.079 117.575 107.818 117.538 107.558 117.556H105.632L93.3468 117.534L75.1248 117.516H73.8312C73.6011 117.506 73.3732 117.565 73.1772 117.686C72.9853 117.81 72.8206 117.971 72.693 118.16C72.4343 118.539 72.2958 118.987 72.2955 119.446C72.3208 119.891 72.3497 120.34 72.375 120.789C72.4834 122.599 72.5991 124.409 72.7111 126.28C72.9423 130.012 73.1808 133.882 73.4337 137.832L73.4807 138.556C73.5024 138.805 73.4988 139.044 73.5421 139.305C73.5931 139.558 73.7074 139.793 73.8743 139.99C74.0411 140.186 74.2551 140.336 74.4961 140.427C74.735 140.51 74.988 140.544 75.2404 140.528H77.4084H83.0994L93.8599 140.503L103.598 140.481H105.845H106.395C106.582 140.484 106.769 140.476 106.955 140.456C107.322 140.405 107.657 140.222 107.898 139.939C108.138 139.657 108.267 139.296 108.259 138.925C108.277 138.563 108.295 138.237 108.313 137.897C108.349 137.216 108.382 136.554 108.414 135.906C108.678 130.718 108.891 126.519 109.036 123.598C109.108 122.15 109.162 121.024 109.199 120.256C109.217 119.876 109.231 119.587 109.238 119.388C109.245 119.189 109.238 119.091 109.238 119.091L109.217 119.388C109.217 119.587 109.188 119.876 109.166 120.256C109.123 121.024 109.058 122.146 108.978 123.598C108.819 126.494 108.591 130.696 108.31 135.884C108.277 136.532 108.241 137.198 108.205 137.875C108.188 138.215 108.17 138.559 108.151 138.907C108.155 139.25 108.037 139.584 107.818 139.848C107.593 140.113 107.277 140.286 106.933 140.333C106.755 140.346 106.576 140.346 106.398 140.333H103.594H93.8563H83.0958H77.4048H75.2368C75.0018 140.349 74.766 140.318 74.543 140.242C74.3234 140.159 74.1283 140.022 73.976 139.842C73.8238 139.663 73.7192 139.448 73.6722 139.218C73.6325 138.994 73.6325 138.733 73.6144 138.494L73.5674 137.77C73.3217 133.813 73.0832 129.951 72.8448 126.219C72.7291 124.354 72.6135 122.519 72.4834 120.727C72.4581 120.278 72.4292 119.833 72.4039 119.388C72.4009 118.957 72.5268 118.536 72.7653 118.179C72.8702 117.998 73.0212 117.848 73.2028 117.745C73.3844 117.642 73.59 117.589 73.7987 117.592H75.0923H93.3107L105.596 117.57H107.522C107.778 117.549 108.035 117.582 108.277 117.668C108.476 117.746 108.655 117.87 108.797 118.03C108.998 118.239 109.132 118.504 109.18 118.79C109.203 118.892 109.22 118.995 109.231 119.098Z" fill="#263238"/>
<path d="M88.6893 128.832C88.6893 129.202 88.7989 129.564 89.0042 129.872C89.2094 130.18 89.5012 130.42 89.8425 130.561C90.1839 130.703 90.5595 130.74 90.9219 130.668C91.2842 130.596 91.6171 130.417 91.8784 130.156C92.1396 129.894 92.3175 129.56 92.3896 129.197C92.4617 128.834 92.4247 128.458 92.2833 128.116C92.1419 127.774 91.9025 127.482 91.5953 127.276C91.2881 127.07 90.9269 126.961 90.5574 126.961C90.0623 126.962 89.5877 127.159 89.2375 127.51C88.8874 127.861 88.6903 128.336 88.6893 128.832Z" fill="white"/>
<path d="M88.6892 128.832C88.7073 128.832 88.6892 128.666 88.776 128.383C88.886 127.983 89.1264 127.632 89.4589 127.384C89.7273 127.183 90.0465 127.06 90.3806 127.03C90.7148 126.999 91.0507 127.063 91.3508 127.213C91.6509 127.364 91.9033 127.595 92.0797 127.881C92.2561 128.167 92.3495 128.496 92.3495 128.832C92.3496 129.098 92.2915 129.36 92.1792 129.6C92.067 129.84 91.9033 130.053 91.6999 130.223C91.4965 130.393 91.2583 130.516 91.0022 130.583C90.746 130.651 90.4782 130.661 90.2177 130.613C89.9399 130.564 89.6775 130.45 89.4517 130.28C89.1192 130.033 88.8788 129.681 88.7687 129.281C88.6929 128.999 88.7001 128.832 88.682 128.832C88.6765 128.872 88.6765 128.912 88.682 128.952C88.6828 129.067 88.6961 129.183 88.7218 129.296C88.8169 129.717 89.0559 130.092 89.3975 130.356C89.6336 130.539 89.9098 130.663 90.2032 130.718C90.5412 130.784 90.8906 130.758 91.215 130.642C91.5765 130.515 91.8905 130.28 92.1147 129.969C92.3454 129.657 92.4767 129.283 92.4913 128.895C92.5059 128.507 92.4031 128.123 92.1964 127.795C91.9897 127.467 91.6888 127.208 91.3331 127.054C90.9775 126.9 90.5836 126.858 90.2032 126.932C89.9097 126.987 89.6335 127.111 89.3975 127.294C89.0556 127.559 88.8167 127.935 88.7218 128.358C88.6959 128.471 88.6826 128.586 88.682 128.702C88.6778 128.745 88.6802 128.789 88.6892 128.832Z" fill="#263238"/>
<path d="M108.165 121.313C108.125 121.313 107.97 124.662 107.804 128.796C107.638 132.93 107.555 136.286 107.594 136.286C107.634 136.286 107.786 132.937 107.956 128.803C108.125 124.669 108.201 121.313 108.165 121.313Z" fill="#263238"/>
<path d="M117.694 95.2965C117.878 95.1372 117.068 92.0059 117.068 92.0059C117.068 92.0059 119.218 88.4909 119.276 87.3579C119.334 86.2248 118.427 83.8971 118.427 83.8971L112.255 82.308C112.255 82.308 110.275 85.9967 109.878 87.2999C109.48 88.6031 110.568 93.034 110.568 93.034L111.612 95.3038C111.612 95.3038 114.756 97.7907 117.694 95.2965Z" fill="#FFBE9D"/>
<path d="M119.262 88.0348C119.503 87.5895 119.72 87.1315 119.912 86.6628C120.302 85.7325 120.783 84.8238 119.912 84.3026C119.777 84.2132 119.624 84.1539 119.463 84.129C119.303 84.104 119.14 84.1138 118.983 84.1578C118.983 84.1578 119.117 83.3758 118.651 83.0718C118.516 82.9864 118.363 82.9347 118.204 82.9208C118.045 82.907 117.885 82.9314 117.737 82.9921C117.737 82.9921 117.881 81.9061 117.213 81.4247C116.961 81.2584 116.667 81.1657 116.366 81.1567C116.064 81.1478 115.765 81.223 115.504 81.374C115.504 81.374 116.035 76.5521 116.082 76.306C116.248 75.3684 115.905 74.5394 114.973 74.7711C114.629 74.8544 114.441 75.2164 114.04 76.7874C113.639 78.3585 112.996 81.0373 112.996 81.0373C112.996 81.0373 111.912 82.9233 111.403 83.9333C110.893 84.9433 109.878 87.2854 109.795 87.9153C109.574 89.5117 110.517 91.6258 110.517 91.6258L117.076 91.9878C117.076 91.9878 119.012 88.4909 119.262 88.0348Z" fill="#FFBE9D"/>
<path d="M118.853 84.3641C118.667 84.5927 118.498 84.8347 118.348 85.0881L117.827 85.8809C117.719 86.0363 117.625 86.201 117.545 86.3732C117.453 86.5682 117.426 86.788 117.469 86.9995C117.488 87.1104 117.536 87.2142 117.609 87.3001C117.681 87.386 117.775 87.451 117.881 87.4882C118.08 87.5375 118.29 87.5117 118.47 87.4158C118.624 87.3383 118.77 87.2474 118.908 87.1443C119.038 87.0501 119.157 86.9633 119.269 86.8764C119.482 86.7099 119.648 86.5687 119.757 86.4673C119.865 86.366 119.927 86.3044 119.919 86.2972C119.912 86.2899 119.648 86.489 119.197 86.8004C118.949 86.9877 118.687 87.1548 118.413 87.2999C118.26 87.3774 118.084 87.398 117.918 87.3578C117.834 87.3283 117.76 87.2767 117.704 87.2085C117.647 87.1403 117.61 87.0581 117.596 86.9705C117.561 86.7871 117.584 86.5974 117.661 86.4275C117.736 86.2609 117.826 86.101 117.928 85.9497L118.42 85.1424C118.586 84.8957 118.731 84.6354 118.853 84.3641Z" fill="#EB996E"/>
<path d="M113.459 84.9397C113.518 84.594 113.494 84.2392 113.39 83.9044C113.331 83.5602 113.191 83.235 112.982 82.9559C112.946 82.974 113.13 83.3939 113.256 83.9369C113.383 84.4799 113.433 84.9397 113.459 84.9397Z" fill="#EB996E"/>
<path d="M110.875 86.3478C111.479 85.76 112.242 85.3613 113.068 85.2003C113.892 85.0422 114.735 85.0105 115.569 85.1062C116.234 85.1641 117.014 85.3379 117.3 85.9352C117.585 86.5325 117.238 87.347 116.646 87.6981C116.023 88.0086 115.319 88.1162 114.633 88.0058C113.952 87.8933 113.261 87.8654 112.573 87.9225" fill="#FFBE9D"/>
<path d="M112.573 87.9226C112.573 87.9226 112.758 87.9226 113.09 87.9226C113.561 87.9429 114.03 87.9876 114.496 88.0565C114.823 88.0981 115.153 88.1114 115.482 88.0963C115.867 88.085 116.244 87.9899 116.588 87.8176C116.974 87.6172 117.268 87.2747 117.408 86.8619C117.484 86.642 117.5 86.4059 117.455 86.1777C117.4 85.9436 117.274 85.7324 117.094 85.5732C116.731 85.2887 116.292 85.1174 115.833 85.0809C115.419 85.0332 115.003 85.0078 114.586 85.0048C113.878 84.9916 113.173 85.0993 112.501 85.3234C112.048 85.4762 111.624 85.7051 111.247 86.0003C111.148 86.0807 111.052 86.1665 110.962 86.2574C110.9 86.3225 110.872 86.3587 110.875 86.3623C110.879 86.366 111.012 86.2356 111.28 86.0402C111.662 85.7677 112.083 85.5564 112.53 85.4139C113.196 85.2106 113.89 85.1152 114.586 85.1315C114.997 85.1387 115.407 85.1665 115.815 85.2148C116.246 85.2494 116.658 85.4092 117 85.6745C117.159 85.816 117.271 86.003 117.321 86.2103C117.361 86.4145 117.346 86.6256 117.278 86.8221C117.15 87.2022 116.881 87.5184 116.526 87.7054C116.2 87.8726 115.841 87.9677 115.475 87.9841C115.152 87.9999 114.828 87.9914 114.507 87.9588C114.037 87.8966 113.564 87.8663 113.09 87.8683C112.962 87.8728 112.834 87.8849 112.707 87.9045C112.617 87.9045 112.573 87.9153 112.573 87.9226Z" fill="#EB996E"/>
<path d="M118.806 84.4401C118.116 85.4899 117.506 86.6447 116.924 87.7597C116.785 88.0996 116.558 88.3959 116.266 88.6176C116.017 88.7696 115.399 88.4909 115.124 88.3968L117.018 84.0781" fill="#FFBE9D"/>
<path d="M117.018 84.0781C116.953 84.1805 116.898 84.2883 116.852 84.4003L116.432 85.3053C116.071 86.0727 115.598 87.1515 115.063 88.3678L115.031 88.4366L115.103 88.4619C115.319 88.5487 115.54 88.6236 115.764 88.6864C115.859 88.7102 115.956 88.7248 116.053 88.7298C116.106 88.7325 116.158 88.7264 116.208 88.7117C116.26 88.6994 116.308 88.6759 116.349 88.6429C116.502 88.5326 116.632 88.3937 116.732 88.2339C116.928 87.9262 117.065 87.6185 117.22 87.3361C117.516 86.7605 117.787 86.2501 118.026 85.8193C118.264 85.3886 118.46 85.0483 118.6 84.813C118.678 84.6974 118.747 84.5764 118.806 84.451C118.711 84.5631 118.626 84.6843 118.554 84.813C118.402 85.041 118.192 85.3741 117.943 85.7976C117.694 86.2212 117.412 86.7316 117.108 87.3035C116.949 87.5859 116.805 87.9008 116.62 88.1868C116.525 88.3301 116.402 88.4531 116.259 88.5488C116.186 88.587 116.105 88.6087 116.023 88.6124C115.941 88.6162 115.858 88.6019 115.782 88.5705C115.562 88.5084 115.344 88.4347 115.132 88.3497L115.171 88.4439C115.706 87.2203 116.172 86.1379 116.501 85.3596L116.881 84.4365C116.937 84.3215 116.983 84.2015 117.018 84.0781Z" fill="#EB996E"/>
<path d="M117.531 82.793C116.921 84.3231 116.312 85.8531 115.703 87.3832C115.591 87.7159 115.425 88.0278 115.211 88.3063C115.101 88.4428 114.96 88.5506 114.8 88.6206C114.639 88.6906 114.464 88.7206 114.29 88.7081C114.056 88.6468 113.85 88.5092 113.703 88.3171C113.557 88.125 113.478 87.8893 113.48 87.6474C113.495 87.1642 113.611 86.6893 113.82 86.2537C114.369 84.8592 114.807 83.4237 115.132 81.9604" fill="#FFBE9D"/>
<path d="M115.132 81.9604C115.11 82.0039 115.094 82.0502 115.085 82.098L114.976 82.5034C114.882 82.8654 114.745 83.365 114.554 83.9876C114.362 84.6103 114.109 85.3451 113.795 86.1596C113.602 86.576 113.473 87.019 113.412 87.4737C113.395 87.7232 113.443 87.9729 113.553 88.1977C113.66 88.4411 113.857 88.6341 114.102 88.7371C114.227 88.7822 114.359 88.8 114.492 88.7894C114.624 88.7788 114.752 88.74 114.868 88.6755C115.089 88.5552 115.274 88.3792 115.406 88.1651C115.626 87.7668 115.811 87.3501 115.959 86.9198C116.273 86.1198 116.555 85.3994 116.794 84.784L117.347 83.336C117.404 83.1767 117.451 83.0464 117.488 82.9414C117.508 82.8963 117.522 82.8489 117.531 82.8003C117.502 82.8399 117.478 82.8839 117.462 82.9306C117.419 83.0356 117.361 83.1623 117.296 83.3179L116.711 84.737C116.465 85.3487 116.172 86.0655 115.851 86.8619C115.702 87.283 115.518 87.6911 115.301 88.0818C115.181 88.2745 115.013 88.4328 114.814 88.5416C114.715 88.5978 114.606 88.6321 114.493 88.6421C114.38 88.6521 114.266 88.6375 114.16 88.5995C113.948 88.5072 113.778 88.3395 113.683 88.1289C113.582 87.9233 113.539 87.6946 113.556 87.4664C113.61 87.0256 113.732 86.5957 113.918 86.1922C114.228 85.3849 114.467 84.6428 114.64 84.0202C114.814 83.3976 114.947 82.8763 115.027 82.5215C115.063 82.3405 115.092 82.203 115.11 82.1088C115.124 82.0606 115.131 82.0107 115.132 81.9604Z" fill="#EB996E"/>
<path d="M121.733 106.518C121.567 105.91 117.397 93.5553 117.397 93.5553L110.503 92.7299L113.321 103.373C113.321 103.373 112.884 106.077 113.321 107.677C113.759 109.277 117.296 113.632 119.103 112.586C120.909 111.539 121.896 107.127 121.733 106.518Z" fill="#FFBE9D"/>
<path d="M113.307 91.6367C113.44 91.6531 113.576 91.6357 113.701 91.586C114.011 91.4893 114.295 91.3253 114.534 91.1057C114.774 90.886 114.962 90.6162 115.085 90.3154C115.144 90.195 115.172 90.062 115.168 89.928C114.995 90.3314 114.75 90.6996 114.445 91.014C114.108 91.2913 113.722 91.5025 113.307 91.6367Z" fill="#EB996E"/>
</svg>
