<svg width="341" height="341" viewBox="0 0 341 341" fill="none" xmlns="http://www.w3.org/2000/svg">
<path d="M140.24 46.3762L75.3201 130.719L249.912 87.3166L152.666 43.2594C150.547 42.2979 148.165 42.0825 145.909 42.6486C143.652 43.2146 141.654 44.5286 140.24 46.3762Z" fill="#EBEBEB"/>
<path d="M74.3994 131.319L139.953 46.1645C141.415 44.2497 143.485 42.8897 145.823 42.3083C148.161 41.727 150.627 41.9589 152.816 42.9659L251.024 87.4528L74.3994 131.319ZM148.396 42.659C146.871 42.6601 145.367 43.014 144.002 43.6931C142.637 44.3723 141.447 45.3582 140.526 46.5737L76.2339 130.126L248.821 87.2209L152.522 43.5729C151.226 42.9883 149.819 42.6883 148.396 42.6931V42.659Z" fill="#E0E0E0"/>
<path d="M75.3155 130.722L250.522 87.1681L274.127 182.125C274.594 184.005 274.296 185.993 273.297 187.653C272.298 189.313 270.681 190.508 268.801 190.975L107.771 231.005C105.891 231.472 103.902 231.174 102.243 230.175C100.583 229.176 99.3878 227.559 98.9204 225.679L75.3155 130.722Z" fill="#F0F0F0"/>
<path d="M239.737 92.3702L179.039 154.384L87.296 133.734L76.8 85.0728C76.2191 82.5628 76.6479 79.925 77.9938 77.7281C79.3397 75.5312 81.4951 73.9513 83.9951 73.3288L216.712 40.3404C217.964 40.0283 219.264 39.966 220.539 40.1571C221.815 40.3482 223.04 40.7889 224.145 41.4541C225.249 42.1192 226.212 42.9957 226.978 44.0334C227.743 45.0711 228.297 46.2496 228.606 47.5014L239.737 92.3702Z" fill="white"/>
<path d="M170.705 149.508L98.624 224.828C98.8785 225.852 99.3324 226.817 99.9596 227.665C100.587 228.514 101.375 229.231 102.28 229.775C103.184 230.319 104.187 230.68 105.231 230.836C106.274 230.992 107.339 230.942 108.363 230.686L268.156 190.96C270.223 190.446 272.001 189.132 273.1 187.307C274.198 185.482 274.527 183.295 274.014 181.228L273.864 180.628L179.612 147.38C178.08 146.839 176.424 146.752 174.844 147.129C173.264 147.507 171.826 148.333 170.705 149.508Z" fill="#E0E0E0"/>
<path d="M147.676 80.5126L95.7554 93.429L97.0742 98.7302L148.995 85.8139L147.676 80.5126Z" fill="#E0E0E0"/>
<path d="M214.296 78.2114L99.0977 106.869L100.588 112.859L215.786 84.201L214.296 78.2114Z" fill="#E0E0E0"/>
<path d="M217.939 92.8445L102.742 121.502L104.232 127.492L219.429 98.834L217.939 92.8445Z" fill="#E0E0E0"/>
<path d="M220.361 112.237L216.753 115.845L120.046 141.126L107.408 138.173L106.931 136.802L221.759 108.24L222.257 110.225L220.361 112.237Z" fill="#E0E0E0"/>
<path d="M195.625 137.437L152.059 148.267L138.739 145.225L203.85 129.028L195.625 137.437Z" fill="#E0E0E0"/>
<path d="M168.072 152.25C168.072 152.25 168.024 152.325 167.908 152.454L167.39 153.02L165.385 155.169L157.958 163.032C151.67 169.654 142.954 178.807 133.304 188.839C123.653 198.871 114.787 207.874 108.322 214.325C105.089 217.551 102.457 220.157 100.629 221.937L98.5217 223.983L97.9624 224.508C97.9041 224.573 97.8376 224.63 97.7646 224.678C97.815 224.607 97.8721 224.541 97.9351 224.48L98.4671 223.928L100.513 221.834L108.131 214.148C114.549 207.649 123.367 198.626 133.038 188.587C142.708 178.548 151.452 169.491 157.76 162.855L165.262 155.073L167.308 152.973L167.854 152.434C168.004 152.304 168.072 152.25 168.072 152.25Z" fill="#FAFAFA"/>
<path d="M273.864 180.614C273.83 180.71 253.731 173.733 228.975 165.03C204.218 156.328 184.174 149.194 184.208 149.099C184.242 149.003 204.341 155.973 229.097 164.676C253.854 173.378 273.898 180.512 273.864 180.614Z" fill="#FAFAFA"/>
<path d="M242.621 89.3831C242.584 89.4438 242.54 89.5009 242.492 89.5536L242.11 90.0241L240.494 91.8178L234.472 98.3582C229.37 103.862 222.264 111.405 214.298 119.637C206.332 127.868 198.98 135.213 193.647 140.492L187.298 146.712L185.552 148.383L185.095 148.813C184.986 148.908 184.931 148.956 184.924 148.949C184.968 148.891 185.015 148.836 185.067 148.785L185.497 148.328L187.195 146.61L193.456 140.308C198.748 134.982 206.025 127.602 213.991 119.377C221.957 111.152 229.091 103.664 234.246 98.2081L240.35 91.7496L242.021 90.0037L242.465 89.5536C242.51 89.4905 242.562 89.4332 242.621 89.3831Z" fill="#FAFAFA"/>
<path d="M168.072 152.25C167.991 152.245 167.911 152.231 167.833 152.209L167.151 152.045L164.423 151.363C162.091 150.777 158.701 149.951 154.507 148.969C146.125 146.985 134.497 144.427 121.648 141.645C108.799 138.862 97.1782 136.264 88.81 134.211C84.6225 133.188 81.2398 132.328 78.9142 131.701L76.2339 130.971L75.5519 130.773C75.4714 130.756 75.3934 130.729 75.3201 130.692L75.5588 130.739L76.2408 130.896L78.9688 131.578C81.308 132.165 84.6976 132.983 88.8919 133.972C97.2736 135.957 108.895 138.514 121.751 141.297C134.606 144.079 146.221 146.678 154.589 148.731C158.776 149.754 162.159 150.606 164.485 151.24L167.158 151.97L167.84 152.168L168.072 152.25Z" fill="#FAFAFA"/>
<path d="M239.737 92.3701C239.737 92.3701 239.668 92.1451 239.553 91.6881L239.055 89.7581C238.618 88.0463 237.984 85.5433 237.165 82.3175L230.298 54.9556C229.934 53.5098 229.563 52.0298 229.186 50.5158C229.002 49.7656 228.811 48.9949 228.613 48.2243C228.518 47.8355 228.422 47.4468 228.299 47.0717C228.193 46.6887 228.056 46.3148 227.89 45.9532C227.214 44.4232 226.151 43.0958 224.806 42.102C223.46 41.1081 221.879 40.4822 220.218 40.2858C219.356 40.1665 218.481 40.1665 217.619 40.2858C216.76 40.4358 215.887 40.6745 215.007 40.886L209.654 42.25L198.462 45.0121L148.737 57.4245L98.9514 69.7823L87.7734 72.5512L85.0454 73.2332C84.16 73.4172 83.2927 73.6796 82.4538 74.0175C80.8358 74.7188 79.4399 75.8483 78.4164 77.2843C77.921 77.9821 77.5176 78.7408 77.216 79.5417C76.9348 80.3329 76.7494 81.1548 76.6636 81.9901C76.4658 83.661 76.9296 85.2705 77.257 86.8596C77.939 90.0422 78.5914 93.0908 79.2143 96.0052C81.7036 107.661 83.7155 117.086 85.1068 123.613C85.7888 126.873 86.3276 129.396 86.6958 131.115C86.8663 131.967 87.0027 132.622 87.0982 133.072C87.1937 133.522 87.221 133.754 87.221 133.754C87.221 133.754 87.1596 133.529 87.0573 133.072C86.955 132.615 86.8118 131.974 86.6208 131.128C86.2389 129.403 85.6865 126.879 84.9704 123.626C83.545 117.106 81.4922 107.681 78.9551 96.0461C78.3277 93.134 77.6593 90.0854 76.9705 86.9005C76.6432 85.3319 76.1658 83.6678 76.3704 81.9424C76.4488 81.0787 76.6367 80.2284 76.9296 79.4121C77.2412 78.5858 77.6559 77.8021 78.164 77.0797C78.6807 76.3444 79.2983 75.6855 79.9986 75.1224C80.6998 74.5377 81.4835 74.0597 82.3242 73.7038C83.1776 73.3555 84.0611 73.0861 84.9636 72.899L87.6916 72.217L98.89 69.4481L148.676 57.063L198.462 44.7052L209.64 41.9362L214.994 40.6132C215.873 40.3949 216.733 40.163 217.633 40.0062C218.948 39.8098 220.288 39.8776 221.576 40.2055C222.864 40.5333 224.074 41.1148 225.135 41.9158C226.485 42.9375 227.551 44.2874 228.231 45.8373C228.402 46.2097 228.544 46.5951 228.654 46.9899C228.777 47.3786 228.872 47.7673 228.968 48.1561C229.159 48.9267 229.343 49.6974 229.534 50.4544C229.909 51.9685 230.27 53.4484 230.632 54.8942L237.384 82.3038C238.168 85.5365 238.782 88.0463 239.198 89.7581C239.402 90.6106 239.559 91.2585 239.662 91.7018C239.764 92.1451 239.737 92.3701 239.737 92.3701Z" fill="#E0E0E0"/>
<path d="M308.264 306.218C308.264 306.32 246.584 306.402 170.5 306.402C94.4161 306.402 32.736 306.327 32.736 306.218C32.736 306.109 94.4093 306.027 170.5 306.027C246.591 306.027 308.264 306.123 308.264 306.218Z" fill="#263238"/>
<path d="M163.482 56.3742L156.737 61.5097L157.065 71.3169L150.893 66.4133L147.483 69.3322L134.525 53.3325L163.482 56.3742Z" fill="#031D44"/>
<path d="M154.2 63.5967C154.2 63.8968 157.065 71.3169 157.065 71.3169L150.893 66.4133L154.2 63.5967Z" fill="#031D44"/>
<g opacity="0.3">
<path opacity="0.3" d="M154.2 63.5967C154.2 63.8968 157.065 71.3169 157.065 71.3169L150.893 66.4133L154.2 63.5967Z" fill="black"/>
</g>
<path d="M134.525 53.3325L154.2 63.5966L157.065 71.3169L156.737 61.5097L134.525 53.3325Z" fill="#031D44"/>
<path opacity="0.1" d="M134.525 53.3325L154.2 63.5966L157.065 71.3169L156.737 61.5097L134.525 53.3325Z" fill="black"/>
<path d="M189.085 185.654C187.872 185.614 186.681 185.324 185.586 184.802C186.798 184.842 187.989 185.132 189.085 185.654Z" fill="#263238"/>
<path d="M194.663 187.018C194.663 187.12 194.152 187.086 193.579 186.95C193.006 186.813 192.556 186.609 192.576 186.507C192.597 186.404 193.088 186.438 193.668 186.582C194.247 186.725 194.691 186.916 194.663 187.018Z" fill="#263238"/>
<path d="M171.639 70.0347C171.034 70.0435 170.432 69.9489 169.859 69.7551C169.258 69.6813 168.676 69.4987 168.14 69.2163C168.748 69.1364 169.367 69.1971 169.948 69.3936C170.555 69.468 171.135 69.6879 171.639 70.0347Z" fill="#263238"/>
<path d="M178.241 72.8649C177.097 72.4895 176.014 71.9471 175.029 71.2554C175.637 71.3133 176.224 71.5142 176.74 71.8419C177.634 72.292 178.295 72.7762 178.241 72.8649Z" fill="#263238"/>
<path d="M183.963 77.2025C183.888 77.2775 183.281 76.766 182.517 76.1249C181.753 75.4839 181.153 74.9383 181.241 74.8496C181.823 75.0551 182.349 75.3937 182.776 75.8385C183.519 76.4932 184.038 77.1343 183.963 77.2025Z" fill="#263238"/>
<path d="M188.328 82.8973C188.232 82.945 187.782 82.2835 187.236 81.4651C186.854 80.9961 186.555 80.4657 186.35 79.8965C186.425 79.8351 186.998 80.4216 187.55 81.2605C187.935 81.737 188.201 82.2979 188.328 82.8973Z" fill="#263238"/>
<path d="M190.803 89.6286C190.51 89.0997 190.308 88.5258 190.203 87.9304C189.975 87.3683 189.848 86.7703 189.828 86.1641C190.196 86.655 190.446 87.2246 190.558 87.8281C190.787 88.3988 190.871 89.0174 190.803 89.6286Z" fill="#263238"/>
<path d="M191.171 96.7895C191.05 96.1972 191.024 95.5893 191.096 94.989C191.045 94.3861 191.1 93.7789 191.26 93.1953C191.468 93.7712 191.541 94.3874 191.471 94.9958C191.514 95.609 191.412 96.2236 191.171 96.7895Z" fill="#263238"/>
<path d="M189.31 103.705C189.383 103.106 189.553 102.523 189.814 101.98C189.953 101.395 190.183 100.835 190.496 100.322C190.53 100.937 190.405 101.549 190.135 102.102C189.996 102.696 189.712 103.247 189.31 103.705Z" fill="#263238"/>
<path d="M185.143 109.529C185.074 109.447 185.606 108.847 186.254 108.111C186.902 107.374 187.42 106.747 187.509 106.822C187.316 107.406 186.981 107.933 186.534 108.356C185.872 109.12 185.211 109.604 185.143 109.529Z" fill="#263238"/>
<path d="M179.127 113.403C179.588 113.013 180.109 112.7 180.669 112.476C181.172 112.142 181.728 111.893 182.312 111.739C181.916 112.211 181.41 112.579 180.839 112.81C180.326 113.146 179.738 113.35 179.127 113.403Z" fill="#263238"/>
<path d="M172.13 114.91C172.701 114.701 173.302 114.588 173.91 114.576C174.5 114.441 175.108 114.402 175.711 114.46C175.175 114.764 174.573 114.93 173.958 114.944C173.356 115.089 172.726 115.077 172.13 114.91Z" fill="#263238"/>
<path d="M165.105 113.58C166.272 113.823 167.413 114.172 168.515 114.624C167.904 114.7 167.283 114.615 166.715 114.378C166.118 114.258 165.563 113.983 165.105 113.58Z" fill="#263238"/>
<path d="M160.127 108.643C160.229 108.609 160.543 109.325 161.102 110.13C161.661 110.934 162.2 111.494 162.125 111.596C162.05 111.698 161.382 111.187 160.795 110.348C160.383 109.873 160.147 109.271 160.127 108.643Z" fill="#263238"/>
<path d="M163.155 103.057C163.155 103.166 162.412 103.405 161.634 103.957C160.857 104.51 160.441 105.199 160.345 105.144C160.25 105.09 160.55 104.271 161.416 103.657C161.898 103.243 162.52 103.029 163.155 103.057Z" fill="#263238"/>
<path d="M169.32 105.615C169.225 105.669 168.788 105.001 168.079 104.346C167.37 103.691 166.647 103.364 166.715 103.262C167.349 103.312 167.939 103.602 168.365 104.073C168.855 104.459 169.193 105.004 169.32 105.615Z" fill="#263238"/>
<path d="M169.552 112.578C169.603 111.984 169.715 111.396 169.886 110.825C169.937 110.229 170.049 109.639 170.22 109.066C170.403 109.661 170.403 110.298 170.22 110.893C170.174 111.51 169.94 112.097 169.552 112.578Z" fill="#263238"/>
<path d="M164.88 117.931C164.819 117.843 165.44 117.331 166.183 116.697C166.926 116.063 167.547 115.517 167.595 115.585C167.642 115.654 167.199 116.322 166.428 116.949C165.658 117.577 164.935 118.02 164.88 117.931Z" fill="#263238"/>
<path d="M158.504 121.246C158.955 120.838 159.484 120.525 160.059 120.325C160.583 120.016 161.166 119.819 161.77 119.746C160.798 120.468 159.685 120.979 158.504 121.246Z" fill="#263238"/>
<path d="M152.086 124.506C152.031 124.417 152.679 123.933 153.539 123.415C154.04 123.065 154.613 122.832 155.216 122.733C155.271 122.835 154.575 123.251 153.723 123.742C153.236 124.107 152.679 124.367 152.086 124.506Z" fill="#263238"/>
<path d="M146.63 129.198C146.555 129.13 147.026 128.462 147.742 127.759C148.137 127.291 148.634 126.92 149.194 126.675C149.263 126.757 148.71 127.357 148.008 128.039C147.305 128.721 146.739 129.266 146.63 129.198Z" fill="#263238"/>
<path d="M142.538 135.077C142.652 134.475 142.904 133.908 143.275 133.42C143.8 132.567 144.338 131.954 144.42 132.015C144.243 132.594 143.964 133.137 143.595 133.618C143.077 134.457 142.634 135.125 142.538 135.077Z" fill="#263238"/>
<path d="M139.919 141.761C139.884 141.15 139.997 140.539 140.247 139.981C140.375 139.381 140.644 138.82 141.031 138.344C140.831 139.529 140.457 140.678 139.919 141.754V141.761Z" fill="#263238"/>
<path d="M138.978 148.881C138.731 147.685 138.815 146.444 139.223 145.293C139.327 145.889 139.327 146.498 139.223 147.094C139.247 147.699 139.164 148.304 138.978 148.881Z" fill="#263238"/>
<path d="M139.919 155.994C139.613 155.467 139.42 154.881 139.353 154.275C139.153 153.695 139.101 153.074 139.203 152.468C139.467 153.014 139.642 153.599 139.721 154.2C139.91 154.778 139.978 155.389 139.919 155.994Z" fill="#263238"/>
<path d="M142.695 162.609C142.606 162.664 142.122 162.009 141.679 161.109C141.35 160.591 141.151 160.002 141.099 159.39C141.492 159.851 141.801 160.378 142.013 160.945C142.336 161.456 142.567 162.019 142.695 162.609Z" fill="#263238"/>
<path d="M147.005 168.359C146.937 168.427 146.323 167.909 145.641 167.145C145.202 166.717 144.866 166.194 144.659 165.617C144.748 165.549 145.286 166.149 145.928 166.899C146.569 167.649 147.08 168.284 147.005 168.359Z" fill="#263238"/>
<path d="M152.543 172.928C151.95 172.769 151.403 172.472 150.947 172.062C150.142 171.475 149.583 170.889 149.638 170.807C150.201 171.034 150.72 171.357 151.172 171.762C151.963 172.342 152.598 172.839 152.543 172.928Z" fill="#263238"/>
<path d="M159.022 176.024C158.408 176.02 157.805 175.868 157.262 175.581C156.671 175.416 156.13 175.106 155.687 174.681C156.284 174.769 156.863 174.956 157.399 175.233C157.978 175.409 158.526 175.676 159.022 176.024Z" fill="#263238"/>
<path d="M162.63 176.945C162.63 177.041 162.568 177.122 162.534 177.116C162.5 177.109 162.487 177.02 162.534 176.918C162.582 176.815 162.596 176.74 162.63 176.747C162.664 176.754 162.65 176.843 162.63 176.945Z" fill="#263238"/>
<path d="M157.415 159.085L149.957 156.636L148.434 161.275L155.892 163.724L157.415 159.085Z" fill="#031D44"/>
<g opacity="0.3">
<path opacity="0.3" d="M157.415 159.085L149.957 156.636L148.434 161.275L155.892 163.724L157.415 159.085Z" fill="black"/>
</g>
<path d="M157.399 159.097C156.004 159.796 154.559 160.389 153.075 160.87L152.945 160.918L152.864 160.809L152.734 160.645C151.699 159.387 150.766 158.048 149.945 156.642C151.069 157.821 152.102 159.084 153.034 160.42L153.157 160.584L152.945 160.522C154.389 159.928 155.878 159.452 157.399 159.097Z" fill="#031D44"/>
<g opacity="0.1">
<path opacity="0.1" d="M157.399 159.097C156.004 159.796 154.559 160.389 153.075 160.87L152.945 160.918L152.864 160.809L152.734 160.645C151.699 159.387 150.766 158.048 149.945 156.642C151.069 157.821 152.102 159.084 153.034 160.42L153.157 160.584L152.945 160.522C154.389 159.928 155.878 159.452 157.399 159.097Z" fill="black"/>
</g>
<path d="M152.086 159.486C151.573 159.948 150.978 160.311 150.333 160.557C149.739 160.909 149.088 161.156 148.41 161.286C148.928 160.827 149.524 160.465 150.17 160.216C150.762 159.865 151.41 159.618 152.086 159.486Z" fill="#031D44"/>
<g opacity="0.1">
<path opacity="0.1" d="M152.086 159.486C151.573 159.948 150.978 160.311 150.333 160.557C149.739 160.909 149.088 161.156 148.41 161.286C148.928 160.827 149.524 160.465 150.17 160.216C150.762 159.865 151.41 159.618 152.086 159.486Z" fill="black"/>
</g>
<path d="M156.008 163.776C155.59 163.261 155.267 162.677 155.053 162.05C154.603 161.034 154.303 160.161 154.439 160.175C154.857 160.69 155.183 161.273 155.401 161.9C155.718 162.482 155.924 163.118 156.008 163.776Z" fill="#031D44"/>
<g opacity="0.1">
<path opacity="0.1" d="M156.008 163.776C155.59 163.261 155.267 162.677 155.053 162.05C154.603 161.034 154.303 160.161 154.439 160.175C154.857 160.69 155.183 161.273 155.401 161.9C155.718 162.482 155.924 163.118 156.008 163.776Z" fill="black"/>
</g>
<path d="M187.827 177.259L168.648 170.96L164.728 182.896L183.907 189.194L187.827 177.259Z" fill="#031D44"/>
<path d="M187.809 177.272C187.536 177.429 187.248 177.559 186.95 177.661L184.563 178.595C182.517 179.366 179.728 180.416 176.584 181.569L176.454 181.617L176.372 181.508L176.052 181.085C173.965 178.357 172.082 175.813 170.739 173.978L169.136 171.803C168.932 171.542 168.751 171.264 168.597 170.971C168.847 171.197 169.076 171.446 169.279 171.714L170.95 173.821C172.348 175.608 174.258 178.098 176.352 180.86L176.672 181.276L176.461 181.214C179.598 180.069 182.428 179.059 184.474 178.35L186.902 177.525C187.196 177.412 187.5 177.328 187.809 177.272Z" fill="#031D44"/>
<g opacity="0.2">
<path opacity="0.2" d="M187.809 177.272C187.536 177.429 187.248 177.559 186.95 177.661L184.563 178.595C182.517 179.366 179.728 180.416 176.584 181.569L176.454 181.617L176.372 181.508L176.052 181.085C173.965 178.357 172.082 175.813 170.739 173.978L169.136 171.803C168.932 171.542 168.751 171.264 168.597 170.971C168.847 171.197 169.076 171.446 169.279 171.714L170.95 173.821C172.348 175.608 174.258 178.098 176.352 180.86L176.672 181.276L176.461 181.214C179.598 180.069 182.428 179.059 184.474 178.35L186.902 177.525C187.196 177.412 187.5 177.328 187.809 177.272Z" fill="black"/>
</g>
<path d="M174.169 178.289C172.678 179.22 171.124 180.048 169.518 180.764C167.966 181.587 166.36 182.303 164.71 182.906C166.195 181.966 167.748 181.136 169.354 180.423C170.905 179.595 172.514 178.881 174.169 178.289Z" fill="#031D44"/>
<g opacity="0.2">
<path opacity="0.2" d="M174.169 178.289C172.678 179.22 171.124 180.048 169.518 180.764C167.966 181.587 166.36 182.303 164.71 182.906C166.195 181.966 167.748 181.136 169.354 180.423C170.905 179.595 172.514 178.881 174.169 178.289Z" fill="black"/>
</g>
<path d="M184.236 189.316C183.396 187.853 182.665 186.33 182.046 184.761C181.318 183.237 180.702 181.662 180.205 180.048C181.045 181.514 181.777 183.038 182.394 184.611C183.123 186.132 183.739 187.705 184.236 189.316Z" fill="#031D44"/>
<g opacity="0.2">
<path opacity="0.2" d="M184.236 189.316C183.396 187.853 182.665 186.33 182.046 184.761C181.318 183.237 180.702 181.662 180.205 180.048C181.045 181.514 181.777 183.038 182.394 184.611C183.123 186.132 183.739 187.705 184.236 189.316Z" fill="black"/>
</g>
<path d="M169.682 173.91C169.204 174.26 168.634 174.461 168.042 174.487C167.451 174.513 166.865 174.363 166.359 174.057C165.852 173.75 165.448 173.3 165.198 172.763C164.947 172.227 164.861 171.628 164.951 171.043C165.041 170.458 165.302 169.912 165.701 169.476C166.101 169.039 166.621 168.73 167.196 168.589C167.771 168.447 168.375 168.48 168.931 168.682C169.488 168.883 169.972 169.246 170.323 169.723C170.556 170.04 170.724 170.399 170.818 170.781C170.912 171.164 170.93 171.56 170.87 171.949C170.811 172.338 170.675 172.712 170.471 173.048C170.267 173.384 169.999 173.677 169.682 173.91Z" fill="#263238"/>
<path d="M169.818 170.944C169.184 171.414 168.511 171.83 167.806 172.185L167.329 172.451L167.24 172.498L167.192 172.417C166.87 171.905 166.596 171.363 166.374 170.8C166.754 171.273 167.085 171.782 167.363 172.321L167.233 172.28L167.711 172.007C168.381 171.592 169.086 171.236 169.818 170.944Z" fill="white"/>
<path d="M175.507 161.177L165.457 157.877L163.404 164.13L173.454 167.43L175.507 161.177Z" fill="#031D44"/>
<g opacity="0.2">
<path opacity="0.2" d="M175.507 161.177L165.457 157.877L163.404 164.13L173.454 167.43L175.507 161.177Z" fill="black"/>
</g>
<path d="M175.485 161.184C175.345 161.268 175.197 161.336 175.042 161.389L173.787 161.88C172.73 162.282 171.257 162.834 169.607 163.435H169.538L169.497 163.373L169.334 163.155C168.236 161.709 167.288 160.393 166.544 159.431L165.726 158.32C165.62 158.182 165.527 158.036 165.446 157.883C165.573 158.001 165.687 158.131 165.787 158.272L166.667 159.377C167.397 160.311 168.399 161.614 169.491 163.059L169.661 163.284H169.552C171.196 162.684 172.676 162.152 173.753 161.784L175.022 161.354C175.169 161.28 175.325 161.223 175.485 161.184Z" fill="#031D44"/>
<g opacity="0.2">
<path opacity="0.2" d="M175.485 161.184C175.345 161.268 175.197 161.336 175.042 161.389L173.787 161.88C172.73 162.282 171.257 162.834 169.607 163.435H169.538L169.497 163.373L169.334 163.155C168.236 161.709 167.288 160.393 166.544 159.431L165.726 158.32C165.62 158.182 165.527 158.036 165.446 157.883C165.573 158.001 165.687 158.131 165.787 158.272L166.667 159.377C167.397 160.311 168.399 161.614 169.491 163.059L169.661 163.284H169.552C171.196 162.684 172.676 162.152 173.753 161.784L175.022 161.354C175.169 161.28 175.325 161.223 175.485 161.184Z" fill="#031D44"/>
</g>
<path d="M168.345 161.716C167.563 162.202 166.75 162.635 165.91 163.012C165.096 163.444 164.252 163.82 163.387 164.137C164.165 163.644 164.979 163.208 165.822 162.835C166.635 162.401 167.478 162.028 168.345 161.716Z" fill="#031D44"/>
<g opacity="0.2">
<path opacity="0.2" d="M168.345 161.716C167.563 162.202 166.75 162.635 165.91 163.012C165.096 163.444 164.252 163.82 163.387 164.137C164.165 163.644 164.979 163.208 165.822 162.835C166.635 162.401 167.478 162.028 168.345 161.716Z" fill="#031D44"/>
</g>
<path d="M173.617 167.493C173.177 166.726 172.794 165.928 172.471 165.106C172.092 164.306 171.768 163.481 171.503 162.637C172.33 164.199 173.037 165.822 173.617 167.493Z" fill="#031D44"/>
<g opacity="0.2">
<path opacity="0.2" d="M173.617 167.493C173.177 166.726 172.794 165.928 172.471 165.106C172.092 164.306 171.768 163.481 171.503 162.637C172.33 164.199 173.037 165.822 173.617 167.493Z" fill="#031D44"/>
</g>
<path d="M94.798 82.9109C94.1045 85.6405 92.6172 88.1031 90.5241 89.9874C88.4311 91.8717 85.8263 93.0931 83.0391 93.4971C80.252 93.9011 77.4076 93.4696 74.8656 92.2571C72.3237 91.0446 70.1984 89.1056 68.7584 86.6853C67.3184 84.265 66.6284 81.472 66.7757 78.6596C66.923 75.8471 67.9009 73.1415 69.5858 70.8848C71.2707 68.6281 73.5869 66.9217 76.2415 65.9813C78.8962 65.041 81.7701 64.9089 84.4998 65.6018C88.1601 66.5327 91.3009 68.8789 93.2319 72.1246C95.163 75.3703 95.7263 79.25 94.798 82.9109Z" fill="#263238"/>
<path d="M86.2526 71.6852C86.5049 71.7875 84.8886 76.5547 82.638 82.3381C82.3038 83.1769 81.956 83.9817 81.6763 84.7728L81.5058 85.2025L81.0762 85.0388C76.459 83.2588 73.0831 81.7925 73.165 81.5811C73.2468 81.3696 76.7523 82.4745 81.4035 84.159L80.8034 84.4318C81.1035 83.6407 81.4172 82.8291 81.7377 81.9903C83.9815 76.2001 86.007 71.6102 86.2526 71.6852Z" fill="white"/>
<path d="M269.833 284.455C272.385 283.257 275.253 282.908 278.017 283.46C279.504 283.705 281.052 284.142 282.068 285.26C283.085 286.379 283.269 288.343 282.109 289.304C281.359 289.807 280.458 290.035 279.559 289.952C277.39 289.952 274.989 289.543 273.257 290.846C272.268 291.589 271.613 292.824 270.434 293.192C269.843 293.326 269.225 293.266 268.672 293.02C268.119 292.774 267.66 292.356 267.365 291.828C266.802 290.743 266.678 289.483 267.017 288.309C267.157 287.492 267.484 286.72 267.973 286.051C268.461 285.383 269.098 284.836 269.833 284.455Z" fill="#031D44"/>
<g opacity="0.2">
<path opacity="0.2" d="M269.833 284.455C272.385 283.257 275.253 282.908 278.017 283.46C279.504 283.705 281.052 284.142 282.068 285.26C283.085 286.379 283.269 288.343 282.109 289.304C281.359 289.807 280.458 290.035 279.559 289.952C277.39 289.952 274.989 289.543 273.257 290.846C272.268 291.589 271.613 292.824 270.434 293.192C269.843 293.326 269.225 293.266 268.672 293.02C268.119 292.774 267.66 292.356 267.365 291.828C266.802 290.743 266.678 289.483 267.017 288.309C267.157 287.492 267.484 286.72 267.973 286.051C268.461 285.383 269.098 284.836 269.833 284.455Z" fill="white"/>
</g>
<path d="M264.125 273.434C265.653 275.61 268.613 274.887 269.983 273.557C271.354 272.227 271.941 270.304 272.466 268.469C273.673 264.275 274.887 259.876 273.994 255.607C273.773 254.313 273.205 253.104 272.35 252.108C271.915 251.619 271.359 251.252 270.738 251.045C270.117 250.838 269.452 250.798 268.81 250.928C267.317 251.324 266.389 252.79 265.721 254.181C263.746 258.289 262.709 262.786 262.686 267.344C262.686 269.465 262.931 271.688 264.125 273.441" fill="#031D44"/>
<path d="M259.944 276.558C261.595 274.594 261.909 271.729 261.172 269.267C260.336 266.825 258.845 264.659 256.862 263.006C254.603 261.012 251.979 259.474 249.135 258.478C248.031 258.032 246.845 257.83 245.656 257.885C245.063 257.92 244.487 258.099 243.979 258.407C243.47 258.715 243.044 259.142 242.737 259.651C241.926 261.199 242.703 263.061 243.549 264.616C245.036 267.322 246.733 269.908 248.623 272.35C250.144 274.307 251.89 276.244 254.209 277.124C256.528 278.004 258.935 277.908 260.163 276.299" fill="#031D44"/>
<g opacity="0.1">
<path opacity="0.1" d="M259.944 276.558C261.595 274.594 261.909 271.729 261.172 269.267C260.336 266.825 258.845 264.659 256.862 263.006C254.603 261.012 251.979 259.474 249.135 258.478C248.031 258.032 246.845 257.83 245.656 257.885C245.063 257.92 244.487 258.099 243.979 258.407C243.47 258.715 243.044 259.142 242.737 259.651C241.926 261.199 242.703 263.061 243.549 264.616C245.036 267.322 246.733 269.908 248.623 272.35C250.144 274.307 251.89 276.244 254.209 277.124C256.528 278.004 258.935 277.908 260.163 276.299" fill="black"/>
</g>
<path d="M264.023 306.259C264.102 305.935 264.148 305.603 264.159 305.27C264.234 304.547 264.316 303.647 264.425 302.542C264.559 301.214 264.761 299.893 265.032 298.586C265.385 296.993 265.866 295.43 266.471 293.915C267.063 292.399 267.867 290.976 268.858 289.686C269.663 288.635 270.693 287.777 271.873 287.176C272.672 286.783 273.528 286.516 274.41 286.385C274.741 286.374 275.07 286.328 275.392 286.249C275.061 286.208 274.727 286.208 274.396 286.249C273.478 286.318 272.58 286.548 271.743 286.931C270.504 287.52 269.416 288.385 268.565 289.461C267.532 290.768 266.697 292.22 266.089 293.771C265.477 295.318 265 296.916 264.664 298.545C264.407 299.868 264.232 301.205 264.139 302.549C264.05 303.694 264.016 304.595 264.002 305.277C263.976 305.604 263.983 305.933 264.023 306.259Z" fill="#263238"/>
<path d="M264.207 304.172C264.227 304.02 264.227 303.867 264.207 303.715V302.406C264.207 301.267 264.207 299.616 264.261 297.584C264.364 293.492 264.711 287.893 265.393 281.72C266.075 275.548 266.976 269.99 267.801 266.034C267.992 265.039 268.19 264.139 268.374 263.354C268.558 262.57 268.701 261.881 268.844 261.308C268.988 260.735 269.069 260.367 269.151 260.033C269.198 259.885 269.225 259.731 269.233 259.576C269.164 259.712 269.111 259.857 269.076 260.006L268.694 261.267C268.524 261.813 268.353 262.488 268.156 263.272C267.958 264.057 267.733 264.95 267.514 265.953C266.402 271.142 265.566 276.387 265.012 281.666C264.33 287.852 264.029 293.485 264.002 297.563C264.002 299.609 264.002 301.253 264.07 302.392C264.102 302.924 264.13 303.36 264.152 303.701C264.155 303.86 264.173 304.017 264.207 304.172Z" fill="#263238"/>
<path d="M264.234 293.314C264.271 292.86 264.271 292.404 264.234 291.95C264.158 290.707 264.016 289.469 263.811 288.24C263.133 284.178 261.97 280.213 260.347 276.428C258.779 272.602 256.528 269.094 253.704 266.075C253.216 265.558 252.694 265.072 252.142 264.623C251.904 264.418 251.692 264.22 251.46 264.057L250.86 263.641C250.493 263.364 250.105 263.115 249.701 262.897C251.03 263.944 252.294 265.072 253.486 266.273C256.216 269.317 258.407 272.804 259.965 276.585C260.86 278.647 261.619 280.766 262.236 282.928C262.829 284.912 263.225 286.74 263.525 288.281C263.825 289.823 263.968 291.084 264.07 291.957C264.093 292.413 264.147 292.866 264.234 293.314Z" fill="#263238"/>
<path d="M160.509 203.406H189.064L200.372 171.816H198.789L187.577 201.865L160.509 202.022V203.406Z" fill="#455A64"/>
<path d="M147.892 207.396L148.949 306.348H151.854L150.674 206.667L147.892 207.396Z" fill="#263238"/>
<path d="M209.013 206.435C208.624 208.324 211.631 306.573 211.631 306.573H214.359L212.143 206.435H209.013Z" fill="#263238"/>
<path d="M242.396 203.406H120.98V208.412H130.999L124.479 306.027L127.329 306.184L133.856 208.412H232.18L236.947 306.225H239.805L235.038 208.412H242.396V203.406Z" fill="#263238"/>
<path d="M173.91 302.624V295.122L159.854 294.979L159.697 305.959L160.57 306.02C164.444 306.279 180.293 307.043 182.892 306.286C185.784 305.441 173.91 302.624 173.91 302.624Z" fill="#031D44"/>
<path d="M164.785 305.897C164.592 304.71 163.965 303.635 163.025 302.883C162.103 302.136 160.936 301.759 159.752 301.826L159.711 305.754L164.785 305.897Z" fill="#F5F5F5"/>
<path d="M179.693 304.206C179.693 304.206 183.867 305.461 183.335 306.143C182.803 306.825 166.763 306.654 159.69 305.959V305.645L178.404 306.007C178.404 306.007 178.875 304.233 179.693 304.206Z" fill="#F5F5F5"/>
<path d="M159.499 305.632H159.738L160.42 305.686L162.971 305.823C165.126 305.925 168.106 306.02 171.4 306.061C174.694 306.102 177.681 306.061 179.837 306.013L182.394 305.938L183.076 305.904H183.315C183.236 305.894 183.155 305.894 183.076 305.904H182.394H179.837C177.681 305.904 174.694 305.904 171.407 305.904C168.12 305.904 165.133 305.782 162.978 305.713L160.42 305.632H159.738H159.499Z" fill="#263238"/>
<path d="M178.425 306.218C178.541 305.796 178.705 305.388 178.916 305.004C179.17 304.648 179.465 304.322 179.796 304.036C179.374 304.218 179.017 304.524 178.773 304.914C178.53 305.304 178.411 305.759 178.432 306.218H178.425Z" fill="#263238"/>
<path d="M174.299 304.077C174.34 304.077 174.544 303.858 174.749 303.538C174.953 303.217 175.097 302.938 175.056 302.91C175.015 302.883 174.817 303.129 174.606 303.449C174.459 303.633 174.354 303.848 174.299 304.077Z" fill="#263238"/>
<path d="M173.167 303.49C173.201 303.524 173.426 303.381 173.671 303.163C173.917 302.944 174.087 302.747 174.053 302.713C174.019 302.678 173.801 302.822 173.555 303.033C173.31 303.245 173.139 303.429 173.167 303.49Z" fill="#263238"/>
<path d="M172.464 302.126C172.696 302.216 172.946 302.251 173.194 302.228C173.441 302.261 173.693 302.237 173.93 302.16C173.698 302.07 173.449 302.035 173.201 302.058C172.953 302.026 172.702 302.05 172.464 302.126Z" fill="#263238"/>
<path d="M172.225 301.192C172.478 301.329 172.756 301.412 173.042 301.437C173.329 301.462 173.617 301.427 173.889 301.335C173.334 301.292 172.78 301.244 172.225 301.192Z" fill="#263238"/>
<path d="M174.79 302.856C175.09 302.908 175.397 302.908 175.697 302.856C176.023 302.821 176.345 302.755 176.658 302.658C176.851 302.604 177.036 302.529 177.211 302.433C177.265 302.405 177.312 302.366 177.351 302.319C177.39 302.272 177.418 302.218 177.436 302.16C177.451 302.093 177.447 302.023 177.424 301.957C177.401 301.892 177.36 301.835 177.306 301.792C176.964 301.623 176.574 301.576 176.201 301.661C175.829 301.745 175.496 301.955 175.26 302.256C175.117 302.432 175.012 302.636 174.953 302.856C174.953 303.013 174.953 303.101 174.953 303.101C175.044 302.823 175.185 302.564 175.369 302.338C175.574 302.099 175.845 301.926 176.147 301.84C176.324 301.783 176.51 301.762 176.695 301.777C176.879 301.792 177.06 301.843 177.225 301.928C177.368 302.037 177.306 302.201 177.149 302.297C176.986 302.384 176.815 302.455 176.638 302.508C176.333 302.609 176.021 302.687 175.704 302.74C175.138 302.808 174.79 302.808 174.79 302.856Z" fill="#263238"/>
<path d="M175.022 302.904C175.136 302.716 175.177 302.492 175.138 302.276C175.112 302.033 175.031 301.8 174.899 301.594C174.824 301.459 174.716 301.344 174.585 301.262C174.453 301.18 174.303 301.132 174.149 301.124C174.056 301.142 173.975 301.196 173.923 301.274C173.87 301.352 173.851 301.447 173.869 301.54C173.888 301.682 173.936 301.82 174.012 301.942C174.133 302.141 174.275 302.326 174.435 302.494C174.571 302.659 174.747 302.786 174.947 302.863C174.947 302.863 174.769 302.699 174.524 302.413C174.382 302.245 174.258 302.062 174.156 301.867C174.033 301.676 173.951 301.328 174.156 301.294C174.36 301.26 174.612 301.499 174.749 301.683C174.87 301.859 174.953 302.059 174.994 302.269C175.028 302.479 175.037 302.692 175.022 302.904Z" fill="#263238"/>
<path d="M159.827 301.792C159.827 301.792 160.229 301.758 160.863 301.84C161.689 301.945 162.47 302.275 163.121 302.794C163.754 303.339 164.225 304.047 164.485 304.84C164.689 305.441 164.71 305.85 164.737 305.843C164.764 305.836 164.737 305.741 164.737 305.563C164.714 305.305 164.666 305.049 164.594 304.8C164.349 303.972 163.859 303.238 163.19 302.693C162.521 302.148 161.703 301.817 160.843 301.744C160.584 301.715 160.324 301.715 160.065 301.744C159.983 301.745 159.902 301.761 159.827 301.792Z" fill="#263238"/>
<path d="M161.348 295.988C161.184 297.907 161.138 299.834 161.211 301.758C161.319 300.8 161.369 299.837 161.361 298.873C161.411 297.912 161.406 296.949 161.348 295.988Z" fill="#263238"/>
<path d="M166.572 304.547C167.241 304.713 167.929 304.789 168.618 304.772C169.303 304.817 169.991 304.769 170.664 304.629C170.664 304.581 169.743 304.629 168.618 304.629C167.492 304.629 166.578 304.499 166.572 304.547Z" fill="#263238"/>
<path d="M163.816 304.513C163.816 304.547 163.891 304.711 163.98 304.922C164.069 305.134 164.123 305.318 164.171 305.318C164.219 305.318 164.246 305.093 164.137 304.854C164.028 304.615 163.851 304.479 163.816 304.513Z" fill="#263238"/>
<path d="M162.793 303.211C162.793 303.245 162.848 303.388 162.991 303.538C163.134 303.688 163.278 303.783 163.312 303.749C163.346 303.715 163.257 303.572 163.114 303.422C162.971 303.272 162.827 303.176 162.793 303.211Z" fill="#263238"/>
<path d="M161.313 302.604C161.313 302.651 161.511 302.651 161.716 302.726C161.92 302.801 162.07 302.917 162.105 302.883C162.139 302.849 162.03 302.658 161.77 302.569C161.511 302.481 161.3 302.563 161.313 302.604Z" fill="#263238"/>
<path d="M160.27 302.317C160.27 302.358 160.331 302.433 160.447 302.481C160.563 302.529 160.672 302.529 160.686 302.481C160.7 302.433 160.625 302.365 160.509 302.317C160.393 302.269 160.27 302.269 160.27 302.317Z" fill="#263238"/>
<path d="M201.545 295.054L198.462 288.2L185.593 293.853L189.964 303.92L190.783 303.62C194.425 302.256 209.197 296.438 211.243 294.679C213.555 292.715 201.545 295.054 201.545 295.054Z" fill="#031D44"/>
<path d="M194.609 301.771C193.945 300.759 192.929 300.03 191.758 299.725C190.612 299.428 189.397 299.566 188.348 300.114L189.923 303.708L194.609 301.771Z" fill="#F5F5F5"/>
<path d="M207.498 294.099C207.498 294.099 211.816 293.519 211.59 294.365C211.365 295.211 196.696 301.649 189.964 303.913L189.862 303.62L207.062 296.247C207.062 296.247 206.762 294.461 207.498 294.099Z" fill="#F5F5F5"/>
<path d="M189.671 303.708L189.903 303.633L190.585 303.395L192.972 302.467C194.977 301.669 197.746 300.537 200.754 299.214C203.761 297.891 206.476 296.643 208.419 295.702L210.718 294.583L211.338 294.263C211.413 294.233 211.484 294.194 211.55 294.147L211.325 294.235L210.69 294.522L208.371 295.599C206.414 296.5 203.7 297.741 200.685 299.057C197.671 300.373 194.916 301.533 192.924 302.358L190.564 303.333L189.923 303.599L189.671 303.708Z" fill="#263238"/>
<path d="M207.171 296.459C207.1 296.026 207.081 295.586 207.117 295.149C207.206 294.72 207.341 294.302 207.519 293.901C207.184 294.224 206.98 294.658 206.946 295.122C206.855 295.58 206.935 296.056 207.171 296.459Z" fill="#263238"/>
<path d="M202.554 296.193C202.602 296.193 202.684 295.899 202.745 295.511C202.806 295.122 202.813 294.829 202.745 294.829C202.677 294.829 202.615 295.122 202.554 295.511C202.498 295.734 202.498 295.969 202.554 296.193Z" fill="#263238"/>
<path d="M201.245 296.104C201.285 296.104 201.429 295.893 201.565 295.599C201.701 295.306 201.77 295.047 201.729 295.026C201.688 295.006 201.545 295.231 201.408 295.531C201.272 295.831 201.19 296.084 201.245 296.104Z" fill="#263238"/>
<path d="M200.051 295.177C200.29 295.153 200.523 295.081 200.733 294.965C201.108 294.808 201.415 294.645 201.374 294.604C201.333 294.563 201.04 294.651 200.692 294.808C200.344 294.965 200.031 295.129 200.051 295.177Z" fill="#263238"/>
<path d="M199.451 294.42C199.738 294.467 200.033 294.426 200.297 294.304C200.576 294.235 200.828 294.083 201.019 293.867C200.75 293.936 200.488 294.03 200.235 294.147C199.966 294.213 199.703 294.304 199.451 294.42Z" fill="#263238"/>
<path d="M202.472 294.883C202.766 294.807 203.045 294.683 203.297 294.515C203.578 294.346 203.843 294.152 204.088 293.935C204.242 293.807 204.382 293.663 204.504 293.506C204.576 293.405 204.608 293.281 204.593 293.158C204.581 293.091 204.549 293.029 204.502 292.981C204.454 292.932 204.394 292.899 204.327 292.885C204.08 292.875 203.834 292.919 203.607 293.016C203.38 293.113 203.177 293.259 203.013 293.443C202.849 293.628 202.728 293.847 202.659 294.084C202.591 294.322 202.576 294.571 202.615 294.815C202.623 294.899 202.649 294.98 202.69 295.054C202.666 294.761 202.689 294.466 202.759 294.181C202.848 293.88 203.024 293.612 203.263 293.41C203.542 293.161 203.906 293.031 204.279 293.049C204.457 293.083 204.47 293.26 204.361 293.417C204.249 293.562 204.123 293.697 203.986 293.819C203.748 294.034 203.495 294.232 203.229 294.413C202.772 294.72 202.458 294.856 202.472 294.883Z" fill="#263238"/>
<path d="M202.704 294.829C202.725 294.612 202.67 294.395 202.547 294.215C202.424 294.009 202.257 293.834 202.056 293.703C201.932 293.612 201.787 293.554 201.635 293.533C201.482 293.513 201.327 293.532 201.183 293.587C201.107 293.641 201.054 293.723 201.038 293.815C201.021 293.907 201.042 294.001 201.095 294.079C201.169 294.203 201.272 294.308 201.395 294.385C201.585 294.521 201.791 294.633 202.008 294.72C202.202 294.812 202.415 294.854 202.629 294.842C202.629 294.842 202.397 294.767 202.056 294.604C201.855 294.512 201.665 294.398 201.49 294.263C201.299 294.14 201.088 293.86 201.279 293.731C201.393 293.697 201.514 293.689 201.632 293.708C201.75 293.727 201.862 293.772 201.961 293.84C202.148 293.949 202.309 294.098 202.431 294.276C202.537 294.452 202.629 294.637 202.704 294.829Z" fill="#263238"/>
<path d="M188.396 300.08C188.396 300.08 188.743 299.882 189.357 299.698C190.152 299.449 191.001 299.43 191.806 299.644C192.612 299.857 193.34 300.295 193.906 300.905C194.343 301.376 194.527 301.737 194.554 301.717C194.528 301.626 194.489 301.538 194.438 301.458C194.314 301.233 194.165 301.023 193.995 300.83C193.434 300.172 192.688 299.697 191.853 299.466C191.018 299.251 190.138 299.287 189.323 299.569C189.085 299.656 188.856 299.768 188.641 299.903C188.464 299.998 188.389 300.08 188.396 300.08Z" fill="#263238"/>
<path d="M187.379 294.126C187.669 295.057 188.017 295.968 188.423 296.854C188.777 297.751 189.18 298.628 189.63 299.48C189.334 298.562 188.983 297.662 188.58 296.786C188.229 295.878 187.829 294.99 187.379 294.126Z" fill="#263238"/>
<path d="M195.673 299.807C196.352 299.678 197.012 299.462 197.637 299.166C198.283 298.926 198.894 298.597 199.451 298.191C199.451 298.15 198.612 298.566 197.569 299.009C196.525 299.453 195.659 299.76 195.673 299.807Z" fill="#263238"/>
<path d="M193.149 300.905C193.149 300.953 193.299 301.055 193.47 301.212C193.64 301.369 193.763 301.519 193.804 301.492C193.845 301.464 193.804 301.26 193.586 301.083C193.367 300.905 193.163 300.864 193.149 300.905Z" fill="#263238"/>
<path d="M191.683 300.141C191.683 300.189 191.806 300.285 191.997 300.36C192.188 300.435 192.358 300.462 192.378 300.421C192.399 300.38 192.256 300.278 192.065 300.203C191.874 300.128 191.697 300.08 191.683 300.141Z" fill="#263238"/>
<path d="M190.087 300.196C190.087 300.237 190.285 300.162 190.503 300.148C190.721 300.135 190.899 300.148 190.919 300.148C190.939 300.148 190.755 299.971 190.489 299.998C190.223 300.026 190.053 300.162 190.087 300.196Z" fill="#263238"/>
<path d="M189.003 300.367C189.003 300.414 189.112 300.448 189.235 300.442C189.357 300.435 189.46 300.394 189.46 300.346C189.46 300.298 189.35 300.264 189.228 300.271C189.105 300.278 189.003 300.319 189.003 300.367Z" fill="#263238"/>
<path d="M74.0038 244.92L63.8556 169.088C63.7924 168.616 63.8353 168.136 63.9812 167.683C64.1272 167.23 64.3725 166.815 64.6992 166.468C65.026 166.122 65.426 165.853 65.87 165.681C66.314 165.509 66.7908 165.438 67.2656 165.474L91.729 167.52C92.8202 167.612 93.8434 168.088 94.6165 168.863C95.3896 169.639 95.8623 170.664 95.9506 171.755L101.911 243.549L74.0038 244.92Z" fill="#031D44"/>
<g opacity="0.2">
<path opacity="0.2" d="M74.0038 244.92L63.8556 169.088C63.7924 168.616 63.8353 168.136 63.9812 167.683C64.1272 167.23 64.3725 166.815 64.6992 166.468C65.026 166.122 65.426 165.853 65.87 165.681C66.314 165.509 66.7908 165.438 67.2656 165.474L91.729 167.52C92.8202 167.612 93.8434 168.088 94.6165 168.863C95.3896 169.639 95.8623 170.664 95.9506 171.755L101.911 243.549L74.0038 244.92Z" fill="black"/>
</g>
<path d="M97.601 133.474C97.3964 130.583 96.6394 127.766 96.237 124.902C95.8346 122.037 95.7528 119.023 96.8849 116.356C97.5778 114.87 98.5575 113.534 99.7676 112.427C100.978 111.32 102.395 110.463 103.937 109.904C107.034 108.805 110.342 108.427 113.608 108.8C114.198 108.817 114.779 108.949 115.319 109.188C115.586 109.312 115.816 109.502 115.987 109.742C116.158 109.981 116.264 110.26 116.295 110.552C116.301 110.697 116.278 110.842 116.226 110.978C116.174 111.114 116.095 111.237 115.993 111.341C115.891 111.445 115.769 111.526 115.635 111.581C115.5 111.635 115.355 111.661 115.21 111.657C116.456 111.784 117.684 112.047 118.873 112.441C119.356 112.578 119.775 112.88 120.059 113.294C120.174 113.553 120.22 113.838 120.191 114.12C120.162 114.403 120.061 114.673 119.896 114.903C119.556 115.36 119.138 115.753 118.661 116.063C118.807 116.034 118.957 116.034 119.103 116.064C119.249 116.093 119.388 116.151 119.511 116.234C119.635 116.317 119.741 116.423 119.823 116.547C119.905 116.671 119.962 116.81 119.991 116.956C120.035 117.254 120.015 117.558 119.934 117.848C119.853 118.139 119.712 118.409 119.52 118.641C119.173 119.132 118.723 119.534 118.361 120.005C116.888 121.962 117.174 124.683 117.529 127.111" fill="#263238"/>
<path d="M97.867 150.415L111.65 150.17C111.834 148.574 112.1 142.368 112.1 142.368C112.1 142.368 117.863 141.836 118.286 136.134C118.709 130.433 118.532 117.27 118.532 117.27C115.374 115.676 111.849 114.954 108.319 115.178C104.79 115.402 101.384 116.565 98.4535 118.545L97.5669 119.145L97.867 150.415Z" fill="#B78876"/>
<path d="M116.622 127.159C116.506 127.042 116.427 126.894 116.396 126.733C116.364 126.572 116.381 126.405 116.444 126.253C116.507 126.101 116.613 125.971 116.75 125.88C116.887 125.789 117.048 125.74 117.212 125.74C117.376 125.74 117.537 125.789 117.674 125.88C117.81 125.971 117.917 126.101 117.98 126.253C118.043 126.405 118.06 126.572 118.028 126.733C117.997 126.894 117.918 127.042 117.802 127.159C117.725 127.238 117.633 127.3 117.532 127.343C117.431 127.385 117.322 127.407 117.212 127.407C117.102 127.407 116.993 127.385 116.892 127.343C116.791 127.3 116.699 127.238 116.622 127.159Z" fill="#263238"/>
<path d="M118.075 125.775C117.979 125.87 117.447 125.406 116.663 125.352C115.879 125.297 115.299 125.672 115.197 125.563C115.094 125.454 115.258 125.345 115.517 125.168C115.869 124.95 116.281 124.85 116.694 124.88C117.107 124.911 117.499 125.071 117.815 125.338C118.047 125.55 118.122 125.734 118.075 125.775Z" fill="#263238"/>
<path d="M108.977 125.904C109.112 125.999 109.216 126.131 109.276 126.285C109.336 126.439 109.349 126.607 109.313 126.768C109.277 126.929 109.194 127.075 109.074 127.189C108.955 127.303 108.804 127.379 108.641 127.406C108.479 127.434 108.311 127.413 108.161 127.346C108.01 127.279 107.883 127.168 107.795 127.028C107.708 126.888 107.664 126.726 107.669 126.561C107.674 126.396 107.728 126.236 107.824 126.102C107.887 126.013 107.966 125.937 108.058 125.879C108.15 125.821 108.252 125.782 108.359 125.764C108.466 125.745 108.576 125.748 108.682 125.772C108.788 125.796 108.888 125.841 108.977 125.904Z" fill="#263238"/>
<path d="M109.495 125.945C109.4 126.034 108.868 125.57 108.083 125.515C107.299 125.461 106.719 125.836 106.624 125.734C106.528 125.631 106.678 125.509 106.944 125.338C107.294 125.117 107.706 125.014 108.118 125.045C108.531 125.076 108.923 125.238 109.236 125.509C109.468 125.713 109.543 125.904 109.495 125.945Z" fill="#263238"/>
<path d="M112.25 132.622C112.664 132.485 113.097 132.421 113.533 132.431C113.744 132.431 113.908 132.383 113.928 132.274C113.946 132.068 113.908 131.861 113.819 131.674C113.648 131.142 113.471 130.603 113.294 130.037C112.578 127.711 112.087 125.795 112.209 125.761C112.332 125.727 113.001 127.582 113.723 129.908C113.894 130.474 114.051 131.019 114.215 131.551C114.327 131.826 114.346 132.13 114.269 132.417C114.235 132.494 114.183 132.562 114.118 132.615C114.053 132.669 113.976 132.706 113.894 132.724C113.778 132.737 113.662 132.737 113.546 132.724C113.112 132.764 112.673 132.729 112.25 132.622Z" fill="#263238"/>
<path d="M109.638 133.331C108.854 132.792 111.821 134.695 113.423 134.695C113.13 135.088 112.712 135.37 112.237 135.494C111.762 135.618 111.26 135.577 110.811 135.377C109.12 134.661 109.638 133.331 109.638 133.331Z" fill="white"/>
<path d="M112.121 142.286C109.482 142.176 106.936 141.28 104.81 139.715C104.81 139.715 106.317 143.929 112.039 143.766L112.121 142.286Z" fill="#A36957"/>
<path d="M97.3828 123.442L97.676 130.842C97.676 130.842 100.274 130.051 100.445 129.976C100.615 129.901 100.397 120.912 100.397 120.912C100.397 120.912 100.036 117.502 102.245 116.717C104.571 115.879 105.58 117.563 108.874 118.081C119.739 119.916 118.995 116.581 118.995 116.581C118.995 116.581 120.359 115.115 117.57 113.505C114.781 111.896 107.804 111.35 103.985 112.666C96.4825 115.251 96.0324 117.822 96.0324 120.093C96.0324 123.333 97.3828 123.442 97.3828 123.442Z" fill="#263238"/>
<path d="M98.6581 124.206C98.5353 124.158 94.4297 123.626 94.8184 128.475C95.2072 133.324 99.9743 131.333 99.9743 131.203C99.9743 131.074 98.6581 124.206 98.6581 124.206Z" fill="#B78876"/>
<path d="M98.3512 129.58C98.3512 129.58 98.2694 129.648 98.133 129.723C97.9374 129.825 97.7101 129.847 97.4987 129.785C97.1679 129.615 96.8896 129.358 96.6938 129.042C96.4979 128.726 96.3919 128.363 96.387 127.991C96.3399 127.575 96.3865 127.153 96.5234 126.757C96.5598 126.604 96.632 126.463 96.734 126.345C96.836 126.226 96.9649 126.133 97.11 126.075C97.2051 126.042 97.3087 126.043 97.4032 126.078C97.4976 126.113 97.5772 126.179 97.6283 126.266C97.7033 126.395 97.676 126.497 97.7033 126.504C97.7306 126.511 97.7988 126.409 97.7442 126.218C97.7107 126.098 97.6358 125.994 97.5328 125.925C97.389 125.84 97.2192 125.811 97.0554 125.843C96.8592 125.897 96.6803 126.001 96.5357 126.144C96.3912 126.287 96.286 126.465 96.2302 126.661C96.0583 127.094 95.9951 127.562 96.046 128.025C96.1552 129 96.728 129.873 97.41 130.023C97.5435 130.051 97.6814 130.047 97.8136 130.014C97.9457 129.981 98.0688 129.919 98.1739 129.832C98.3512 129.73 98.3648 129.614 98.3512 129.58Z" fill="#A36957"/>
<path d="M152.823 189.596C152.823 189.596 159.643 189.269 161.007 189.889C163.366 190.919 170.391 201.933 170.036 201.933C168.972 201.933 166.783 201.933 166.783 201.933L155.871 197.794L153.3 198.442L152.823 189.596Z" fill="#B78876"/>
<path d="M182.148 221.22C182.148 221.22 202.554 291.896 202.602 291.548C202.649 291.2 184.31 300.367 184.31 300.367L171.939 249.257L182.148 221.22Z" fill="#263238"/>
<path d="M183.908 300.796L203.236 291.364L202.397 288.779L182.919 298.225L183.908 300.796Z" fill="#455A64"/>
<path d="M181.371 274.798C181.269 274.798 181.057 274.382 180.887 273.816C180.716 273.25 180.662 272.752 180.764 272.725C180.866 272.698 181.078 273.134 181.248 273.707C181.419 274.28 181.467 274.764 181.371 274.798Z" fill="#455A64"/>
<path d="M182.633 278.938C182.53 278.938 182.305 278.529 182.135 277.963C181.964 277.397 181.896 276.906 181.992 276.872C182.087 276.838 182.312 277.281 182.49 277.847C182.667 278.413 182.728 278.89 182.633 278.938Z" fill="#455A64"/>
<path d="M183.949 283.03C183.847 283.064 183.622 282.628 183.438 282.062C183.253 281.496 183.185 281.011 183.281 280.977C183.376 280.943 183.608 281.38 183.792 281.946C183.976 282.512 184.044 283.03 183.949 283.03Z" fill="#455A64"/>
<path d="M185.327 287.122C185.224 287.156 184.992 286.727 184.801 286.16C184.611 285.594 184.529 285.11 184.631 285.076C184.733 285.042 184.965 285.472 185.156 286.038C185.347 286.604 185.422 287.122 185.327 287.122Z" fill="#455A64"/>
<path d="M186.759 291.214C186.663 291.214 186.418 290.818 186.22 290.259C186.022 289.7 185.934 289.216 186.036 289.182C186.138 289.148 186.37 289.57 186.575 290.136C186.779 290.702 186.868 291.159 186.759 291.214Z" fill="#455A64"/>
<path d="M188.232 295.245C188.13 295.245 187.884 294.856 187.68 294.297C187.475 293.738 187.379 293.253 187.475 293.219C187.57 293.185 187.823 293.608 188.027 294.167C188.232 294.726 188.348 295.211 188.232 295.245Z" fill="#455A64"/>
<path d="M187.161 296.943C186.993 296.716 186.856 296.469 186.752 296.206C186.513 295.715 186.186 294.999 185.811 294.106C185.054 292.319 184.12 289.802 183.178 286.999C182.237 284.196 181.446 281.632 180.887 279.777C180.628 278.904 180.409 278.167 180.205 277.574C180.106 277.308 180.042 277.031 180.014 276.749C180.147 276.997 180.257 277.257 180.341 277.526C180.532 278.038 180.791 278.774 181.105 279.695L183.499 286.876C184.433 289.679 185.327 292.203 186.022 294.01L186.854 296.145C186.985 296.399 187.088 296.667 187.161 296.943Z" fill="#455A64"/>
<path d="M86.9481 216.31C87.1186 212.566 84.9908 236.859 103.664 237.5C122.337 238.141 160.488 237.861 160.488 237.861L156.021 299.466H178.425L183.103 233.926C183.103 233.926 185.49 214.939 172.498 212.518C164.369 210.997 113.812 210.513 113.812 210.513L86.9481 216.31Z" fill="#263238"/>
<path d="M155.51 299.596H179.1V295.927L155.51 295.961V299.596Z" fill="#455A64"/>
<path d="M118.607 234.608C118.686 234.598 118.766 234.598 118.845 234.608L119.527 234.567L122.255 234.444L132.383 234.056L166.544 232.883H166.763V233.101C166.456 235.611 166.197 238.264 165.978 240.957C165.678 244.811 165.392 248.569 165.112 252.197C164.833 255.825 164.43 259.317 164.082 262.645C163.4 269.288 162.759 275.276 162.227 280.316C161.695 285.356 161.252 289.393 160.945 292.223C160.788 293.587 160.666 294.706 160.577 295.463C160.536 295.818 160.502 296.097 160.475 296.302C160.466 296.398 160.45 296.494 160.427 296.588C160.416 296.493 160.416 296.397 160.427 296.302C160.427 296.09 160.468 295.811 160.495 295.456C160.563 294.692 160.666 293.601 160.795 292.21C161.068 289.379 161.477 285.308 161.961 280.288C162.446 275.269 163.066 269.26 163.735 262.604C164.062 259.276 164.417 255.784 164.737 252.163C165.058 248.541 165.303 244.777 165.596 240.93C165.815 238.202 166.074 235.576 166.388 233.053L166.579 233.264L132.41 234.308L122.283 234.588L119.555 234.642H118.873C118.783 234.644 118.693 234.633 118.607 234.608Z" fill="#455A64"/>
<path d="M120.762 231.941C120.762 232.044 120.284 232.139 119.684 232.153C119.084 232.166 118.607 232.098 118.607 231.996C118.607 231.894 119.084 231.791 119.677 231.778C120.271 231.764 120.762 231.839 120.762 231.941Z" fill="#455A64"/>
<path d="M125.079 231.839C125.079 231.941 124.601 232.037 124.001 232.051C123.401 232.064 122.924 231.996 122.917 231.894C122.91 231.791 123.401 231.696 123.994 231.676C124.588 231.655 125.079 231.737 125.079 231.839Z" fill="#455A64"/>
<path d="M129.396 231.737C129.396 231.846 128.918 231.935 128.318 231.955C127.718 231.976 127.241 231.894 127.234 231.792C127.227 231.689 127.718 231.594 128.311 231.58C128.905 231.566 129.396 231.635 129.396 231.737Z" fill="#455A64"/>
<path d="M133.713 231.635C133.713 231.744 133.236 231.839 132.635 231.853C132.035 231.867 131.558 231.792 131.551 231.689C131.544 231.587 132.035 231.491 132.629 231.478C133.222 231.464 133.713 231.532 133.713 231.635Z" fill="#455A64"/>
<path d="M138.03 231.539C138.03 231.641 137.553 231.737 136.952 231.751C136.352 231.764 135.875 231.689 135.868 231.587C135.861 231.485 136.352 231.389 136.946 231.376C137.539 231.362 138.03 231.43 138.03 231.539Z" fill="#455A64"/>
<path d="M142.347 231.437C142.347 231.539 141.87 231.635 141.269 231.648C140.669 231.662 140.192 231.587 140.185 231.485C140.178 231.382 140.669 231.287 141.263 231.273C141.856 231.259 142.34 231.334 142.347 231.437Z" fill="#455A64"/>
<path d="M146.664 231.334C146.664 231.437 146.187 231.532 145.587 231.546C144.986 231.56 144.509 231.485 144.502 231.382C144.495 231.28 144.98 231.184 145.58 231.171C146.18 231.157 146.63 231.232 146.664 231.334Z" fill="#455A64"/>
<path d="M150.981 231.232C150.981 231.334 150.504 231.43 149.904 231.444C149.303 231.457 148.826 231.389 148.819 231.28C148.812 231.171 149.297 231.082 149.897 231.068C150.497 231.055 150.974 231.13 150.981 231.232Z" fill="#455A64"/>
<path d="M155.298 231.13C155.298 231.232 154.821 231.328 154.221 231.341C153.62 231.355 153.143 231.287 153.136 231.184C153.129 231.082 153.614 230.98 154.214 230.966C154.814 230.953 155.291 231.028 155.298 231.13Z" fill="#455A64"/>
<path d="M159.588 231.028C159.588 231.13 159.104 231.225 158.51 231.239C157.917 231.253 157.433 231.184 157.426 231.082C157.419 230.98 157.903 230.878 158.504 230.864C159.104 230.85 159.588 230.925 159.588 231.028Z" fill="#455A64"/>
<path d="M163.932 230.925C163.932 231.028 163.448 231.123 162.855 231.137C162.261 231.15 161.777 231.082 161.77 230.98C161.764 230.877 162.248 230.782 162.848 230.768C163.448 230.755 163.925 230.823 163.932 230.925Z" fill="#455A64"/>
<path d="M168.249 230.823C168.249 230.932 167.765 231.027 167.172 231.041C166.578 231.055 166.087 230.98 166.087 230.877C166.087 230.775 166.565 230.68 167.165 230.666C167.765 230.652 168.243 230.721 168.249 230.823Z" fill="#455A64"/>
<path d="M168.243 234.738C168.133 234.738 168.099 234.24 168.161 233.647C168.222 233.053 168.345 232.583 168.447 232.589C168.549 232.596 168.59 233.087 168.529 233.681C168.468 234.274 168.345 234.751 168.243 234.738Z" fill="#455A64"/>
<path d="M167.82 239.034C167.717 239.034 167.677 238.536 167.738 237.943C167.799 237.35 167.929 236.879 168.031 236.886C168.133 236.893 168.168 237.384 168.113 237.977C168.058 238.57 167.922 239.048 167.82 239.034Z" fill="#455A64"/>
<path d="M167.397 243.331C167.295 243.331 167.254 242.833 167.315 242.24C167.376 241.646 167.506 241.176 167.608 241.183C167.711 241.19 167.745 241.687 167.69 242.281C167.636 242.874 167.499 243.345 167.397 243.331Z" fill="#455A64"/>
<path d="M166.974 247.627C166.872 247.627 166.838 247.13 166.892 246.536C166.947 245.943 167.083 245.472 167.185 245.479C167.288 245.486 167.322 245.984 167.267 246.577C167.213 247.17 167.09 247.641 166.974 247.627Z" fill="#455A64"/>
<path d="M166.551 251.931C166.449 251.931 166.415 251.426 166.469 250.833C166.524 250.239 166.66 249.769 166.763 249.783C166.865 249.796 166.906 250.28 166.844 250.874C166.783 251.467 166.654 251.938 166.551 251.931Z" fill="#455A64"/>
<path d="M166.128 256.227C166.026 256.227 165.992 255.723 166.053 255.129C166.115 254.536 166.237 254.066 166.34 254.079C166.442 254.093 166.483 254.577 166.422 255.17C166.36 255.764 166.237 256.234 166.128 256.227Z" fill="#455A64"/>
<path d="M165.726 260.524C165.617 260.524 165.583 260.026 165.644 259.433C165.706 258.84 165.828 258.362 165.937 258.376C166.047 258.389 166.074 258.874 166.012 259.467C165.951 260.06 165.815 260.524 165.726 260.524Z" fill="#455A64"/>
<path d="M165.29 264.821C165.187 264.821 165.146 264.323 165.208 263.73C165.269 263.136 165.399 262.659 165.501 262.672C165.603 262.686 165.637 263.17 165.583 263.764C165.528 264.357 165.392 264.828 165.29 264.821Z" fill="#455A64"/>
<path d="M164.867 269.117C164.764 269.117 164.73 268.619 164.785 268.026C164.839 267.433 164.976 266.962 165.078 266.969C165.18 266.976 165.215 267.467 165.16 268.06C165.105 268.654 164.969 269.131 164.867 269.117Z" fill="#455A64"/>
<path d="M164.444 273.414C164.342 273.414 164.307 272.916 164.362 272.323C164.417 271.729 164.553 271.259 164.655 271.266C164.758 271.273 164.792 271.764 164.737 272.357C164.683 272.95 164.546 273.428 164.444 273.414Z" fill="#455A64"/>
<path d="M164.021 277.71C163.919 277.71 163.885 277.213 163.939 276.619C163.994 276.026 164.13 275.555 164.232 275.562C164.335 275.569 164.376 276.06 164.314 276.653C164.253 277.247 164.123 277.724 164.021 277.71Z" fill="#455A64"/>
<path d="M163.605 282.007C163.496 282.007 163.462 281.509 163.523 280.916C163.584 280.322 163.707 279.852 163.81 279.859C163.912 279.866 163.953 280.363 163.891 280.957C163.83 281.55 163.68 282.021 163.605 282.007Z" fill="#455A64"/>
<path d="M163.182 286.304C163.08 286.304 163.039 285.806 163.1 285.212C163.162 284.619 163.284 284.149 163.394 284.155C163.503 284.162 163.53 284.66 163.469 285.253C163.407 285.847 163.284 286.317 163.182 286.304Z" fill="#455A64"/>
<path d="M162.759 290.607C162.657 290.607 162.616 290.102 162.677 289.509C162.739 288.916 162.868 288.445 162.971 288.459C163.073 288.472 163.107 288.957 163.053 289.55C162.998 290.143 162.862 290.614 162.759 290.607Z" fill="#455A64"/>
<path d="M162.316 294.904C162.214 294.904 162.18 294.406 162.234 293.813C162.289 293.219 162.425 292.742 162.527 292.755C162.63 292.769 162.664 293.253 162.609 293.847C162.555 294.44 162.439 294.911 162.316 294.904Z" fill="#455A64"/>
<path d="M162.111 297.181C162.009 297.181 161.927 297.134 161.934 297.1C161.941 297.066 162.023 297.038 162.125 297.052C162.227 297.066 162.309 297.1 162.309 297.134C162.309 297.168 162.214 297.188 162.111 297.181Z" fill="#455A64"/>
<path d="M163.544 234.99C163.152 235.605 162.656 236.148 162.077 236.593C161.58 237.127 160.997 237.574 160.352 237.916C161.24 236.765 162.32 235.775 163.544 234.99Z" fill="#263238"/>
<path d="M165.092 235.822C164.35 236.357 163.541 236.791 162.684 237.111C161.876 237.54 161.014 237.857 160.12 238.052C160.861 237.517 161.671 237.083 162.527 236.763C163.336 236.335 164.198 236.018 165.092 235.822Z" fill="#263238"/>
<path d="M119.534 186.936C119.534 186.936 117.249 162.459 113.192 151.745L113.996 151.138L112.789 146.917L97.6078 145.075L97.8397 148.369C95.5994 149.378 93.7691 151.12 92.6497 153.307C87.1937 164.86 89.9217 178.35 86.9959 203.345C86.9959 203.345 83.5859 215.069 87.105 218.738L120.23 211.018L118.668 203.461C133.126 203.188 156.901 200.529 156.901 200.529L156.219 186.848C156.219 186.848 120.694 187.059 119.534 186.936Z" fill="#455A64"/>
<path d="M112.762 146.896C113.243 147.754 113.612 148.671 113.86 149.624C114.008 149.996 114.109 150.386 114.16 150.783C114.17 150.989 114.102 151.192 113.969 151.349C113.86 151.479 113.719 151.577 113.56 151.636C112.987 151.813 112.66 151.69 112.66 151.636C112.66 151.581 113.014 151.575 113.444 151.37C113.559 151.318 113.656 151.234 113.723 151.127C113.79 151.02 113.823 150.896 113.819 150.77C113.742 150.41 113.637 150.057 113.505 149.713C113.141 148.808 112.891 147.862 112.762 146.896Z" fill="#E0E0E0"/>
<path d="M116.383 165.119C116.383 165.228 110.245 165.31 102.743 165.31C95.2413 165.31 89.1033 165.228 89.1033 165.119C89.1033 165.01 95.2413 164.935 102.743 164.935C110.245 164.935 116.383 165.044 116.383 165.119Z" fill="#263238"/>
<path d="M114.958 158.224C114.958 158.326 109.543 158.415 102.873 158.415C96.2029 158.415 90.7878 158.326 90.7878 158.224C90.7878 158.122 96.1961 158.04 102.873 158.04C109.55 158.04 114.958 158.122 114.958 158.224Z" fill="#263238"/>
<path d="M112.966 152.161C112.966 152.263 108.493 152.345 102.968 152.345C97.4441 152.345 92.9771 152.263 92.9771 152.161C92.9771 152.059 97.451 151.97 102.968 151.97C108.486 151.97 112.966 152.086 112.966 152.161Z" fill="#263238"/>
<path d="M112.769 147.878C110.221 148.071 107.664 148.135 105.11 148.069C102.555 148.135 99.999 148.071 97.4509 147.878C97.4509 147.776 100.861 147.694 105.11 147.694C109.359 147.694 112.769 147.776 112.769 147.878Z" fill="#263238"/>
<path d="M117.345 171.755C117.345 171.857 110.886 171.939 102.921 171.939C94.9548 171.939 88.4963 171.857 88.4963 171.755C88.4963 171.653 94.9548 171.564 102.921 171.564C110.886 171.564 117.345 171.646 117.345 171.755Z" fill="#263238"/>
<path d="M118.518 178.418C118.518 178.52 111.8 178.602 103.514 178.602C95.2277 178.602 88.5099 178.52 88.5099 178.418C88.5099 178.316 95.2277 178.227 103.514 178.227C111.8 178.227 118.518 178.316 118.518 178.418Z" fill="#263238"/>
<path d="M119.254 184.556C119.254 184.665 112.366 184.747 103.875 184.747C95.3845 184.747 88.4963 184.665 88.4963 184.556C88.4963 184.447 95.3845 184.372 103.875 184.372C112.366 184.372 119.254 184.454 119.254 184.556Z" fill="#263238"/>
<path d="M152.823 191.274C152.823 191.376 138.296 191.458 120.38 191.458C102.464 191.458 87.9302 191.376 87.9302 191.274C87.9302 191.171 102.457 191.083 120.38 191.083C138.303 191.083 152.823 191.171 152.823 191.274Z" fill="#263238"/>
<path d="M153.075 196.648C153.075 196.757 138.439 196.839 120.387 196.839C102.334 196.839 87.6915 196.757 87.6915 196.648C87.6915 196.539 102.327 196.464 120.387 196.464C138.446 196.464 153.075 196.546 153.075 196.648Z" fill="#263238"/>
<path d="M118.15 203.277C118.15 203.386 111.159 203.468 102.532 203.468C93.9045 203.468 86.9072 203.386 86.9072 203.277C86.9072 203.168 93.8977 203.093 102.532 203.093C111.166 203.093 118.15 203.175 118.15 203.277Z" fill="#263238"/>
<path d="M119.739 209.429C119.739 209.531 112.134 209.619 102.757 209.619C93.3794 209.619 85.7751 209.531 85.7751 209.429C85.7751 209.326 93.3794 209.244 102.757 209.244C112.134 209.244 119.739 209.326 119.739 209.429Z" fill="#263238"/>
<path d="M90.8219 211.059C90.7128 211.059 90.631 199.13 90.631 184.42C90.631 169.709 90.7128 157.781 90.8219 157.781C90.9311 157.781 91.0061 169.709 91.0061 184.42C91.0061 199.13 90.9242 211.059 90.8219 211.059Z" fill="#263238"/>
<path d="M99.0127 210.404C98.9104 210.404 98.8286 195.823 98.8286 177.838C98.8286 159.854 98.89 145.266 99.0127 145.266C99.1355 145.266 99.2037 159.84 99.2037 177.832C99.2037 195.823 99.1219 210.404 99.0127 210.404Z" fill="#263238"/>
<path d="M108.063 209.429C107.961 209.429 107.879 195.373 107.879 178.057C107.879 160.741 107.961 146.685 108.063 146.685C108.165 146.685 108.254 160.741 108.254 178.057C108.254 195.373 108.172 209.429 108.063 209.429Z" fill="#263238"/>
<path d="M115.667 211.038C115.565 211.038 115.483 200.003 115.483 186.397C115.483 172.792 115.565 161.75 115.667 161.75C115.769 161.75 115.858 172.785 115.858 186.397C115.858 200.01 115.769 211.038 115.667 211.038Z" fill="#263238"/>
<path d="M123.722 186.902C123.81 187.699 123.835 188.502 123.797 189.303C123.797 190.783 123.797 192.822 123.715 195.072C123.633 197.323 123.592 199.369 123.524 200.842C123.518 201.644 123.454 202.444 123.333 203.236C123.244 202.441 123.219 201.641 123.258 200.842C123.258 199.362 123.258 197.323 123.34 195.066C123.422 192.808 123.462 190.769 123.531 189.289C123.529 188.49 123.592 187.691 123.722 186.902Z" fill="#263238"/>
<path d="M132.308 187.189C132.392 187.936 132.418 188.688 132.383 189.439C132.383 190.803 132.383 192.733 132.315 194.841C132.247 196.948 132.192 198.865 132.131 200.249C132.133 200.999 132.069 201.747 131.94 202.486C131.855 201.744 131.83 200.995 131.865 200.249C131.865 198.885 131.865 196.948 131.94 194.834C132.015 192.72 132.056 190.81 132.124 189.426C132.118 188.676 132.179 187.927 132.308 187.189Z" fill="#263238"/>
<path d="M140.847 187.039C140.94 187.76 140.967 188.488 140.928 189.214C140.928 190.578 140.928 192.413 140.86 194.459C140.792 196.505 140.744 198.36 140.676 199.697C140.683 200.426 140.621 201.154 140.492 201.872C140.406 201.153 140.379 200.427 140.41 199.703C140.41 198.339 140.41 196.505 140.485 194.459C140.56 192.413 140.601 190.551 140.662 189.214C140.664 188.485 140.726 187.758 140.847 187.039Z" fill="#263238"/>
<path d="M149.419 186.8C149.513 187.498 149.541 188.204 149.501 188.907C149.501 190.21 149.501 192.01 149.433 193.995C149.365 195.98 149.324 197.78 149.256 199.076C149.257 199.782 149.198 200.487 149.078 201.183C148.984 200.485 148.954 199.779 148.99 199.076C148.99 197.773 148.99 195.973 149.058 193.988C149.126 192.003 149.174 190.196 149.235 188.9C149.233 188.196 149.294 187.493 149.419 186.8Z" fill="#263238"/>
<path d="M116.561 189.985C117.178 188.469 118.301 187.213 119.739 186.432C119.238 187.05 118.698 187.636 118.122 188.184C117.64 188.816 117.118 189.418 116.561 189.985Z" fill="#263238"/>
<path d="M118.518 190.149C118.375 189.463 118.427 188.752 118.668 188.095C118.91 187.438 119.33 186.862 119.882 186.432C119.964 186.507 119.391 187.202 119.023 188.225C118.654 189.248 118.668 190.149 118.518 190.149Z" fill="#263238"/>
<path d="M153.45 200.453C153.068 198.29 152.808 196.106 152.673 193.913C152.413 191.729 152.277 189.531 152.263 187.332C152.654 189.497 152.916 191.683 153.048 193.879C153.307 196.061 153.441 198.256 153.45 200.453Z" fill="#263238"/>
<path d="M153.88 189.91C153.88 189.958 153.689 190.094 153.661 190.435C153.655 190.525 153.667 190.616 153.697 190.701C153.726 190.786 153.772 190.865 153.832 190.933C153.909 191.002 154.005 191.046 154.107 191.059C154.209 191.072 154.313 191.054 154.405 191.008C154.501 190.971 154.585 190.907 154.645 190.823C154.706 190.74 154.741 190.64 154.746 190.537C154.737 190.447 154.71 190.36 154.666 190.28C154.623 190.2 154.564 190.13 154.493 190.073C154.227 189.862 153.975 189.93 153.961 189.876C153.948 189.821 154.214 189.63 154.643 189.876C154.769 189.943 154.876 190.041 154.955 190.16C155.033 190.279 155.081 190.416 155.094 190.558C155.103 190.735 155.057 190.91 154.962 191.059C154.866 191.209 154.726 191.324 154.562 191.39C154.4 191.466 154.218 191.49 154.042 191.458C153.866 191.426 153.704 191.34 153.58 191.212C153.49 191.105 153.428 190.977 153.399 190.841C153.369 190.705 153.373 190.563 153.409 190.428C153.532 189.93 153.886 189.862 153.88 189.91Z" fill="#263238"/>
<path d="M119.493 186.868H119.664L120.162 186.909C120.605 186.957 121.26 186.998 122.119 187.025C123.838 187.093 126.361 187.127 129.573 187.1C135.991 187.059 145.164 186.82 156.171 186.418H156.328V186.575C156.546 190.824 156.778 195.441 157.01 200.338V200.494H156.867C155.121 200.822 153.354 200.958 151.547 201.142L146.037 201.62C142.292 201.927 138.439 202.213 134.518 202.493L120.1 203.461C115.919 203.195 111.862 201.695 109.024 198.939C107.63 197.61 106.535 195.999 105.812 194.213C105.134 192.527 104.594 190.789 104.196 189.016C102.511 182.196 101.468 175.983 100.615 170.827C100.206 168.249 99.8584 165.924 99.5651 163.891C99.2544 162.162 99.0517 160.415 98.9581 158.661C98.9025 157.547 99.1375 156.437 99.6401 155.441C99.8125 155.101 100.043 154.794 100.322 154.534C100.083 154.829 99.8709 155.144 99.6879 155.476C99.2227 156.47 99.0162 157.565 99.0877 158.661C99.211 160.407 99.4387 162.145 99.7697 163.864C100.09 165.91 100.452 168.215 100.875 170.793C101.734 175.936 102.825 182.108 104.523 188.935C104.926 190.691 105.466 192.412 106.14 194.084C106.85 195.825 107.924 197.395 109.29 198.687C112.018 201.367 116.035 202.834 120.141 203.1L134.552 202.118L146.064 201.251L151.574 200.781C153.368 200.597 155.169 200.46 156.839 200.147L156.703 200.331C156.471 195.454 156.253 190.817 156.021 186.561L156.192 186.718C145.191 187.12 136.018 187.311 129.594 187.298C126.381 187.298 123.858 187.236 122.139 187.134C121.28 187.086 120.618 187.032 120.175 186.964L119.677 186.902C119.615 186.899 119.553 186.888 119.493 186.868Z" fill="#263238"/>
<path d="M119.493 186.868C119.343 186.523 119.224 186.164 119.139 185.797C118.941 185.115 118.668 184.092 118.341 182.838C117.659 180.335 116.874 176.85 116.001 173.003C115.128 169.157 114.33 165.672 113.73 163.155L113.048 160.175C112.942 159.814 112.871 159.444 112.837 159.07C112.983 159.417 113.102 159.775 113.191 160.141C113.403 160.823 113.676 161.839 114.01 163.094C114.692 165.59 115.524 169.068 116.397 172.921C117.27 176.775 117.986 180.191 118.6 182.776C118.873 183.99 119.104 184.993 119.282 185.763C119.38 186.126 119.45 186.495 119.493 186.868Z" fill="#263238"/>
<path d="M112.81 147.183C112.816 147.435 112.79 147.687 112.735 147.933C112.666 148.417 112.557 149.106 112.407 149.979C112.342 150.455 112.246 150.927 112.121 151.391C112.079 151.544 112.002 151.686 111.895 151.805C111.789 151.923 111.656 152.015 111.507 152.073C111.207 152.151 110.893 152.151 110.593 152.073C109.468 151.841 108.24 151.541 106.958 151.193C104.401 150.511 102.123 149.754 100.465 149.242L98.508 148.628C98.2705 148.568 98.0414 148.479 97.826 148.362C98.0782 148.37 98.3283 148.411 98.5694 148.485C99.0468 148.594 99.7288 148.758 100.568 148.99C102.245 149.433 104.537 150.129 107.088 150.831C108.363 151.179 109.577 151.513 110.695 151.738C110.935 151.817 111.191 151.833 111.439 151.786C111.54 151.749 111.632 151.688 111.705 151.609C111.779 151.529 111.832 151.433 111.862 151.329C112.012 150.893 112.073 150.388 112.175 149.965C112.353 149.12 112.51 148.437 112.619 147.96C112.644 147.693 112.709 147.431 112.81 147.183Z" fill="#263238"/>
<path d="M100.875 241.599L105.642 306.3L107.633 305.836L106.89 242.963L100.875 241.599Z" fill="#263238"/>
<path d="M80.6737 243.849L66.1949 306.225H68.8138L89.5397 243.849H80.6737Z" fill="#263238"/>
<path d="M118.968 243.849L138.719 306.225H140.833L125.14 243.849H118.968Z" fill="#263238"/>
<path d="M121.614 248.037L77.3524 276.96V278.542L122.849 248.037H121.614Z" fill="#263238"/>
<path d="M84.0565 248.037L132.015 280.309V277.84L85.4614 246.625L84.0565 248.037Z" fill="#263238"/>
<path d="M74.0584 244.92L131.087 243.89C131.598 243.881 132.101 243.764 132.564 243.548C133.027 243.331 133.439 243.02 133.774 242.634C134.109 242.249 134.359 241.797 134.508 241.308C134.658 240.82 134.703 240.305 134.64 239.798C134.537 238.901 134.104 238.074 133.424 237.479C132.744 236.884 131.868 236.563 130.964 236.579L73.124 237.507L74.0584 244.92Z" fill="#031D44"/>
<g opacity="0.2">
<path opacity="0.2" d="M74.0584 244.92L131.087 243.89C131.598 243.881 132.101 243.764 132.564 243.548C133.027 243.331 133.439 243.02 133.774 242.634C134.109 242.249 134.359 241.797 134.508 241.308C134.658 240.82 134.703 240.305 134.64 239.798C134.537 238.901 134.104 238.074 133.424 237.479C132.744 236.884 131.868 236.563 130.964 236.579L73.124 237.507L74.0584 244.92Z" fill="black"/>
</g>
<path d="M68.2477 200.836L74.0038 244.92L118.968 243.849L118.852 217.074C118.868 216.022 118.662 214.978 118.248 214.011C117.835 213.043 117.222 212.174 116.45 211.458C115.678 210.743 114.765 210.198 113.768 209.859C112.772 209.52 111.716 209.394 110.668 209.49L76.384 212.586L71.8691 165.863L67.3134 165.474C66.8375 165.439 66.3599 165.511 65.9154 165.684C65.4709 165.858 65.0706 166.128 64.7439 166.476C64.4171 166.823 64.1721 167.239 64.0267 167.694C63.8813 168.148 63.8392 168.629 63.9034 169.102L68.2477 200.836Z" fill="#031D44"/>
</svg>
