<?xml version="1.0" encoding="UTF-8" standalone="no"?>
<!-- Generator: Adobe Illustrator 19.0.0, SVG Export Plug-In . SVG Version: 6.00 Build 0)  -->

<svg
   version="1.1"
   id="Layer_1"
   x="0px"
   y="0px"
   viewBox="0 0 16.000007 15.200007"
   xml:space="preserve"
   sodipodi:docname="star.svg"
   width="16"
   height="15.2"
   inkscape:version="1.2.1 (0f2f062aeb, 2022-09-21, custom)"
   xmlns:inkscape="http://www.inkscape.org/namespaces/inkscape"
   xmlns:sodipodi="http://sodipodi.sourceforge.net/DTD/sodipodi-0.dtd"
   xmlns="http://www.w3.org/2000/svg"
   xmlns:svg="http://www.w3.org/2000/svg"><defs
   id="defs61" /><sodipodi:namedview
   id="namedview59"
   pagecolor="#505050"
   bordercolor="#eeeeee"
   borderopacity="1"
   inkscape:showpageshadow="0"
   inkscape:pageopacity="0"
   inkscape:pagecheckerboard="0"
   inkscape:deskcolor="#505050"
   showgrid="false"
   inkscape:zoom="33.512314"
   inkscape:cx="6.0127152"
   inkscape:cy="7.8777013"
   inkscape:window-width="1366"
   inkscape:window-height="706"
   inkscape:window-x="0"
   inkscape:window-y="0"
   inkscape:window-maximized="1"
   inkscape:current-layer="g26" />
<g
   transform="matrix(0.03109161,0,0,0.03109161,0.09882742,-0.30172757)"
   id="g26"
   style="stroke-width:32.1631">
	<polygon
   style="fill:#e49919;stroke-width:32.1631;fill-opacity:1"
   points="377.857,319.416 406.2,488.559 254.429,409.016 102.657,488.559 131,319.416 8.486,199.645 178.543,174.959 254.429,20.444 330.314,174.959 500.371,199.645 "
   id="polygon18" />
	<path
   style="fill:#e49919;stroke-width:32.1631;fill-opacity:1"
   d="M 464.714,199.645 294.657,174.959 236.143,57.016 181.286,174.959 11.229,199.645 134.658,319.416 105.4,488.559 227,413.587 l 16.457,6.4 v 0 c 1.829,-5.486 7.314,-8.229 11.886,-7.314 10.971,1.829 22.857,6.4 32,12.8 1.829,0.914 2.743,2.743 3.657,3.657 1.829,0.914 2.743,1.829 3.657,2.743 0.914,-0.914 2.743,-0.914 3.657,-0.914 4.571,0 8.229,2.743 9.143,6.4 0.914,-0.914 2.743,-0.914 4.571,-0.914 7.314,0 10.057,6.4 9.143,11.886 l 52.114,20.114 -32,-149.029 z"
   id="path20" />
	<path
   style="fill:#e49919;stroke-width:32.1631;fill-opacity:1"
   d="M 178.543,174.959 8.486,199.645 131.915,319.416 102.658,488.559 146.544,465.702 c 0,0 0,-0.914 -0.914,-0.914 l -10.057,3.657 32,-149.029 -123.43,-119.771 128,-23.771 z"
   id="path22" />
	<path
   style="fill:#e49919;stroke-width:32.1631;fill-opacity:1"
   d="m 102.657,497.702 c -1.829,0 -3.657,-0.914 -5.486,-1.829 -2.743,-1.829 -4.571,-5.486 -3.657,-9.143 L 121.857,322.159 2.086,206.044 c -2.743,-2.743 -3.657,-6.4 -2.743,-9.143 0.914,-3.657 3.657,-5.486 7.314,-6.4 L 172.143,165.815 246.2,15.873 c 2.743,-6.4 13.714,-6.4 16.457,0 l 74.057,149.943 165.486,23.771 c 3.657,0.914 6.4,2.743 7.314,6.4 0.914,3.657 0,7.314 -2.743,9.143 L 387,322.159 415.343,486.73 c 0.914,3.657 -0.914,7.314 -3.657,9.143 -2.743,1.829 -6.4,2.743 -10.057,0.914 l -147.2,-77.714 -148.114,77.714 c -0.915,0.915 -2.744,0.915 -3.658,0.915 z M 27.686,206.044 137.4,313.016 c 1.829,1.829 2.743,5.486 2.743,8.229 l -25.6,150.857 136.229,-71.314 c 2.743,-1.829 5.486,-1.829 8.229,0 l 136.229,71.314 -25.6,-150.857 c -0.914,-2.743 0.914,-6.4 2.743,-8.229 L 482.087,206.045 330.316,184.102 c -2.743,0 -5.486,-2.743 -7.314,-4.571 L 254.429,41.473 186.772,178.616 c -0.914,2.743 -3.657,4.571 -7.314,4.571 z"
   id="path24" />
</g>
<g
   id="g28">
</g>
<g
   id="g30">
</g>
<g
   id="g32">
</g>
<g
   id="g34">
</g>
<g
   id="g36">
</g>
<g
   id="g38">
</g>
<g
   id="g40">
</g>
<g
   id="g42">
</g>
<g
   id="g44">
</g>
<g
   id="g46">
</g>
<g
   id="g48">
</g>
<g
   id="g50">
</g>
<g
   id="g52">
</g>
<g
   id="g54">
</g>
<g
   id="g56">
</g>
</svg>
