<svg width="669" height="793" viewBox="0 0 669 793" fill="none" xmlns="http://www.w3.org/2000/svg">
<g filter="url(#filter0_d_0_1)">
<path d="M3 778V3H555.5L654 120.352V778H3Z" fill="#FAFAFA"/>
</g>
<path d="M71 362.473V343.39L168.176 208.978H198.353V340.624H226.039V362.473H198.353V407H173.436V362.473H71ZM174.544 235.252L100.07 340.624H174.544V235.252Z" fill="black"/>
<path d="M251.207 304.947C251.207 273.234 256.375 248.527 266.71 230.827C277.046 212.942 295.134 204 320.974 204C346.629 204 364.625 212.942 374.961 230.827C385.297 248.527 390.465 273.234 390.465 304.947C390.465 337.213 385.297 362.288 374.961 380.173C364.625 398.058 346.629 407 320.974 407C295.134 407 277.046 398.058 266.71 380.173C256.375 362.288 251.207 337.213 251.207 304.947ZM365.548 304.947C365.548 288.906 364.44 275.354 362.225 264.292C360.195 253.045 355.858 244.01 349.213 237.188C342.753 230.366 333.34 226.955 320.974 226.955C308.423 226.955 298.826 230.366 292.181 237.188C285.721 244.01 281.384 253.045 279.169 264.292C277.139 275.354 276.124 288.906 276.124 304.947C276.124 321.541 277.139 335.461 279.169 346.708C281.384 357.955 285.721 366.99 292.181 373.812C298.826 380.634 308.423 384.045 320.974 384.045C333.34 384.045 342.753 380.634 349.213 373.812C355.858 366.99 360.195 357.955 362.225 346.708C364.44 335.461 365.548 321.541 365.548 304.947Z" fill="black"/>
<path d="M418.961 362.473V343.39L516.137 208.978H546.314V340.624H574V362.473H546.314V407H521.398V362.473H418.961ZM522.505 235.252L448.031 340.624H522.505V235.252Z" fill="black"/>
<rect x="83" y="463" width="480" height="61" rx="10" fill="#E0E0E0"/>
<path d="M232.688 492.112C232.688 493.04 232.368 493.813 231.728 494.432C231.099 495.04 230.133 495.344 228.832 495.344H226.688V500H225.232V488.848H228.832C230.091 488.848 231.045 489.152 231.696 489.76C232.357 490.368 232.688 491.152 232.688 492.112ZM228.832 494.144C229.643 494.144 230.24 493.968 230.624 493.616C231.008 493.264 231.2 492.763 231.2 492.112C231.2 490.736 230.411 490.048 228.832 490.048H226.688V494.144H228.832ZM241.09 497.52H236.226L235.33 500H233.794L237.826 488.912H239.506L243.522 500H241.986L241.09 497.52ZM240.674 496.336L238.658 490.704L236.642 496.336H240.674ZM240.226 486.432L236.818 488.256V487.168L240.226 485.168V486.432ZM253.727 492.08C253.418 491.429 252.97 490.928 252.383 490.576C251.796 490.213 251.114 490.032 250.335 490.032C249.556 490.032 248.852 490.213 248.223 490.576C247.604 490.928 247.114 491.44 246.751 492.112C246.399 492.773 246.223 493.541 246.223 494.416C246.223 495.291 246.399 496.059 246.751 496.72C247.114 497.381 247.604 497.893 248.223 498.256C248.852 498.608 249.556 498.784 250.335 498.784C251.423 498.784 252.319 498.459 253.023 497.808C253.727 497.157 254.138 496.277 254.255 495.168H249.807V493.984H255.807V495.104C255.722 496.021 255.434 496.864 254.943 497.632C254.452 498.389 253.807 498.992 253.007 499.44C252.207 499.877 251.316 500.096 250.335 500.096C249.3 500.096 248.356 499.856 247.503 499.376C246.65 498.885 245.972 498.208 245.471 497.344C244.98 496.48 244.735 495.504 244.735 494.416C244.735 493.328 244.98 492.352 245.471 491.488C245.972 490.613 246.65 489.936 247.503 489.456C248.356 488.965 249.3 488.72 250.335 488.72C251.519 488.72 252.564 489.013 253.471 489.6C254.388 490.187 255.055 491.013 255.471 492.08H253.727ZM259.188 488.848V500H257.732V488.848H259.188ZM270.438 500H268.982L263.126 491.12V500H261.67V488.832H263.126L268.982 497.696V488.832H270.438V500ZM279.512 497.52H274.648L273.752 500H272.215L276.248 488.912H277.928L281.944 500H280.408L279.512 497.52ZM279.096 496.336L277.08 490.704L275.064 496.336H279.096ZM296.734 500H295.278L289.422 491.12V500H287.966V488.832H289.422L295.278 497.696V488.832H296.734V500ZM304.272 500.112C303.238 500.112 302.294 499.872 301.44 499.392C300.587 498.901 299.91 498.224 299.408 497.36C298.918 496.485 298.672 495.504 298.672 494.416C298.672 493.328 298.918 492.352 299.408 491.488C299.91 490.613 300.587 489.936 301.44 489.456C302.294 488.965 303.238 488.72 304.272 488.72C305.318 488.72 306.267 488.965 307.12 489.456C307.974 489.936 308.646 490.608 309.136 491.472C309.627 492.336 309.872 493.317 309.872 494.416C309.872 495.515 309.627 496.496 309.136 497.36C308.646 498.224 307.974 498.901 307.12 499.392C306.267 499.872 305.318 500.112 304.272 500.112ZM304.272 498.848C305.051 498.848 305.75 498.667 306.368 498.304C306.998 497.941 307.488 497.424 307.84 496.752C308.203 496.08 308.384 495.301 308.384 494.416C308.384 493.52 308.203 492.741 307.84 492.08C307.488 491.408 307.003 490.891 306.384 490.528C305.766 490.165 305.062 489.984 304.272 489.984C303.483 489.984 302.779 490.165 302.16 490.528C301.542 490.891 301.051 491.408 300.688 492.08C300.336 492.741 300.16 493.52 300.16 494.416C300.16 495.301 300.336 496.08 300.688 496.752C301.051 497.424 301.542 497.941 302.16 498.304C302.79 498.667 303.494 498.848 304.272 498.848ZM317.516 490.032V493.76H321.58V494.96H317.516V498.8H322.06V500H316.06V488.832H322.06V490.032H317.516ZM333.031 500H331.575L325.719 491.12V500H324.263V488.832H325.719L331.575 497.696V488.832H333.031V500ZM334.969 494.416C334.969 493.328 335.215 492.352 335.705 491.488C336.196 490.613 336.863 489.931 337.705 489.44C338.559 488.949 339.503 488.704 340.537 488.704C341.753 488.704 342.815 488.997 343.721 489.584C344.628 490.171 345.289 491.003 345.705 492.08H343.961C343.652 491.408 343.204 490.891 342.617 490.528C342.041 490.165 341.348 489.984 340.537 489.984C339.759 489.984 339.06 490.165 338.441 490.528C337.823 490.891 337.337 491.408 336.985 492.08C336.633 492.741 336.457 493.52 336.457 494.416C336.457 495.301 336.633 496.08 336.985 496.752C337.337 497.413 337.823 497.925 338.441 498.288C339.06 498.651 339.759 498.832 340.537 498.832C341.348 498.832 342.041 498.656 342.617 498.304C343.204 497.941 343.652 497.424 343.961 496.752H345.705C345.289 497.819 344.628 498.645 343.721 499.232C342.815 499.808 341.753 500.096 340.537 500.096C339.503 500.096 338.559 499.856 337.705 499.376C336.863 498.885 336.196 498.208 335.705 497.344C335.215 496.48 334.969 495.504 334.969 494.416ZM352.929 500.112C351.894 500.112 350.95 499.872 350.097 499.392C349.243 498.901 348.566 498.224 348.065 497.36C347.574 496.485 347.329 495.504 347.329 494.416C347.329 493.328 347.574 492.352 348.065 491.488C348.566 490.613 349.243 489.936 350.097 489.456C350.95 488.965 351.894 488.72 352.929 488.72C353.974 488.72 354.923 488.965 355.777 489.456C356.63 489.936 357.302 490.608 357.793 491.472C358.283 492.336 358.529 493.317 358.529 494.416C358.529 495.515 358.283 496.496 357.793 497.36C357.302 498.224 356.63 498.901 355.777 499.392C354.923 499.872 353.974 500.112 352.929 500.112ZM352.929 498.848C353.707 498.848 354.406 498.667 355.025 498.304C355.654 497.941 356.145 497.424 356.497 496.752C356.859 496.08 357.041 495.301 357.041 494.416C357.041 493.52 356.859 492.741 356.497 492.08C356.145 491.408 355.659 490.891 355.041 490.528C354.422 490.165 353.718 489.984 352.929 489.984C352.139 489.984 351.435 490.165 350.817 490.528C350.198 490.891 349.707 491.408 349.345 492.08C348.993 492.741 348.817 493.52 348.817 494.416C348.817 495.301 348.993 496.08 349.345 496.752C349.707 497.424 350.198 497.941 350.817 498.304C351.446 498.667 352.15 498.848 352.929 498.848ZM369.219 500H367.763L361.907 491.12V500H360.451V488.832H361.907L367.763 497.696V488.832H369.219V500ZM378.565 488.848V490.032H375.525V500H374.069V490.032H371.013V488.848H378.565ZM386.229 500L383.573 495.44H381.813V500H380.357V488.848H383.957C384.8 488.848 385.509 488.992 386.085 489.28C386.672 489.568 387.109 489.957 387.397 490.448C387.685 490.939 387.829 491.499 387.829 492.128C387.829 492.896 387.605 493.573 387.157 494.16C386.72 494.747 386.058 495.136 385.173 495.328L387.973 500H386.229ZM381.813 494.272H383.957C384.746 494.272 385.338 494.08 385.733 493.696C386.128 493.301 386.325 492.779 386.325 492.128C386.325 491.467 386.128 490.955 385.733 490.592C385.349 490.229 384.757 490.048 383.957 490.048H381.813V494.272ZM396.683 497.52H391.819L390.923 500H389.387L393.419 488.912H395.099L399.115 500H397.579L396.683 497.52ZM396.267 496.336L394.251 490.704L392.235 496.336H396.267ZM404.345 488.848C405.561 488.848 406.611 489.077 407.497 489.536C408.393 489.984 409.075 490.629 409.545 491.472C410.025 492.315 410.265 493.307 410.265 494.448C410.265 495.589 410.025 496.581 409.545 497.424C409.075 498.256 408.393 498.896 407.497 499.344C406.611 499.781 405.561 500 404.345 500H400.873V488.848H404.345ZM404.345 498.8C405.785 498.8 406.883 498.421 407.641 497.664C408.398 496.896 408.777 495.824 408.777 494.448C408.777 493.061 408.393 491.979 407.625 491.2C406.867 490.421 405.774 490.032 404.345 490.032H402.329V498.8H404.345ZM418.777 497.52H413.913L413.017 500H411.481L415.513 488.912H417.193L421.209 500H419.673L418.777 497.52ZM418.361 496.336L416.345 490.704L414.329 496.336H418.361Z" fill="#084887"/>
<rect x="110" y="573" width="152" height="85" rx="29" fill="#084887"/>
<rect x="536" y="658" width="152" height="85" rx="29" transform="rotate(-180 536 658)" fill="#084887"/>
<rect x="136" y="594" width="100" height="42" rx="18" fill="white"/>
<rect x="510" y="636" width="100" height="42" rx="18" transform="rotate(-180 510 636)" fill="white"/>
<path d="M298 605V604H297H220C212.82 604 207 609.82 207 617C207 624.18 212.82 630 220 630H297H298V629V605Z" fill="#084887" stroke="white" stroke-width="2"/>
<path d="M348 626L348 627L349 627L425.5 627C432.956 627 439 620.956 439 613.5C439 606.044 432.956 600 425.5 600L349 600L348 600L348 601L348 626Z" fill="#084887" stroke="white" stroke-width="2"/>
<path d="M553.535 2.54493L652.965 120.455L552.469 119.54L553.535 2.54493Z" fill="#E0E0E0"/>
<defs>
<filter id="filter0_d_0_1" x="0" y="0" width="669" height="793" filterUnits="userSpaceOnUse" color-interpolation-filters="sRGB">
<feFlood flood-opacity="0" result="BackgroundImageFix"/>
<feColorMatrix in="SourceAlpha" type="matrix" values="0 0 0 0 0 0 0 0 0 0 0 0 0 0 0 0 0 0 127 0" result="hardAlpha"/>
<feOffset dx="6" dy="6"/>
<feGaussianBlur stdDeviation="4.5"/>
<feComposite in2="hardAlpha" operator="out"/>
<feColorMatrix type="matrix" values="0 0 0 0 0 0 0 0 0 0 0 0 0 0 0 0 0 0 0.25 0"/>
<feBlend mode="normal" in2="BackgroundImageFix" result="effect1_dropShadow_0_1"/>
<feBlend mode="normal" in="SourceGraphic" in2="effect1_dropShadow_0_1" result="shape"/>
</filter>
</defs>
</svg>
